<?xml version="1.0" encoding="UTF-8" standalone="no"?>
<!DOCTYPE svg PUBLIC "-//W3C//DTD SVG 1.1//EN" "http://www.w3.org/Graphics/SVG/1.1/DTD/svg11.dtd">
<svg version="1.1" xmlns="http://www.w3.org/2000/svg" xmlns:xlink="http://www.w3.org/1999/xlink" preserveAspectRatio="xMidYMid meet" viewBox="0 0 600 470" width="600" height="470"><defs>
<path d="M383.14 353.7L340.18 363.35L315.79 265.94L358.04 255.89L383.14 353.7Z" id="d1gfOlo3nv"></path>
<path d="M423.76 344.67L383.14 353.7L358.04 255.89L400.42 245.57L423.76 344.67Z" id="h2KxwyfBFz"></path>
<path d="M458.35 336.93L423.76 344.62L400.41 245.56L430.09 238.56L441.55 238.56L458.35 336.93Z" id="c1Bhnsi0gN"></path>
<path d="M491.87 329.47L458.34 336.85L441.54 238.48L482.64 238.57L491.87 329.47Z" id="b1OBVqsKc3"></path>
<path d="M482.68 238.56L537.04 238.56L537.04 319.37L491.95 329.44L482.68 238.56Z" id="dHIlX7NFM"></path>
<path d="M253.54 382.63L196.38 395.37L195.64 292.41L206.6 292.27L229.67 286.71L253.54 382.63Z" id="auQwBK6nk"></path>
<path d="M297.81 372.69L253.54 382.67L229.85 286.71L273.01 276.4L297.81 372.69Z" id="bOtLWnAjX"></path>
<path d="M315.79 265.96L339.99 363.35L297.7 372.69L273.01 276.35L315.79 265.96Z" id="c7TWo7Q1bC"></path>
<path d="M196.16 395.41L142.57 407.3L143.37 299.21L195.64 299.21L196.16 395.41Z" id="d3PJHzKU4G"></path>
<path d="M195.64 299.21L143.37 299.21L142.57 407.3L44.26 429.09L44.26 292.41L195.64 292.41L195.64 299.21Z" id="a9xjQOM5b"></path>
<path d="M177.95 292.41L44.26 292.41L44.26 256.89L177.95 257.6L177.95 292.41Z" id="a46t9D8Rli"></path>
<path d="M177.95 256.89L44.26 256.89L44.26 217.51L177.95 218.29L177.95 256.89Z" id="f4DgJ1pzlm"></path>
<path d="M177.95 217.51L44.26 217.51L44.26 177.88L177.95 178.57L177.95 217.51Z" id="cgQu4ujop"></path>
<path d="M177.95 178.63L44.26 177.88L44.26 138.49L177.95 139.27L177.95 178.63Z" id="a1aqrBlcK"></path>
<path d="M186.57 139.21L44.26 138.48L44.26 98.64L186.57 99.35L186.57 139.21Z" id="a3yKCoDeSS"></path>
<path d="M194.7 99.35L44.26 98.42L44.26 53.33L194.7 53.33L194.7 99.35Z" id="aMXRnV8hH"></path>
<path d="M206.63 155.94L235.12 156.03L235.27 269.61L206.63 276.82L193.88 263.32L193.98 167.48L206.63 155.94Z" id="asORVEVIn"></path>
<path d="M272.99 155.94L272.99 260.29L235.27 269.69L235.09 155.94L272.99 155.94Z" id="cy3i3QLGd"></path>
<path d="M310.9 155.94L310.46 251.04L272.99 260.29L272.99 155.94L310.9 155.94Z" id="chSXPnqkC"></path>
<path d="M343.62 155.94L343.62 243.04L310.9 250.91L310.9 155.94L343.62 155.94Z" id="c2maYjWd5T"></path>
</defs><g><g><g><use xlink:href="#d1gfOlo3nv" opacity="1" fill="#9d9d9c" fill-opacity="0"></use><g><use xlink:href="#d1gfOlo3nv" opacity="1" fill-opacity="0" stroke="#325f32" stroke-width="1" stroke-opacity="1"></use></g></g><g><use xlink:href="#h2KxwyfBFz" opacity="1" fill="#9d9d9c" fill-opacity="0"></use><g><use xlink:href="#h2KxwyfBFz" opacity="1" fill-opacity="0" stroke="#325f32" stroke-width="1" stroke-opacity="1"></use></g></g><g><use xlink:href="#c1Bhnsi0gN" opacity="1" fill="#9d9d9c" fill-opacity="0"></use><g><use xlink:href="#c1Bhnsi0gN" opacity="1" fill-opacity="0" stroke="#325f32" stroke-width="1" stroke-opacity="1"></use></g></g><g><use xlink:href="#b1OBVqsKc3" opacity="1" fill="#9d9d9c" fill-opacity="0"></use><g><use xlink:href="#b1OBVqsKc3" opacity="1" fill-opacity="0" stroke="#325f32" stroke-width="1" stroke-opacity="1"></use></g></g><g><use xlink:href="#dHIlX7NFM" opacity="1" fill="#9d9d9c" fill-opacity="0"></use><g><use xlink:href="#dHIlX7NFM" opacity="1" fill-opacity="0" stroke="#325f32" stroke-width="1" stroke-opacity="1"></use></g></g><g><use xlink:href="#auQwBK6nk" opacity="1" fill="#9d9d9c" fill-opacity="0"></use><g><use xlink:href="#auQwBK6nk" opacity="1" fill-opacity="0" stroke="#325f32" stroke-width="1" stroke-opacity="1"></use></g></g><g><use xlink:href="#bOtLWnAjX" opacity="1" fill="#9d9d9c" fill-opacity="0"></use><g><use xlink:href="#bOtLWnAjX" opacity="1" fill-opacity="0" stroke="#325f32" stroke-width="1" stroke-opacity="1"></use></g></g><g><use xlink:href="#c7TWo7Q1bC" opacity="1" fill="#9d9d9c" fill-opacity="0"></use><g><use xlink:href="#c7TWo7Q1bC" opacity="1" fill-opacity="0" stroke="#325f32" stroke-width="1" stroke-opacity="1"></use></g></g><g><use xlink:href="#d3PJHzKU4G" opacity="1" fill="#9d9d9c" fill-opacity="0"></use><g><use xlink:href="#d3PJHzKU4G" opacity="1" fill-opacity="0" stroke="#325f32" stroke-width="1" stroke-opacity="1"></use></g></g><g><use xlink:href="#a9xjQOM5b" opacity="1" fill="#9d9d9c" fill-opacity="0"></use><g><use xlink:href="#a9xjQOM5b" opacity="1" fill-opacity="0" stroke="#325f32" stroke-width="1" stroke-opacity="1"></use></g></g><g><use xlink:href="#a46t9D8Rli" opacity="1" fill="#9d9d9c" fill-opacity="0"></use><g><use xlink:href="#a46t9D8Rli" opacity="1" fill-opacity="0" stroke="#325f32" stroke-width="1" stroke-opacity="1"></use></g></g><g><use xlink:href="#f4DgJ1pzlm" opacity="1" fill="#9d9d9c" fill-opacity="0"></use><g><use xlink:href="#f4DgJ1pzlm" opacity="1" fill-opacity="0" stroke="#325f32" stroke-width="1" stroke-opacity="1"></use></g></g><g><use xlink:href="#cgQu4ujop" opacity="1" fill="#9d9d9c" fill-opacity="0"></use><g><use xlink:href="#cgQu4ujop" opacity="1" fill-opacity="0" stroke="#325f32" stroke-width="1" stroke-opacity="1"></use></g></g><g><use xlink:href="#a1aqrBlcK" opacity="1" fill="#9d9d9c" fill-opacity="0"></use><g><use xlink:href="#a1aqrBlcK" opacity="1" fill-opacity="0" stroke="#325f32" stroke-width="1" stroke-opacity="1"></use></g></g><g><use xlink:href="#a3yKCoDeSS" opacity="1" fill="#9d9d9c" fill-opacity="0"></use><g><use xlink:href="#a3yKCoDeSS" opacity="1" fill-opacity="0" stroke="#325f32" stroke-width="1" stroke-opacity="1"></use></g></g><g><use xlink:href="#aMXRnV8hH" opacity="1" fill="#9d9d9c" fill-opacity="0"></use><g><use xlink:href="#aMXRnV8hH" opacity="1" fill-opacity="0" stroke="#325f32" stroke-width="1" stroke-opacity="1"></use></g></g><g><use xlink:href="#asORVEVIn" opacity="1" fill="#9d9d9c" fill-opacity="0"></use><g><use xlink:href="#asORVEVIn" opacity="1" fill-opacity="0" stroke="#325f32" stroke-width="1" stroke-opacity="1"></use></g></g><g><use xlink:href="#cy3i3QLGd" opacity="1" fill="#9d9d9c" fill-opacity="0"></use><g><use xlink:href="#cy3i3QLGd" opacity="1" fill-opacity="0" stroke="#325f32" stroke-width="1" stroke-opacity="1"></use></g></g><g><use xlink:href="#chSXPnqkC" opacity="1" fill="#9d9d9c" fill-opacity="0"></use><g><use xlink:href="#chSXPnqkC" opacity="1" fill-opacity="0" stroke="#325f32" stroke-width="1" stroke-opacity="1"></use></g></g><g><use xlink:href="#c2maYjWd5T" opacity="1" fill="#9d9d9c" fill-opacity="0"></use><g><use xlink:href="#c2maYjWd5T" opacity="1" fill-opacity="0" stroke="#325f32" stroke-width="1" stroke-opacity="1"></use></g></g></g></g></svg>