<svg xmlns="http://www.w3.org/2000/svg" viewBox="0 0 1375.18 880.94"><defs><style>.cls-1,.cls-2{fill:#504137;}.cls-2{fill-rule:evenodd;}</style></defs><title>Zasób 2</title><g id="Warstwa_2" data-name="Warstwa 2"><g id="Layer_1" data-name="Layer 1"><g id="spacerowej"><path class="cls-1" d="M109.79,783.82A42.25,42.25,0,0,1,105.46,802,51.45,51.45,0,0,1,93.2,818.22a63.52,63.52,0,0,1-19,11.57,66.47,66.47,0,0,1-24.87,4.48A97.59,97.59,0,0,1,36,833.41a94.66,94.66,0,0,1-11.57-2.32,77.52,77.52,0,0,1-10.48-3.63c-3.23-1.4-6.51-3-9.77-4.64l-3-1.55,9.9-30.82,4.42,3a60.11,60.11,0,0,0,7.75,4.28,108.58,108.58,0,0,0,10.84,4.43,104.83,104.83,0,0,0,11.79,3.4,46.89,46.89,0,0,0,10.36,1.3,45.91,45.91,0,0,0,8.65-.66,27.31,27.31,0,0,0,5.8-1.78l.14-.06c1.06-.43,2.13-1.94,3-4.26a36,36,0,0,0,1.71-12.21c0-4-1.23-7-3.77-9.34a43.61,43.61,0,0,0-11.65-7.27c-5-2.21-10.49-4.44-16.3-6.65a79.51,79.51,0,0,1-17.36-9.16,49.23,49.23,0,0,1-13.85-14.9c-3.76-6.19-5.66-14.29-5.66-24.07A36.6,36.6,0,0,1,10.76,701a48.67,48.67,0,0,1,10.9-14.67,56.38,56.38,0,0,1,17.47-10.88,62.13,62.13,0,0,1,23.5-4.23,183.49,183.49,0,0,1,19.38,1c6.13.67,12.18,1.57,18,2.68l4,.76-6.34,31L93.22,705c-2.47-.92-5.35-1.82-8.55-2.66s-6.59-1.61-9.91-2.24S68.15,699,65,698.61a71.18,71.18,0,0,0-8.23-.55,68.12,68.12,0,0,0-7.43.38,11.78,11.78,0,0,0-4.93,1.66,5.61,5.61,0,0,0-2.28,3.42A29.27,29.27,0,0,0,41,712a11.06,11.06,0,0,0,2.1,7,23.85,23.85,0,0,0,6.69,5.67,68.41,68.41,0,0,0,10.39,5c4.15,1.6,8.43,3.33,12.74,5.13A118.36,118.36,0,0,1,86,741.21,51.47,51.47,0,0,1,98,750.65a44.1,44.1,0,0,1,8.59,13.8A52.36,52.36,0,0,1,109.79,783.82Z"/><path class="cls-1" d="M236.11,699.74a38.43,38.43,0,0,0-10.62-15.1,48.59,48.59,0,0,0-17.6-9.42A82.48,82.48,0,0,0,183.65,672c-3.55,0-7.35,0-11.3.08s-7.94.17-11.77.33-7.66.36-11.31.58-7,.44-10.05.66l-3.72.26V832.13h37.21V773.71h4.21c10.58,0,19.89-1.4,27.68-4.17a53.93,53.93,0,0,0,19.65-11.72,47.24,47.24,0,0,0,11.55-17.56,59.7,59.7,0,0,0,3.7-21.09A53.2,53.2,0,0,0,236.11,699.74Zm-63.4,54.46V695.6c.75-.07,1.49-.13,2.22-.17,1.86-.11,3.69-.16,5.43-.16,6.39,0,11.36,1.89,15.21,5.78s5.74,10.39,5.74,19.43c0,6.33-.65,11.54-1.94,15.5a24.59,24.59,0,0,1-5,9.12,20.13,20.13,0,0,1-7.33,5.07,67.49,67.49,0,0,1-10.15,3.15Z"/><path class="cls-1" d="M341.14,668.51l-34,6.09-59.8,157.53h27.19l17.4-50.26,48.42-.73,16.89,51h39.83Zm-41.21,90.31L316.75,710l16.33,48.86Z"/><path class="cls-1" d="M527.43,802.85l5.31-1.82v20.78l-2.3,1.08a100.41,100.41,0,0,1-12.56,4.87,132.83,132.83,0,0,1-13.7,3.55c-4.66,1-9.43,1.69-14.16,2.19a130.8,130.8,0,0,1-13.8.77c-11.82,0-22.07-2.07-30.46-6.15a54.16,54.16,0,0,1-20.71-17.36,73.3,73.3,0,0,1-11.39-26.28,147.73,147.73,0,0,1-3.47-33.15,95.6,95.6,0,0,1,3.44-26.64,75.64,75.64,0,0,1,9.46-20.8,67.15,67.15,0,0,1,14-15.27,78.23,78.23,0,0,1,16.61-10.11,80.68,80.68,0,0,1,17.87-5.61,95.3,95.3,0,0,1,17.65-1.71c3.43,0,7.13.11,11,.33s7.6.53,11.19.92,7,.85,10.13,1.34,5.72,1,7.78,1.44l4,.89-7.47,29.67-4.09-1.36a66.51,66.51,0,0,0-7.88-1.92c-3.57-.71-7.42-1.39-11.43-2s-8-1.18-11.95-1.61a91.55,91.55,0,0,0-9.49-.64c-2.84,0-5.4.08-7.59.24a31.16,31.16,0,0,0-5.61.87,21.24,21.24,0,0,0-4.57,1.73A32.58,32.58,0,0,0,458.6,704l-.09.06c-3.58,2.53-6.09,7.75-7.48,15.49-1.53,8.59-2.31,19.5-2.31,32.45,0,19.54,2.85,34.42,8.49,44.2,5.29,9.19,13.66,13.66,25.58,13.66a151.51,151.51,0,0,0,23-1.84A124.49,124.49,0,0,0,527.43,802.85Z"/><polygon class="cls-1" points="656.41 809.28 654.4 832.13 560.26 832.13 560.26 672.83 652.19 672.83 649.95 696.21 597.47 696.86 597.47 738.19 647.58 738.86 645.53 760.66 597.47 761.8 597.47 808.13 656.41 809.28"/><path class="cls-1" d="M801.62,813.47a17,17,0,0,1-10.47-3.71,57.71,57.71,0,0,1-11-11.44,156.76,156.76,0,0,1-11.36-17.61c-3.25-5.77-6.67-11.91-10.2-18.31a61.72,61.72,0,0,0,7.19-4.56,43.5,43.5,0,0,0,9.58-9.75A49.1,49.1,0,0,0,782,734.68a58,58,0,0,0,2.49-17.81c0-15.49-5.1-27.12-15.16-34.56-9.69-7.16-23.82-10.8-42-10.8-6.81,0-14,.17-21.51.5s-14.16.72-20.14,1.16l-3.7.27V832.13h37.21V769.77h3.39l6.91,13.69a287.87,287.87,0,0,0,14.33,26.15c4.23,6.63,8.43,11.78,12.48,15.3a32.12,32.12,0,0,0,13.32,7.27,63.12,63.12,0,0,0,15,1.59,66.5,66.5,0,0,0,10.73-.79,55,55,0,0,0,8.58-2l2.74-.91V813.47ZM719.14,695.35h.17c1.46-.05,2.73-.08,3.87-.08a40.49,40.49,0,0,1,10.59,1.25,16.1,16.1,0,0,1,6.87,3.67,15.7,15.7,0,0,1,4.09,6.77,38,38,0,0,1,1.53,11.71,63.84,63.84,0,0,1-.76,10.79,29.56,29.56,0,0,1-1.85,6.62,13.88,13.88,0,0,1-2.26,3.7,16.31,16.31,0,0,1-2.62,2.37,25.38,25.38,0,0,1-7.71,3.27,40,40,0,0,1-10.67,1.42h-1.25Z"/><path class="cls-1" d="M965.1,718.86a69.43,69.43,0,0,0-14.38-25.68,63.27,63.27,0,0,0-24.07-16.38c-9.46-3.73-20.63-5.61-33.22-5.61s-23.7,1.89-33,5.62A59.94,59.94,0,0,0,837,693.25,67.88,67.88,0,0,0,823.45,719a119.66,119.66,0,0,0-4.26,33,124,124,0,0,0,4.17,33.23,70.31,70.31,0,0,0,13.24,26.17,59.35,59.35,0,0,0,23.28,17c9.32,3.91,20.55,5.9,33.39,5.9,12.48,0,23.64-1.95,33.16-5.79a64,64,0,0,0,24.23-16.81,70.7,70.7,0,0,0,14.44-26.16A112.47,112.47,0,0,0,969.8,752,109.56,109.56,0,0,0,965.1,718.86Zm-71.75,89.68c-6.79,0-12.49-1.28-16.93-3.82a28.55,28.55,0,0,1-10.71-10.9A55.26,55.26,0,0,1,859.62,776a139,139,0,0,1-1.9-24c0-14.26.72-25.68,2.15-34,1.7-9.82,4.18-13.07,5.51-14.12,2.7-2.15,6.54-3.86,11.41-5.08a69.16,69.16,0,0,1,16.72-1.93,36.9,36.9,0,0,1,16.85,3.58,30.11,30.11,0,0,1,11.43,10.31,50.07,50.07,0,0,1,6.87,17.25A114.19,114.19,0,0,1,931,752c0,6.12-.19,12.13-.57,17.87a150,150,0,0,1-1.75,15.5,66.85,66.85,0,0,1-2.84,11.37c-1.22,3.33-2.31,4.33-2.77,4.64a39.1,39.1,0,0,1-11.6,5.19C906.78,807.88,900.7,808.54,893.35,808.54Z"/><path class="cls-1" d="M1194.29,672.83l-43.37,159.3h-34.67l-26.87-82c0-.08-.05-.16-.07-.24-.09.33-.19.66-.28,1l0,.13-25.66,81.07h-34.85l-44.41-159.3h39.18l25.09,93c1,3.77,2,7.84,3,12.12q1.28,5.54,2.43,10.44,1.74-5.55,3.73-11.75,2-6.37,3.52-11.12l23.37-73.71h22.73l24.2,73.65c1,3.25,2.14,7,3.4,11.18s2.47,8.18,3.65,11.92l3-11.69c1.08-4.21,2.08-8,3-11.23l24.06-92.86Z"/><polygon class="cls-1" points="1308.85 809.28 1306.84 832.13 1212.7 832.13 1212.7 672.83 1304.63 672.83 1302.39 696.21 1249.91 696.86 1249.91 738.19 1300.02 738.86 1297.97 760.66 1249.91 761.8 1249.91 808.13 1308.85 809.28"/><path class="cls-1" d="M1371.58,672.83v144c0,16.47-3.95,30-11.74,40.1s-19.33,17.77-34.46,22.93l-3.23,1.1-8.27-15.7,3.2-2a36,36,0,0,0,8.73-7.22,30.54,30.54,0,0,0,5.15-8.48,44.53,44.53,0,0,0,2.63-10.08,85.26,85.26,0,0,0,.78-11.83V672.83Z"/></g><g id="osiedle_przy" data-name="osiedle przy"><path class="cls-1" d="M826.42,551.67c-4.21-4.48-10.46-6.75-18.58-6.75a29.54,29.54,0,0,0-10.69,1.8,21.2,21.2,0,0,0-7.89,5.22,21.75,21.75,0,0,0-4.76,8.2A34,34,0,0,0,783,570.72c0,8.29,2.17,14.72,6.44,19.1s10.49,6.62,18.45,6.62a29.5,29.5,0,0,0,10.69-1.8,21.12,21.12,0,0,0,7.89-5.22,21.55,21.55,0,0,0,4.76-8.2,34.27,34.27,0,0,0,1.55-10.65C832.73,562.49,830.61,556.13,826.42,551.67Zm-24.66,31.77c-1.35-2.65-2-7-2-12.8,0-1.94,0-3.82.14-5.59s.26-3.37.48-4.78a16.43,16.43,0,0,1,.82-3.31l.37-.94c.19-.12.75-.42,1.24-.66a8.86,8.86,0,0,1,1.81-.59,16.69,16.69,0,0,1,3.4-.34,6,6,0,0,1,5.89,3.6c1.38,2.73,2.08,7,2.08,12.69,0,2-.07,3.88-.19,5.73a41.76,41.76,0,0,1-.58,4.81,20.93,20.93,0,0,1-.91,3.42l-.34.87-.31.21s-.46.22-1,.44a7.14,7.14,0,0,1-1.48.42,17.78,17.78,0,0,1-3.43.31A6.08,6.08,0,0,1,801.76,583.44Z"/><path class="cls-1" d="M882.79,578.67a13.28,13.28,0,0,1-1.87,7.28,21.92,21.92,0,0,1-4.1,4.76c-.78.67-1.62,1.35-2.5,2a17.13,17.13,0,0,1-3.14,1.9,18.12,18.12,0,0,1-3.95,1.32,23.53,23.53,0,0,1-5.1.49,38.29,38.29,0,0,1-9.34-1.06,42,42,0,0,1-7.15-3c-.49-.26-1.12-.62-1.4-.8s-.36-.74-.17-1.26l3.61-9.65a.77.77,0,0,1,1.13-.47l1.63,1s1.27.79,2.42,1.56a30.53,30.53,0,0,0,3.46,2,24.84,24.84,0,0,0,3.82,1.5,13.19,13.19,0,0,0,3.89.58,14.52,14.52,0,0,0,2.49-.2l.61-.11a7.26,7.26,0,0,0,1.1-.68l.21-.85a13.54,13.54,0,0,0,.29-3,2.82,2.82,0,0,0-1.12-2.41,15.38,15.38,0,0,0-3.89-2.09c-1.69-.65-3.53-1.3-5.47-1.95a26.59,26.59,0,0,1-5.85-2.76,15.8,15.8,0,0,1-4.72-4.6,13.31,13.31,0,0,1-2-7.54,11.64,11.64,0,0,1,1.89-6.2,21.27,21.27,0,0,1,3.91-4.76,17.66,17.66,0,0,1,5.87-3.55,21.72,21.72,0,0,1,7.32-1.14,70.46,70.46,0,0,1,7,.38c2.44.26,5.88.71,5.88.71l1.75.24a.9.9,0,0,1,.6,1.1l-1.64,10.51a.78.78,0,0,1-1,.71l-1.79-.59s-1.23-.39-2.44-.73-2.42-.68-3.62-1-2.29-.52-3.39-.69a19.15,19.15,0,0,0-2.83-.24,12.84,12.84,0,0,0-2.35.15l-.42.09a1.15,1.15,0,0,0-.53.38l-.06.23a6.45,6.45,0,0,0-.21,1.66,2.38,2.38,0,0,0,1.07,2.11,17,17,0,0,0,3.92,2c1.68.62,3.49,1.26,5.54,2a28.87,28.87,0,0,1,5.86,2.75,15.42,15.42,0,0,1,4.74,4.57A13.15,13.15,0,0,1,882.79,578.67Z"/><path class="cls-1" d="M915,529a1.05,1.05,0,0,1,0,1.44l-9.1,9.52a1,1,0,0,1-1.38,0l-9-9.5a1.05,1.05,0,0,1,0-1.45l9-9.43a1,1,0,0,1,1.39,0Z"/><rect class="cls-1" x="897.36" y="545.9" width="16.25" height="49.64" rx="1"/><path class="cls-1" d="M974,580.86a.78.78,0,0,0-1.1-.53c-.43.23-1.19.61-1.69.85,0,0-.61.29-1.82.74s-2.63.92-4.15,1.37-3.07.82-4.74,1.13a24.65,24.65,0,0,1-4.63.47c-3.39,0-5.84-1-7.47-3s-2.4-7.08-2.4-7.08c-.07-.54-.14-1.12-.14-1.28s.45-.32,1-.37l11.3-.86,2-.17s3.33-.29,5-.58a35.64,35.64,0,0,0,4.26-.95,11.28,11.28,0,0,0,3.09-1.36,7.68,7.68,0,0,0,1.35-1.13c.37-.41.73-.84.81-1a1.6,1.6,0,0,0,.14-.74c0-.3,0-.61,0-.68s-.11-.57-.24-1.1c0,0-1.48-6.18-2.83-8.8a20.8,20.8,0,0,0-5-6.45,17.73,17.73,0,0,0-6.33-3.46,23.9,23.9,0,0,0-6.9-1,30.9,30.9,0,0,0-9.51,1.43,20.4,20.4,0,0,0-7.89,4.7,21.71,21.71,0,0,0-5.21,8.45,37.16,37.16,0,0,0-1.83,12.43,34.46,34.46,0,0,0,1.6,11.16,20.58,20.58,0,0,0,4.46,7.67,17,17,0,0,0,6.8,4.35,24.87,24.87,0,0,0,8.25,1.33,29.2,29.2,0,0,0,7.3-.91,42,42,0,0,0,6.64-2.32A46.83,46.83,0,0,0,970,590c1.79-1.15,4-2.78,4-2.78l1.25-.91c.24-.17.29-.75.12-1.27Zm-27.19-21.59a18.08,18.08,0,0,1,.8-2.73l.29-.73a5.3,5.3,0,0,1,1.15-.85,3.22,3.22,0,0,1,.77-.28,7.79,7.79,0,0,1,2-.25,2.84,2.84,0,0,1,2.08.8,8.79,8.79,0,0,1,1.83,2.58,15.66,15.66,0,0,1,1.21,3.67c.18.85.29,1.53.29,1.53a.88.88,0,0,1-.84,1l-9.36.43a.86.86,0,0,1-.92-1s0-.22.09-.84A34.29,34.29,0,0,1,946.82,559.27Z"/><path class="cls-1" d="M1019.49,516.15a1.28,1.28,0,0,0-1,1.2v25.23c0,.55,0,1.28,0,1.63s.07,1.21.07,1.24a2.37,2.37,0,0,1-1,0s-1.14-.14-2.21-.24c-1.68-.15-3.27-.23-4.73-.23a25.16,25.16,0,0,0-9.84,1.86,21,21,0,0,0-7.52,5.38,23.49,23.49,0,0,0-4.7,8.53,36.47,36.47,0,0,0-1.6,11.17,34,34,0,0,0,1.64,11.17,21.46,21.46,0,0,0,4.45,7.65,17,17,0,0,0,6.52,4.35,21.55,21.55,0,0,0,7.52,1.34,16.63,16.63,0,0,0,7.93-1.84c1.77-.93,4.21-2.5,4.21-2.5a1.17,1.17,0,0,1,1.49.22l2.07,2.46a2.43,2.43,0,0,0,1.64.76h9.2a1,1,0,0,0,1-1V514a.79.79,0,0,0-1-.8ZM1006,557.42a6.55,6.55,0,0,1,1.47-1.31,6.07,6.07,0,0,1,1.8-.66,22.23,22.23,0,0,1,4.61-.42,32.34,32.34,0,0,1,3.56.28,1.17,1.17,0,0,1,1,1.13v26.27a1.58,1.58,0,0,1-.92,1.37s-.72.29-1.67.57a13.84,13.84,0,0,1-3.86.54,6.75,6.75,0,0,1-5.81-3.11c-1.58-2.23-2.38-5.9-2.38-10.91a39.25,39.25,0,0,1,1.05-10.19A17.58,17.58,0,0,1,1006,557.42Z"/><path class="cls-1" d="M1068.69,513.21a.79.79,0,0,1,1,.8v80.53a1,1,0,0,1-1,1h-14.25a1,1,0,0,1-1-1V517.35a1.28,1.28,0,0,1,1-1.2Z"/><path class="cls-1" d="M1130.07,580.86a.78.78,0,0,0-1.1-.53c-.43.23-1.19.61-1.69.85,0,0-.61.29-1.82.74s-2.63.92-4.14,1.37-3.08.82-4.74,1.13a24.84,24.84,0,0,1-4.64.47c-3.39,0-5.84-1-7.47-3s-2.4-7.08-2.4-7.08c-.07-.54-.14-1.12-.14-1.28s.45-.32,1-.37l11.3-.86,2-.17s3.33-.29,5-.58a35.64,35.64,0,0,0,4.26-.95,11.14,11.14,0,0,0,3.09-1.36,7.68,7.68,0,0,0,1.35-1.13c.37-.41.73-.84.81-1a1.6,1.6,0,0,0,.14-.74c0-.3,0-.61,0-.68s-.11-.57-.24-1.1c0,0-1.48-6.18-2.83-8.8a20.8,20.8,0,0,0-5-6.45,17.77,17.77,0,0,0-6.32-3.46,24,24,0,0,0-6.91-1,30.9,30.9,0,0,0-9.51,1.43,20.29,20.29,0,0,0-7.88,4.7,21.61,21.61,0,0,0-5.22,8.45,37.16,37.16,0,0,0-1.83,12.43,34.46,34.46,0,0,0,1.6,11.16,20.58,20.58,0,0,0,4.46,7.67,17,17,0,0,0,6.8,4.35,24.91,24.91,0,0,0,8.25,1.33,29.2,29.2,0,0,0,7.3-.91,42,42,0,0,0,6.64-2.32,46.83,46.83,0,0,0,5.87-3.17c1.79-1.15,4-2.78,4-2.78l1.25-.91c.24-.17.29-.75.12-1.27Zm-27.77-18.17a34.29,34.29,0,0,1,.58-3.42,18.08,18.08,0,0,1,.8-2.73l.29-.73a5.3,5.3,0,0,1,1.15-.85,3.22,3.22,0,0,1,.77-.28,7.79,7.79,0,0,1,2-.25,2.84,2.84,0,0,1,2.08.8,8.79,8.79,0,0,1,1.83,2.58,15.66,15.66,0,0,1,1.21,3.67c.18.85.29,1.53.29,1.53a.88.88,0,0,1-.83,1l-9.37.43a.86.86,0,0,1-.92-1S1102.22,563.31,1102.3,562.69Z"/><path class="cls-1" d="M1219.25,558.21a21.23,21.23,0,0,0-4.5-7.61,17.44,17.44,0,0,0-6.54-4.34,21.65,21.65,0,0,0-7.53-1.34,17.27,17.27,0,0,0-7.74,1.63c-1.45.71-3.41,1.92-3.41,1.92a.73.73,0,0,1-1.13-.44l-.6-2.06a1.14,1.14,0,0,0-1.26-.79l-12.33,2.15a1.24,1.24,0,0,0-1,1.17v78.25a.83.83,0,0,0,1,.84l14.27-2.37a1.22,1.22,0,0,0,1-1.16V598.79s0-1.32-.07-2.48v-.13c0-.14.44-.19,1-.09l.59.08a31.34,31.34,0,0,0,4.06.27,29.72,29.72,0,0,0,10.72-1.84,22.19,22.19,0,0,0,8.19-5.4,24,24,0,0,0,5.17-8.55,33.31,33.31,0,0,0,1.79-11.29A33.81,33.81,0,0,0,1219.25,558.21Zm-18.2,26.44a5.11,5.11,0,0,1-2.52,1.11,22.77,22.77,0,0,1-4.41.42,28.46,28.46,0,0,1-3-.15l-.66-.07a1.24,1.24,0,0,1-1-1.17V558.42a1.48,1.48,0,0,1,1-1.31s.93-.31,1.87-.52a17.57,17.57,0,0,1,3.89-.42,6.48,6.48,0,0,1,5.65,3.05c1.52,2.2,2.28,5.78,2.28,10.63A39.31,39.31,0,0,1,1203,580C1202.12,583.24,1201.4,584.3,1201.05,584.65Z"/><path class="cls-1" d="M1267.19,544.92a.8.8,0,0,1,.72,1L1266.2,559a.76.76,0,0,1-1,.68l-1.82-.59s-1-.31-2.1-.52a12.89,12.89,0,0,0-4.78-.16,4,4,0,0,0-1.26.48,6.79,6.79,0,0,0-1.3,1c-.4.38-.62.61-.62.61a2.89,2.89,0,0,0-.7,1.72v32.37a1,1,0,0,1-1,1h-14.24a1,1,0,0,1-1-1V546.9a1,1,0,0,1,1-1H1250a1.22,1.22,0,0,1,1.16,1l.46,3.05c.09.55.42.64.74.21l.3-.39a21.54,21.54,0,0,1,2-2.16,7.61,7.61,0,0,1,1.54-1.14,11.25,11.25,0,0,1,1.85-.72,22.9,22.9,0,0,1,3.38-.63c1.52-.13,3.9-.17,3.9-.17Z"/><path class="cls-1" d="M1319,582.55c.48.27.74.78.58,1.12s-.47,1-.7,1.53c0,0-.68,1.44-1.35,2.77a17.14,17.14,0,0,1-2.9,4.08,15.15,15.15,0,0,1-4.75,3.24,17.72,17.72,0,0,1-7.24,1.31c-1.92,0-4.32-.05-7.13-.16s-5.66-.23-8.36-.38-5.21-.27-7.4-.37c-2.68-.13-3.29-.14-3.29-.14h-1.75c-.41,0-.75-.45-.75-1v-2.78a4.53,4.53,0,0,1,.5-1.87l19.55-33.76c.28-.47,0-.85-.5-.84,0,0-4.6.07-7.15.19l-6.33.33-1.93.1a.74.74,0,0,1-.77-.93l1.15-7.25c.08-.55.42-1,.75-1l1.6-.1s2.56-.14,5.25-.25,5.47-.18,8.54-.26,6.14-.13,9.33-.15,7.68,0,7.68,0h1.75c.42,0,.75.45.75,1v2.4a4.52,4.52,0,0,1-.49,1.87L1294,585.63c-.27.48-.14.89.29.9l2.65.09,1,0,2,.05,1.24,0a31.43,31.43,0,0,0,5.91-.46,14.28,14.28,0,0,0,3.59-1.16,7.48,7.48,0,0,0,2.11-1.54c.63-.67,1.19-1.34,1.19-1.34.36-.42.83-1,1-1.28a1.08,1.08,0,0,1,1.27,0Z"/><path class="cls-1" d="M1374.29,553.53a35.58,35.58,0,0,1-1.65,10.56,70,70,0,0,1-4.22,10.4c-1.7,3.41-3.61,6.83-5.67,10.19s-4,6.59-6,9.77c-2.13,3.3-3.88,6-5.27,8.22s-2.66,4.14-3.78,5.77-2.19,3.13-3.25,4.55-2.28,3-3.64,4.63a29.12,29.12,0,0,1-7.47,6.82,15.47,15.47,0,0,1-7.92,2.29,31.82,31.82,0,0,1-4.29-.32,24.33,24.33,0,0,1-2.81-.56l-1.47-.44c-.27-.1-.5-.63-.5-1.18v-5a1,1,0,0,1,1-1h.48a16.8,16.8,0,0,0,2-.14,17.76,17.76,0,0,0,4-1.1,21,21,0,0,0,5.64-3.68,48.79,48.79,0,0,0,3.62-3.51c1.39-1.46,2.85-3.09,4.35-4.82s3-3.55,4.37-5.39c1.24-1.61,2.86-3.89,2.86-3.89a2.18,2.18,0,0,0,.26-1.76s-3.13-9.14-4.81-13.62c-1.75-4.69-3.4-8.87-4.9-12.44s-2.83-6.48-4-8.75a18.13,18.13,0,0,0-2.57-4.13,3,3,0,0,0-1.34-.85l-.77-.19c-.29,0-1,0-1.47,0a1,1,0,0,1-.94-1v-5c0-.55.25-1.07.55-1.15l1.53-.38s.4-.09,1.36-.23,1.84-.24,2.82-.34,1.92-.2,2.84-.27,1.74-.12,2.39-.12a13.57,13.57,0,0,1,4,.56,8.55,8.55,0,0,1,2.59,1.5,13.23,13.23,0,0,1,1.37,1.43,27.7,27.7,0,0,1,2.54,4c1.08,2.11,2.2,4.66,3.35,7.59s2.32,6.19,3.51,9.77c.87,2.62,2.28,7.25,2.28,7.25.16.53.5.56.76.07,0,0,1-1.81,1.5-3.09a43.43,43.43,0,0,0,2.16-6.22,38.78,38.78,0,0,0,1.1-6.12c.19-2.07.29-4.29.29-6.6a18.78,18.78,0,0,0-.1-1.93c-.08-.71-.16-1.39-.26-2.05s-.2-1.22-.32-1.75l-.14-.62c-.07-.2-.28-.74-.47-1.21a.76.76,0,0,1,.65-1l11.39-2c.54-.09,1.08.1,1.19.43s.33,1,.48,1.55a22.81,22.81,0,0,1,.49,2.47A29.57,29.57,0,0,1,1374.29,553.53Z"/></g><path id="sygnet" class="cls-2" d="M1366.33,376.18c-1.62-3.87,5.59-6.75,3.25-9.19-1.27-1.33-2.43.32-3.21-1.54s2.65-5.27,1.27-7-4.56.11-5.68-1.6c-1.25-1.92.76-4.54,1.79-5.27,3.5-2.5,2.15-7.07-1.08-6.34-4,.92-4.77-3.95-1.5-4.83,4.29-1.15,3.73-7.06-.84-7.58-2.37-.27-.75-4.17-1.58-6.84-1-3.18-3.9-2.68-4.75-1.33-.1-1.66-.6-3.75-2.67-2.92s-2.41,5.09-1.83,10.92c-2.67-2.19-4.83-.45-5,1.69-.25,2.56,2.7,4.85,2.67,6.82-.05,2.12-3.92,1.18-5,2.86s-.24,4.13,2.94,5.19c3.8,1.27,4.07,3.75,2.5,5.57-1.17,1.35-2.72-.09-5.61,1.76-2.64,1.69-1.32,6-2.07,9.92-.59,3.09-3.94,5.63-8.82,3.75-5.84-2.25-4.56-8.5-1.16-10.14,6.71-3.26,5.85-10-.15-9.23,8.44-7.25,4.25-17.94-5.19-16.25,2.34-2.09,5-5,4.57-10.44-.2-2.37-1.88-5.06-5.73-5.92-2.13-.47-2-2.33-.5-5,1-1.8,2.33-3.75,2.17-7-.13-2.69-1.59-3.83-6.59-1.91-4.3,1.64-3.58-8.17-7.5-9.5-3-1-4.75,3.16-5.75,6.75-2.07,7.41.32,14.79.25,14.75-1.67-1-4.84-.3-6.3,1.92a5.59,5.59,0,0,0,2,7.47c-2.19-.5-6.28.39-6.82,3.19-.63,3.27,1.71,6.16,1.3,7.83-.59,2.38-3.5,1.33-3.58,4.47-.13,4.78,8.73,8.24,6.16,12.33s-17,1.48-18.79-6.05c-1.75-7.16,7.83-3.33,7.66-8.08-.12-3.55-5.66-1.75-6.52-3.74-2.14-4.93,7.36-5.51,2.27-13.34-2.28-3.52.59-8.09-2.33-8.42s-4,3.24-5.35,2.38c-1.65-1.09-.63-4.15.68-6.38,1.48-2.51,3.6-4.75,2.38-6.62-1.88-2.88-5,1.9-6.31,1.31-3-1.31,1.33-8.87,2.44-10.69,1.36-2.24,3.66-5.92,2.29-7.93-1.7-2.49-6.87-1.06-8-2.49-1.72-2.27,4.4-10.52,2.4-14.08-1.72-3.07-4.56-1-6.22-2s-1-8.43-5.41-8.24c-3.74.16-4.62,10.91-6.62,11.1s-3.62-4.07-6.75-2.38-.57,7.69-1,11.13c-1.18,9.68-5.73,6.71-8.25,12-1,2.06.73,4.93-.75,7s-6.12,1.18-7.75,4.25a6.63,6.63,0,0,0,2.63,8.12c3.51,2.39,4.54,5.51,4,7.57-1.2,4.18-9.76-.51-11.63,2.93-1.69,3.09,3.62,7.94,2.9,11.31-.41,1.88-4.72.65-4.85,3.69-.23,5.5,10.5,5.17,10.13,11.63-.2,3.37-4.15,5.34-10.38.87-4.41-3.17-6.5-9.1-13.75-15s-16.75-3.12-16.33-10.59c.33-5.95,7-6.62,10.34-7.63,3.74-1.15,3.66-5.25,5.16-6.3,1.83-1.29,5.94-.15,9.9-1.54,3.37-1.19,6.55-4.17,7.06-7.56,1-6.63-8-4.3-9.29-5.66-2-2-.71-5.59-2.65-7.91-2.46-2.93-7.24-2.15-7.85-7.25-.84-7,16.58-6.56,15.91-16.18-.49-7.11-10.75-2.63-10.75-2.63s.19-4.61-3-6.33-8.76-.57-10.13-5c-1.74-5.66,9.13-7.78,7.76-15-1.16-6.1-9.22-3.24-12.13-7.52s-.13-12.36-1.94-15.82-8.53-5.3-10.06-7.91c-3.41-5.82-1-10.57-6.87-15.13-2.75-2.12-2.37-8-8.25-7.87s-4.62,13.71-6,15.85-4.94,2.93-6.72,5.41-.32,7.56-1.85,9-3.56.41-5.92,2.18c-1.79,1.33-2.72,4.23-4,5.09-1.84,1.19-3.08,0-5.59,1.94-2,1.57-1.18,5-3,5.25-3.43.47-5.13,2.29-5.59,4.39-.91,4.15,5.36,7.12,4.27,10.21s-5.18,3.35-7,7.11c-2,4.09,1,8.24-1,10.83-2.26,3-10.15,3.52-12,10.23-1.28,4.68,1.55,10.52,8.22,14-7.67,1.83-5.67,12.33.67,14.5,9.37,3.2,17.74.4,19,6.66,1.5,7.5-9.34,7-18.72,2.05-10.35-5.47-17.47-8.93-26.37-11.63-4.52-1.37-6.75-1.5-12-1.25-4.53.22-7.84-.88-8-4.5-.12-3,3.23-5.69,7.63-6,3.94-.28,8.06-.73,8.38-3.37.49-4-4.88-4.5-4.63-8.25.27-4.12,4.69-2.7,6.75-6.5,1.25-2.32-1.69-3.88-1.45-6.07.19-1.81,5.59-3.26,6.68-8.31,1.21-5.62-3.87-6.12-4.16-8-.57-3.69,7.34-6.5,5.18-13.5-1.56-5.05-6.13-6.25-9.75-4,1.06-4.4,1.26-8.51-.26-11.74-3.13-6.69-10.37-4.76-13.12-9.88-3.7-6.91-2.26-16.95-5.75-21.75-3.62-5-12.75-4.38-12.75-4.38s-3.62-39.62-14.75-37.5c-6.07,1.16-5.39,9.78-5.59,12.08-1.28-2.83-4.58-5.83-8.59-4.17-6.57,2.72,2.81,12.34-3,15.78-3,1.78-9.75-.41-12.65,3.1-4.29,5.21.59,13.39.47,18.62-.14,5.59-10,6.09-11.14,14.22a9.45,9.45,0,0,0,5.41,9.36c-7,3.48-11.3,9.5-12.66,14.51-3.25,12,1.58,19,2.74,22.35,1.76,5-5.7,5.68-5,12.16.84,7.24,10.75,8,11.38,10.49,1.17,4.58-9.16,6.48-5.33,14.58,2.83,6,12.66,5.17,12.66,5.17a5,5,0,0,0,.88,6.6c3.75,3.28,15.9-2.38,16.46,2.73.54,4.92-5.77,6.29-11.39,7.44-5.84,1.2-24.32,3.48-30.78.33-5-2.45-3.57-7.78-5.67-10.85-4-5.87-9.5-4.37-10.75-9.37-1.16-4.59,5.75-7,6-9.92.36-3.57-2.34-2.11-2.6-4.4-.37-3.37,4.38-2.68,3.52-8.51-.07-.51-.5-2.72-3.28-1.83-7.11,2.27-11.19,1.32-12.32-.31-2-2.82,1.48-4.52,2.39-6.53,2-4.38-1.87-7.38-.29-10.88,2.44-5.37,4.29-9.66,1-12s-11.55,6.66-13.74,6.09c-.88-.23-1-.92-1-1.65,0-28.83-.36-95.53-.36-95.53s13.28-7.46,18.74-10.75c4.92-3,7.29-7.8,7.29-13.8,0-16.67.5-33.33.5-48.33,0-10.62-3.3-19.09-19-21.5-.21,0,.08-19.28.08-19.28-.23-1.77,0-6.21-3.66-6.24s-3.5,4.31-3.67,6c0,0-.24,12.13-.24,18.19-4.37-.6-7.67-1-12.18-1.32v-34c-.23-1.77,0-6.21-3.66-6.24s-3.5,4.31-3.67,6V39.65q-3-.21-5.92-.33V23.65c-.23-1.77,0-6.21-3.66-6.24s-3.5,4.31-3.67,6V39.16c-3.79,0-7.56.1-11.42.33V6.24c-.23-1.77,0-6.21-3.66-6.24s-3.5,4.31-3.67,6V40.06c-2.57.24-5.2.54-7.92.88V23.31c-.23-1.77,0-6.21-3.66-6.24s-3.5,4.31-3.67,6V42q-4.44.67-9.27,1.5c-16.14,2.76-16.24,8.24-16,19.27.31,15.81.39,37,.39,49.84,0,3.07.75,7.25,6.25,12.75,6,6,11.5,11.87,11.5,11.87l-.08,137.58s-2.38,3.37-8.5-.83c-8.5-5.83-12.92-6.08-21.08-1.42-1.92,1.1-5.14,1.1-6.84-.91-6.5-7.09,11.34-11.34,7.88-22.17-3.19-10-17.59,7.59-19.77-1.71-1.61-6.87,20.89-6.29,15.31-19.54-1.34-3.19-6.33-3.33-8-8.76-1.4-4.47,6.87-7.07,4.34-15-1.58-5-8.07-.52-11.75,1.28,1.56-4.24,5.87-10.25,3.69-15.7-.8-2-3.46-2.78-8.17-2.89-3.15-.08-12.24-.16-13-5.94-.92-7.46,9.34-8.34,7-15.45-1.76-5.43-7.33-2.14-8.8-4.5-1.39-2.21.85-7.77-2.54-9.78-2.36-1.39-4.52-.53-7.79-2.12s-5.2-6.42-9.57-6.29c-6.13.17-6.64,6.21-7.62,7.16-.2.19-5.17.26-7.27,3.59-1.64,2.59.41,5.61-.17,6.92-.69,1.58-10.06,2.76-11.72,6.82-1.85,4.51,7.81,10.64,4.6,17-4,7.9-18.54-4.17-22,7.09-2.6,8.41,13.38,13.27,10.44,16.87-2.81,3.44-9.5-1.5-12.75,2.75-4.05,5.29,1.12,11.5,1.12,11.5a8.34,8.34,0,0,0-5.39,4.89c-1.6,4.19,2,9-.23,13.94-3.44,7.61-11.17-.2-13.85,7.84-2.15,6.46,4.8,9.62,5.41,12.8.38,2-2,4-1.45,8.63.49,3.88,4.29,5.83,9.95,6.46,7.65.86,8.5,6.44,7.48,9.19-1.54,4.15-10.75,5.17-17.92,4.83-12.36-.57-14.38-2.38-26.08-4.66-16-3.12-28.5-2.34-43.67,5.66-12,6.34-19.33,7.84-24.83,5.5-5.1-2.16-6.74-9-3.23-14.77s5.86-8.39,10.9-15.23c6.35,1.3,17.08,3.59,23.66,3.92,8.6.44,16.75-3.33,20.67-7.5,3.27-3.48,4.25-9.83,5.17-11.17.78-1.13,2.74-3.8,9.58-5.41,4.58-1.09,6.08-6.25,6.17-8.5.22-5.92,2.3-5.25,6.83-5.25,4.75,0,7.5-1,8.46-2.92,2.06-4.12-2-5.9,3.75-8.06,2.5-.94,5.95-5,2.62-9.06-5.06-6.13-17.72-1.13-26.62,5.56-7.29,5.48-19-1-14.63-12,3.58-9.06,12.09-2.11,26.36-9.91,2.95-1.62,7.38-.76,11.39-3.09,2.37-1.38,5.62-3.66,4.82-8.36s-7-4.13-11.07-4.25c-9-.25-10.93-6.33-9.66-15.5,1-7.11,4.66-18.66-2.67-23.16s-17.69.15-23.25-5c-4.33-4-1.35-14-5.82-19.28s-14.35.09-16.22-8.78,3.71-12,6.73-19.27c3.39-8.23.89-17.86-5.44-22.19-4.28-2.93-11-4-13.17-8.5-3.91-8.12,4.57-9.66,4.58-13.67,0-5.42-6-3.83-6.49-7-.36-2.29,3.33-8.5-.24-11.41-1.47-1.2-4-1.42-6.85,1.83-.73-1.13-1.78-2.52-2.41-3.48-2.16-3.29-4.09-5.13-6.1-5.17-4.4-.1-14.24,13.81-15.37,23.59-3.12-1.86-6.2-2.61-8.5-1.52-3.12,1.49-5.53,10.16-7.74,12.45s-6.45,5.78-7.59,12.72c-1,5.82,5,7.7,2.94,11.1-3.31,5.39-14.14-1.11-20.12,3.46-3.57,2.73-1.67,8.25-3.69,9.66-3.5,2.44-8.25,1-11,4.68-2.27,3.09-2.31,10.1-3.64,14.35-1.63,5.24-5.57,6.88-6.4,9.57-2.73,8.84,5.1,22.45-.7,33.59-4,7.75-14.9,6-18,8.75-2.5,2.16-2.36,6.91-3.88,8.45-.75.77-10.61.92-11.29,8.21-1.16,12.5,18,6.33,18.21,21,.29,19.47-11.21,14.13-11.37,20.31-.09,3.25,4,2.52,8.35,6.42,1.54,1.38,4.54,3.54,6.48,3.74,4,.41,4.92-3.1,8.07-2.53s7.84,3,7.93,7.53c.17,8.34-10.17,3.84-16.39,8.78-4.69,3.71-9.6,12.39-3.11,19.56,6.33,7,15.5-.84,19.12,3.59,5.54,6.78,7.88,11.74,17.71,12.25S592,272.06,592,272.06s7.66,5.95,10.56,9.54c1.67,14.5.42,40.41-10.75,56.64-3.55,5.16-7.89,6.15-12,1.44-4.26-4.89-10.53-12.62-14.5-17.75-4.36-5.63-6.3-8-14.33-8.5-10.44-.67-55.85-4.35-68.58-5.83-3.22-.37-7.83-2.84-7.59-8.17.34-7.33,6.34-9.17,12.42-9.42,4.64-.19,26.07,6.88,27.42-3.83,1.16-9.25-8.9-5.52-10.58-15.93-1.42-8.82,15.85-10.24,12.54-23.1-4.3-16.72-11.3.45-16.38-3.8-3-2.53,2.15-8.16-1.08-13-6.84-10.38,1-12.5-2.1-17.79-2.63-4.43-5.83-.93-8.61-5.45-2.25-3.64,5.72-7.36,6.12-13.89.25-4-1.87-5.25-2.14-9-.2-2.74.89-5.58-.44-8.5s-4.17-3.92-4.93-9.39c-.91-6.52,8.1-12.36-.24-20.52-6.16-6-13.33,2.83-18.71-1.32-5.95-4.59-1.29-24.52-6.24-33.52-2.18-4-4.88-2.5-7.44-6.05-2.78-3.84-5.88-11.11-6.78-12.69-1.05-1.86-4.91-8.68-8.48-8.82-5.93-.24-5,9.39-9.17,10.48-8.22,2.14-7.09,10.71-1.76,15,0,1,.08,2.46.08,3.58-2.81-1-11.53-1.81-14,1.68-2.26,3.2.24,8-1.83,10.16-2.23,2.38-5.85,2.15-6.55,7.34-1.29,9.57,7,10.74,4.35,14.07-2.3,2.94-8,2.42-9.25,6.63-1.41,4.68,3.12,7.17,2.37,8.64-1.26,2.48-5.27-2-7.48,3.46-3.53,8.69,6.79,14.15,4.47,26.7-2.25,12.15-15.86,13.51-17.88,19.3-1.87,5.35,3.8,12.65,2.84,17.51-1.3,6.59-6.47,6.91-6.14,13.92.43,8.84,13.34,8.76,13,14-.34,4.76-4.59,3.29-5.91,3.39-3.15.23-6.32,4.1-4,9.5,2.25,5.17,7.88,7.67,22.25,7.17,6.35-.22,11.92,4.67,16.75,9.67,14.75,15.25,52.25,53,52.25,53l-.66,202.33-10.09.54-.16-197S435,315.76,412.83,293.6c-3.66-3.67-7-5.84-14.33-6.84-15.83-2.16-26.33-3.33-46-5.66-1.19-.14-6-.66-6.17-5-.16-4,4.93-7.51,7.42-9.13,4.5-2.92,7.83-4.67,8.25-9.25a8.18,8.18,0,0,0-3.33-7.17,9.5,9.5,0,0,0,1.16-6.08c-1.08-6.17-6.09-7.15-8.41-8.5-6.59-3.83-7.09-13.58-3-17.75,2.54-2.57,4.8-6.14,5.79-12.5,2.75-17.58-8.78-15.5-8.78-22.11,0-4.64,6.86-5.14,7.11-13.89.21-7.63-11.25-9.25-12.58-14.51-.72-2.82,8.33-23.74.17-30.49-7-5.75-11.75,5.25-16.84.92-5.71-4.88,4.86-14.91,4.5-23.2-.62-14.22-14.18-10.16-16.66-16.14-2-4.83,2.08-9.33,2-15.72,0-2.84-3.07-5.9-6.37-9.44-2.31-2.49-5-6.15-8.17-6.3-2.33-.12-4.75,3.81-6.41,5.38-2.76,2.61-5.23,1.9-6.75,3.67-2,2.37-.83,4.75-2.42,7.33-1.44,2.36-6.16,5-6.09,10,.12,7.33,6.93,9.16,5.86,19.4-1,9.4-9.2,11.56-9.63,17.63-.55,7.88,7.53,16.21,3.2,26-3,6.89-12.34,2.67-14.69,7-2.58,4.72,2.85,9.7,2.6,12.2-.29,2.9-3.83-.83-3.83,3.25,0,4.92,5.67,5.83,5.3,9-.75,6.47-15,.84-16.69,6.82-4.44,15.26,10.39,19.26,10.71,26.67.27,6.09-7,10.26-7.39,14.67-.5,5.53,2.24,9.09,7.57,14.76-1.71.83-3,1.58-3,3,.05,3.14,1.4,3.61.4,6-.69,1.62-3.74,1.37-4.46,4.39-1,4.36,1.1,8.45,14.21,11.52,14.3,3.35,24.79,4.48,24.5,7.5-.23,2.41-6.18,1.8-9.59,1.45-12.36-1.25-31.91-3.45-44.58-4.78-20-2.1-22.42-2.67-24.92.17-2.18,2.47-.75,7.08,1.25,15.91,4.76,21,5.78,23.92,11.34,50.67L224.08,548.8l-57.75-16.5.09-196.54s19.79-41.19,31.74-67.25c.73-1.59,4.05-10,7.67-11.58,4.63-2,22.41.37,31.17-4.5,4.2-2.34,9-6.37,6.63-12.2-2.77-6.93-13.3-3.09-12.67-4.17,1.61-2.8,2.92-5.5,2-9.76-1-4.62-4-5.62-4.1-8.35-.12-3.64,5.07-12.21,3.62-19.55-1.71-8.67-9-9.37-9.87-14.72-.62-3.75,2.23-5.85.68-9.11s-8.55-3.26-9-7.64c-.5-4.79,3.64-5.69,3.32-7.92-.39-2.81-4.41-1.41-5.25-4.58-1.19-4.52-1.62-11.87-5.48-11.81-4.52.08-3.77,4.56-5.85,7.81-1.67,2.61-4.74.93-6.85,5.06-2.48,4.86,4,12.92,2.88,15.4-1.2,2.71-6.45-1.79-8.28,1.71-1.64,3.13,7.83,7.58,6.18,10.8-1.08,2.11-7.11.88-10.29,4.62-2.47,2.91-2.31,10.16,1.94,15.29-5.75-3.38-9.81.06-11,2.37-.88,1.72.06,5.82-1.75,7.91-1.45,1.67-5.11,2.44-6.39,5.78-1.36,3.56-1.17,9.89.82,14.64,1.91,4.59,1.91,8.67-.45,13.12-2,3.69-6.06,1.86-6.39,6s9.58,4,8.39,7.89c-.38,1.23-2.6,2-2,5.66.35,2.23,2.78,4.3,6.56,5.56-.75,6.42-11.87.42-13.83,5.67-1.16,3.11,2.51,5.65,5.08,6.63,5.63,2.12,5.46,7.73,0,7.45-6-.3-4.81,5.88-4.25,10.25.71,5.6-.75,11.17-5,14.92A12.4,12.4,0,0,1,148,320c-4.92-.2-10.79-3.05-8.54-7.42,1.87-3.66,5-1.54,7.25-1.41s4.37-.53,5.12-2.62c1-2.88-1.37-3.25-1-5.13.34-1.7,4.21-1.79,3.94-5.41s-4.27-2.34-5.41-4.21c-1.45-2.35.56-7.55-.56-10.21-1.44-3.42-5.22-3.84-5.22-6.29,0-2.27,2.12-3.17,1.5-6.94-.81-5-5.12-5.63-7-8.61-2.36-3.75-1.56-9.39-6.75-9.7-7-.43-9.35,11.76-14.25,14-4.37,2-8.12-1.75-10.71,2.25-2.48,3.84,8,8.78,7,13.57-.8,3.93-4.71,1.22-7.17,4.05-1.88,2.16.45,4.71-.89,6.37-1.11,1.38-5-.83-7.25,2.63-2.64,4,2.43,13.33-1.51,18.78-1.5,2.08-6.58,1.64-7.26,5.77-1,5.83,5.59,9,5.45,11.28-.17,2.67-2.92,2.09-2.94,4.61,0,3.49,11.52,1.31,11.86,5.64.2,2.67-2.75,3.67-11.67,3.92-2.19.06-3.86,1.95-5.39,3.86-1.07,1.35-3.78,4.45-6,2.72-3.36-2.58,4.13-8.33,2.67-11.25-2.5-5-10.58,7-13.55,2.84-4.42-6.15,10.88-9.67,8.63-17.54-1.18-4.15-9.25-2.92-9.71-5.75-.77-4.61,6.84-8.25,5.55-12.55-1.37-4.61-9.25-3-9.26-8.74,0-6,4.42-6.87,3.87-10.3-.7-4.29-5.2-2.66-6.82-5.29-1.86-3-2.25-6.5-4.46-7-1.73-.42-4.62,2-5.92,3.71-1.1,1.43-1.84,3.46-2.92,4.33-1.45,1.17-5.49.54-6.08,2.95-.64,2.59,6.17,6.3,5.17,9.47-.76,2.41-1.83,1.41-2.92,3.25s.46,5.29-.33,6.25-5.41-.85-6.33,1.25c-2.5,5.71,9,6.41,6.91,11.58-1.3,3.23-11,1.17-12.75,4.58-1.58,3.1,7.42,9.42,6.09,11.59-1.49,2.42-7.67.75-8.36,2.63-.91,2.48,5.89,7.37,2.19,9.45-1.33.75-16.73-.55-27.79,2-3.25.75-4.86,2.08-4.38,4.42,1.25,6.08,80.25,18.08,157.25,49.11-.5,53.47-.13,105.47,0,130,0,5.38,1.38,6.87,7.1,8.62,10.5,3.2,47.47,16.6,63.78,20.38,153.12,35.5,296.32,18.75,342.22,9.48,67-13.54,167.29-46.79,164-102.44-2.44-41.37-62-53.7-59.68-76.45,1.24-12.09,21.11-21.12,29.81-24.2,14.51-5.14,37.25-7.7,56.76-7.89,25.5-.25,48.42,4.67,48,7.5-.29,2-14-1.75-42.25,1.75-16.42,2-26,7.81-25.11,13.76,2.86,19.24,53.61,16,108.61,38,13.93,5.57,26.92,13.86,35.18,27.24,3.47,5.61,9.78,4.91,15.57,1.51,40.5-23.75,100.6-47.58,223.54-58.39,95-8.36,185.83-7,228-7,12.75,0,22.13.3,22.34-1.91C1375.48,379.07,1367,377.66,1366.33,376.18ZM276.9,551.18c-4.06-.24-5.62-.48-5.57-6.31.17-17.86,1.29-41.12,1.29-65.37,0-5.34.33-7.54,5.49-7.43l38.47.69c5.16-.11,5.42,4.08,5.42,9.42,0,24.25.35,52.8,0,61.87-.17,3.84-1.19,4.93-5.25,5.17ZM370.45,422c-6.5-1.05-7.62-2.38-7.62-7.37V376.66c0-5.34,2.51-8.17,7.67-8.06l76.33,7.91c6.09.67,7,2.5,7,8.15,0,11.84,0,24.6,0,36.94,0,4.24-1.86,6.07-7.49,5.58Zm-3.12,124.78c-3.5.17-4.79-.46-4.79-4.83,0-23.81.11-70.63.11-94.88,0-5,.1-6.64,4.68-6.27l16.52.57c4.36.33,4.53.81,4.48,5.13-.26,24.25,0,70,0,93.82,0,4.57-1.81,5.07-4.56,5.25C379.19,545.87,371.77,546.55,367.33,546.76Zm43.95-2.5c-3.91-.25-5.31-1.44-5.31-7.62,0-25.2.1-60.54.1-86.21,0-5.65.33-8,5.3-7.86l37.08,1.33c5-.11,5.3,2.22,5.3,7.86,0,25.67-.1,57.61-.1,82.81,0,6.17-1.4,7.36-5.32,7.62ZM353.67,369.1v112c-3.41-5.79-11.05-3.34-11.17,5.33-.17,12,.33,22.41.33,30.25,0,10.87,11.34,10.25,11.34,10.25v8.33c-10.21.29-11.71,5.92-11.42,12.42-5.77.12-11.77,1.38-11.81-11.6-.06-22.83,0-47.32,0-61.82,0-7.66-1.61-10.37-5.94-10.75-14.16-1.22-75-2.23-77.29-2,.23,5.17,11,6.79,15.12,7.63l-.16,13.33c-1.9-3.64-4.46-5.52-8.59-4.79-5,.88-6.25,4.58-6.25,9.71,0,12.18,0,22.58.13,29.95.12,9.88,9.54,13.21,14.71,13.21l-.21,11.92s-6.13-1.92-11,1.75c-3.85,2.92-3.42,8.42-3.42,8.42s-3.5.25-8.08.33c-3.41.06-6.5-3.33-6.5-8.33V441.18s68.83,2.75,88.61,3.5c11.73.44,16.71.73,22.22-25.75,1.25-6-1.43-11.69-5.93-13.69-5.12-2.27-7.46-3.87-7.46-10.31v-39s-18.86-2-24.23-2.22c-2.63-.12-3.5,1.88-3.5,4.13,0,4-.08,27.81,2,27.85s2.61-17.09,2.84-20.17c.21-2.74.45-3.67,3.2-3.38,3.3.35,6,.6,9.72,1,2.48.24,2.8,1.17,2.8,3.61v30.25c-7.44-1.69-11.22-.16-16.3,5-3.18,3.23-6.5.88-6.42-1.93.13-3.95-3.75-5.52-6.25-3.08-3.34,3.26-4.75.19-7.25-.83-1.83-.75-4.5.16-5.5,3.25-1.26,3.86-5.54,2.07-5.54,2.07,0-11.33,0-50.84,0-50.84s-20.43-2.11-27.37-2.48c-1.26-.07-2.5.33-2.59,2.08-.27,5.83-.5,26.25,1.17,26.25,1.84,0,2.67-14.25,3.08-17.5.29-2.26.83-2.77,3.59-2.5s10.73,1,12.73,1.26c2.16.25,2.27,1.18,2.27,3.32v35.33c0,7-6.21,1.09-11,4.22-3.36,2.21-3.56,5.09-3.5,8.56-4.79-.61-10.19-.46-11.13,5.31-.75,4.63,4.5,6.75,2.38,11.38-1.54,3.35-5.21,3.87-7.38,3.62-3.58-.42-6.43-3.5-6.43-8.08,0-23.42-.07-85.88-.07-85.88l221.5,21.46v11c-6.78-.6-68.66-7-88.16-8.46C357.79,358.82,353.67,363.6,353.67,369.1ZM601,514.71c0,7.17,0,8.21-5,8.72a71.51,71.51,0,0,1-9.24.47c-4.56-.38-4.56-2.76-4.56-10,0-17.66,0-89.14-.16-105.44-.08-9-3.38-13.95-12.29-14.61-19.61-1.46-75.38-6-82.19-6.77-3.62-.4-5-1.69-5-5.19s1.16-4.21,5.24-3.92c4.71.34,39.29,3.37,86.38,7.71,5.9.54,7.64-3,7.82-8.95,0-.1,0-3.66.17-6.66.14-2.13,0-4.64,4.33-4.55,4.66.09,5.73.16,10.52.42,4.53.24,4,3.32,4,4.93C601.21,385.19,601,509.84,601,514.71ZM882.83,298.4V140.68c0-8.75,8.3-7.92,8.3,0V298.46C891.13,305.93,882.83,306.1,882.83,298.4Zm28.34-6.3c-6,1-11.39-5.58-11.39-12.17V267.72c5.66,2.81,7.78,3.83,13.22,7C920.33,279.1,920.61,290.52,911.17,292.1Zm9-54.29c-2.65-.2-10.41-1.93-11.88,2.62-1.12,3.5,3.34,6.52,5.84,8.67,4.83,4.16,1.66,12-4.5,11.66s-9.89-4.95-9.89-13.2c0-11.75-.2-142.25-.2-145.13,0-2.19-.62-3.29-3.29-3-6,.75-21.46,2.71-27.33,4-3.2.68-5.06-.5-5.13-3.87-.25-12.75-.39-25-.15-37.62.11-5.16,2.34-8.19,7.72-9.13,28.56-5,54.31-5.5,84.29.3,11.07,2.14,10.48,6.89,10.75,16.18.2,6.87.21,18,0,26.48-.18,6.17-3.21,9-10.14,7.68-13-2.57-28.39-4.52-40.52-4.52-3.42,0-4.42,1.92-3.25,4.67,4,9.45,7.65,14.35,7.65,28.6C920.15,161.52,920.38,235.92,920.21,237.81Zm18.39-32.55c0,6.78-9.25,7.5-9.25-1.5v-63c0-8,9.23-8.66,9.23,0C938.58,162,938.6,203.49,938.6,205.26ZM488.08,528.43c-4.06-.23-5.51-1.34-5.51-7.08,0-23.42.1-39.65.1-63.5,0-4,.68-7.44,5.91-7.25,6.84.25,28.67,1,28.67,1,5.16-.1,5.5,2.06,5.5,7.31,0,23.85.16,38.15.16,61.57,0,5.74-1.46,6.85-5.52,7.08Zm50.11-2.25c-4.06-.24-5.89-1.26-5.89-7.09V460.45c0-4.94.7-7.6,5-7.31l30.18,1.36c5.16-.11,5.27,2.09,5.27,7.43v55.63c0,5.84-2.12,7-6.18,7.25Zm36.19-93.48c0,5.75-1.6,7.85-8.58,7.23-15.62-1.4-71.22-4.76-76.13-5.2-5.36-.48-6.84-2-7.1-9.28V403c-.11-5.16,2.11-6.89,7.42-6.42,7.09.62,63.28,5.06,75.81,6.14,5.81.51,8.66,1.37,8.58,6.74ZM883.9,77.24c-2.29.37-8.46,1.27-10.63,1.57-1.81.25-2.5-1-2.5-2.38,0-2.52.06-9.83.06-11-.16-2.08.31-2.72,2-3.12a66.84,66.84,0,0,1,10-1.63A2.48,2.48,0,0,1,885.77,63c0,2.13.17,8.9.17,11.63C885.94,76.57,885.46,77,883.9,77.24Zm37.86-6.06c0,3-.93,4-4.68,3.91h-7.73c-3.62.21-5.17-.7-5.17-4.33v-7.3c0-3.74.59-4.78,5.17-4.94l7.73-.09c4,0,4.68.78,4.68,5ZM941.38,74c0-7.25,0-3.92,0-10.1,0-1.64.41-3.42,3.07-3,3.32.5,6.89,1.25,9.33,1.67,2.05.36,2.32,1.38,2.32,4.42V77.14c-.09,1.62-.74,2.34-3,1.93-2.42-.44-5.5-1-8.69-1.52C941.88,77.16,941.38,75.81,941.38,74Z"/></g></g></svg>