<svg xmlns="http://www.w3.org/2000/svg" viewBox="0 0 283.55 363.84"><defs><style>.cls-1,.cls-2,.cls-3{fill:none;}.cls-1,.cls-2,.cls-4{stroke:#585553;}.cls-1,.cls-2,.cls-3,.cls-4,.cls-7{stroke-linecap:round;stroke-linejoin:round;}.cls-2{stroke-dasharray:5 2;}.cls-3,.cls-7{stroke:#bdbaba;}.cls-4{fill:#585553;}.cls-5{fill:#6d9452;}.cls-6{font-size:8.9px;fill:#fff;font-family:FuturaEFCEOP-Heavy;font-weight:800;}.cls-7{fill:#bdbaba;}</style></defs><title>Zasób 4</title><g id="Warstwa_2" data-name="Warstwa 2"><g id="Warstwa_1-2" data-name="Warstwa 1"><g id="linie"><rect class="cls-1" x="23.99" y="0.5" width="111.11" height="22.7"/><path class="cls-1" d="M268.18,126.9a3,3,0,1,0-3,3,3,3,0,0,0,3-3"/><path class="cls-1" d="M268.18,133.31a3,3,0,1,0-3,3,3,3,0,0,0,3-3"/><path class="cls-1" d="M268.18,139.72a3,3,0,1,0-3,3,3,3,0,0,0,3-3"/><polyline class="cls-1" points="257.39 315.9 255.8 315.9 255.8 313.36 257.71 313.36 257.71 315.9"/><line class="cls-1" x1="256.12" y1="313.36" x2="182.47" y2="313.36"/><polyline class="cls-1" points="256.12 315.9 182.58 315.9 180.25 315.9 180.25 313.36 182.78 313.36 182.78 315.9"/><polyline class="cls-1" points="179.93 315.9 178.34 315.9 178.34 313.36 180.25 313.36 180.25 315.9"/><polyline class="cls-1" points="259.3 315.9 257.71 315.9 257.71 313.36 259.61 313.36 259.61 315.9"/><polyline class="cls-1" points="111.36 316.69 144.98 316.69 144.98 313.52 111.36 313.52 111.36 316.38"/><line class="cls-1" x1="43.2" y1="280.6" x2="43.2" y2="278.06"/><line class="cls-1" x1="43.2" y1="276.79" x2="43.2" y2="274.88"/><line class="cls-1" x1="43.2" y1="273.61" x2="43.2" y2="271.71"/><line class="cls-1" x1="43.2" y1="270.44" x2="43.2" y2="267.9"/><line class="cls-1" x1="44.49" y1="280.6" x2="44.49" y2="278.69"/><line class="cls-1" x1="44.49" y1="277.42" x2="44.49" y2="275.52"/><line class="cls-1" x1="44.49" y1="274.25" x2="44.49" y2="272.34"/><line class="cls-1" x1="44.49" y1="271.07" x2="44.49" y2="269.17"/><line class="cls-1" x1="44.49" y1="267.9" x2="44.49" y2="266"/><line class="cls-1" x1="46.43" y1="280.6" x2="46.43" y2="278.06"/><line class="cls-1" x1="46.43" y1="277.42" x2="46.43" y2="274.88"/><line class="cls-1" x1="46.43" y1="273.61" x2="46.43" y2="271.71"/><line class="cls-1" x1="46.43" y1="270.44" x2="46.43" y2="268.54"/><line class="cls-1" x1="46.43" y1="267.27" x2="46.43" y2="265.36"/><line class="cls-1" x1="46.43" y1="264.09" x2="46.43" y2="262.19"/><line class="cls-1" x1="46.43" y1="260.92" x2="46.43" y2="259.01"/><line class="cls-1" x1="46.43" y1="257.74" x2="46.43" y2="255.84"/><line class="cls-1" x1="29.98" y1="280.28" x2="31.92" y2="280.28"/><line class="cls-1" x1="33.21" y1="280.28" x2="35.14" y2="280.28"/><line class="cls-1" x1="36.43" y1="280.28" x2="38.37" y2="280.28"/><line class="cls-1" x1="39.66" y1="280.28" x2="41.59" y2="280.28"/><line class="cls-1" x1="42.88" y1="280.28" x2="44.81" y2="280.28"/><line class="cls-1" x1="46.1" y1="280.28" x2="48.04" y2="280.28"/><line class="cls-1" x1="49.33" y1="280.28" x2="51.26" y2="280.28"/><line class="cls-1" x1="52.55" y1="280.28" x2="54.49" y2="280.28"/><line class="cls-1" x1="55.78" y1="280.28" x2="57.71" y2="280.28"/><line class="cls-1" x1="59" y1="280.28" x2="60.94" y2="280.28"/><line class="cls-1" x1="62.23" y1="280.28" x2="64.16" y2="280.28"/><line class="cls-1" x1="65.45" y1="280.28" x2="67.38" y2="280.28"/><line class="cls-1" x1="68.67" y1="280.28" x2="70.61" y2="280.28"/><line class="cls-1" x1="71.9" y1="280.28" x2="74.48" y2="280.28"/><line class="cls-1" x1="75.12" y1="280.28" x2="77.06" y2="280.28"/><line class="cls-1" x1="39.66" y1="270.76" x2="40.95" y2="270.76"/><line class="cls-1" x1="41.59" y1="270.76" x2="42.88" y2="270.76"/><line class="cls-1" x1="44.81" y1="270.76" x2="47.39" y2="270.76"/><line class="cls-1" x1="48.68" y1="270.76" x2="50.62" y2="270.76"/><line class="cls-1" x1="51.91" y1="270.76" x2="53.84" y2="270.76"/><line class="cls-1" x1="55.13" y1="270.76" x2="57.07" y2="270.76"/><line class="cls-1" x1="58.36" y1="270.76" x2="60.29" y2="270.76"/><line class="cls-1" x1="61.58" y1="270.76" x2="63.51" y2="270.76"/><line class="cls-1" x1="64.8" y1="270.76" x2="66.74" y2="270.76"/><line class="cls-1" x1="68.03" y1="270.76" x2="69.96" y2="270.76"/><line class="cls-1" x1="71.25" y1="270.76" x2="73.19" y2="270.76"/><line class="cls-1" x1="74.48" y1="270.76" x2="77.06" y2="270.76"/><line class="cls-1" x1="44.81" y1="261.87" x2="47.39" y2="261.87"/><line class="cls-1" x1="48.68" y1="261.87" x2="50.62" y2="261.87"/><line class="cls-1" x1="51.91" y1="261.87" x2="53.84" y2="261.87"/><line class="cls-1" x1="55.13" y1="261.87" x2="57.07" y2="261.87"/><line class="cls-1" x1="58.36" y1="261.87" x2="60.29" y2="261.87"/><line class="cls-1" x1="61.58" y1="261.87" x2="63.51" y2="261.87"/><line class="cls-1" x1="64.8" y1="261.87" x2="66.74" y2="261.87"/><line class="cls-1" x1="68.03" y1="261.87" x2="69.96" y2="261.87"/><line class="cls-1" x1="71.25" y1="261.87" x2="73.19" y2="261.87"/><line class="cls-1" x1="74.48" y1="261.87" x2="77.06" y2="261.87"/><line class="cls-1" x1="44.49" y1="280.6" x2="44.49" y2="282.5"/><line class="cls-1" x1="44.49" y1="283.14" x2="44.49" y2="285.68"/><line class="cls-1" x1="44.49" y1="286.31" x2="44.49" y2="288.85"/><line class="cls-1" x1="44.49" y1="289.49" x2="44.49" y2="292.03"/><line class="cls-1" x1="44.49" y1="293.3" x2="44.49" y2="295.2"/><line class="cls-1" x1="44.49" y1="296.47" x2="44.49" y2="298.38"/><line class="cls-1" x1="44.49" y1="299.65" x2="44.49" y2="301.55"/><line class="cls-1" x1="44.49" y1="302.82" x2="44.49" y2="304.73"/><line class="cls-1" x1="44.49" y1="306" x2="44.49" y2="307.9"/><line class="cls-1" x1="44.49" y1="309.17" x2="44.49" y2="311.08"/><line class="cls-1" x1="44.35" y1="280.46" x2="42.61" y2="281.24"/><line class="cls-1" x1="41.67" y1="281.74" x2="39.72" y2="282.67"/><line class="cls-1" x1="38.7" y1="283.09" x2="36.75" y2="284.02"/><line class="cls-1" x1="35.81" y1="284.45" x2="33.79" y2="285.37"/><line class="cls-1" x1="32.85" y1="285.87" x2="30.9" y2="286.72"/><line class="cls-1" x1="29.88" y1="287.22" x2="27.93" y2="288.15"/><line class="cls-1" x1="26.99" y1="288.58" x2="24.96" y2="289.5"/><line class="cls-1" x1="24.03" y1="289.93" x2="22.07" y2="290.85"/><line class="cls-1" x1="21.06" y1="291.35" x2="19.11" y2="292.28"/><line class="cls-1" x1="18.17" y1="292.71" x2="16.43" y2="293.49"/><line class="cls-1" x1="44.35" y1="280.46" x2="43.55" y2="281.67"/><line class="cls-1" x1="42.97" y1="282.59" x2="41.81" y2="284.37"/><line class="cls-1" x1="41.24" y1="285.3" x2="40.08" y2="287.08"/><line class="cls-1" x1="39.5" y1="288.01" x2="38.27" y2="289.79"/><line class="cls-1" x1="37.69" y1="290.71" x2="36.54" y2="292.49"/><line class="cls-1" x1="35.96" y1="293.35" x2="34.8" y2="295.2"/><line class="cls-1" x1="34.22" y1="296.05" x2="33.06" y2="297.91"/><line class="cls-1" x1="32.49" y1="298.76" x2="31.26" y2="300.61"/><line class="cls-1" x1="30.68" y1="301.47" x2="29.52" y2="303.24"/><line class="cls-1" x1="28.94" y1="304.17" x2="27.78" y2="305.95"/><line class="cls-1" x1="27.21" y1="306.87" x2="26.05" y2="308.66"/><line class="cls-1" x1="25.47" y1="309.58" x2="24.68" y2="310.79"/><line class="cls-1" x1="44.35" y1="280.46" x2="45.36" y2="280.96"/><line class="cls-1" x1="46.37" y1="281.46" x2="48.32" y2="282.31"/><line class="cls-1" x1="49.26" y1="282.81" x2="51.22" y2="283.73"/><line class="cls-1" x1="52.23" y1="284.16" x2="54.18" y2="285.09"/><line class="cls-1" x1="55.2" y1="285.51" x2="57.15" y2="286.44"/><line class="cls-1" x1="58.09" y1="286.94" x2="60.04" y2="287.86"/><line class="cls-1" x1="61.05" y1="288.29" x2="63.01" y2="289.22"/><line class="cls-1" x1="64.02" y1="289.64" x2="65.97" y2="290.57"/><line class="cls-1" x1="66.91" y1="291" x2="68.86" y2="291.92"/><line class="cls-1" x1="69.88" y1="292.42" x2="71.83" y2="293.35"/><line class="cls-1" x1="72.84" y1="293.77" x2="74.79" y2="294.7"/><line class="cls-1" x1="75.73" y1="295.13" x2="76.82" y2="295.63"/><line class="cls-1" x1="44.35" y1="280.46" x2="45.36" y2="282.38"/><line class="cls-1" x1="45.87" y1="283.38" x2="46.88" y2="285.23"/><line class="cls-1" x1="47.38" y1="286.16" x2="48.4" y2="288.08"/><line class="cls-1" x1="48.9" y1="289" x2="49.92" y2="290.92"/><line class="cls-1" x1="50.42" y1="291.85" x2="51.43" y2="293.77"/><line class="cls-1" x1="51.94" y1="294.7" x2="52.95" y2="296.55"/><line class="cls-1" x1="53.46" y1="297.55" x2="54.47" y2="299.4"/><line class="cls-1" x1="54.98" y1="300.33" x2="55.99" y2="302.25"/><line class="cls-1" x1="56.5" y1="303.17" x2="57.51" y2="305.1"/><line class="cls-1" x1="58.01" y1="306.02" x2="59.03" y2="307.94"/><line class="cls-1" x1="59.53" y1="308.87" x2="60.55" y2="310.79"/><line class="cls-1" x1="77.38" y1="258.38" x2="77.38" y2="260.28"/><line class="cls-1" x1="77.38" y1="261.55" x2="77.38" y2="263.46"/><line class="cls-1" x1="77.38" y1="264.73" x2="77.38" y2="266.63"/><line class="cls-1" x1="77.38" y1="267.9" x2="77.38" y2="269.81"/><line class="cls-1" x1="77.38" y1="271.07" x2="77.38" y2="272.98"/><line class="cls-1" x1="77.38" y1="274.25" x2="77.38" y2="276.15"/><line class="cls-1" x1="77.38" y1="277.42" x2="77.38" y2="279.33"/><line class="cls-1" x1="77.38" y1="280.6" x2="77.38" y2="282.5"/><line class="cls-1" x1="77.38" y1="283.77" x2="77.38" y2="285.68"/><line class="cls-1" x1="77.38" y1="286.95" x2="77.38" y2="288.85"/><line class="cls-1" x1="77.38" y1="290.12" x2="77.38" y2="292.03"/><line class="cls-1" x1="77.38" y1="293.3" x2="77.38" y2="295.2"/><line class="cls-1" x1="77.38" y1="296.47" x2="77.38" y2="298.38"/><line class="cls-1" x1="77.38" y1="299.65" x2="77.38" y2="302.19"/><line class="cls-1" x1="77.38" y1="302.82" x2="77.38" y2="305.36"/><line class="cls-1" x1="77.38" y1="306" x2="77.38" y2="308.54"/><line class="cls-1" x1="77.38" y1="309.17" x2="77.38" y2="311.08"/><line class="cls-1" x1="77.38" y1="294.57" x2="77.38" y2="293.3"/><line class="cls-1" x1="78.67" y1="258.38" x2="78.67" y2="260.28"/><line class="cls-1" x1="78.67" y1="261.55" x2="78.67" y2="263.46"/><line class="cls-1" x1="78.67" y1="264.73" x2="78.67" y2="266.63"/><line class="cls-1" x1="78.67" y1="267.9" x2="78.67" y2="269.81"/><line class="cls-1" x1="78.67" y1="271.07" x2="78.67" y2="272.98"/><line class="cls-1" x1="78.67" y1="274.25" x2="78.67" y2="276.15"/><line class="cls-1" x1="78.67" y1="277.42" x2="78.67" y2="279.33"/><line class="cls-1" x1="78.67" y1="280.6" x2="78.67" y2="282.5"/><line class="cls-1" x1="78.67" y1="283.77" x2="78.67" y2="285.68"/><line class="cls-1" x1="78.67" y1="286.95" x2="78.67" y2="288.85"/><line class="cls-1" x1="78.67" y1="290.12" x2="78.67" y2="292.03"/><line class="cls-1" x1="78.67" y1="293.3" x2="78.67" y2="295.2"/><line class="cls-1" x1="78.67" y1="296.47" x2="78.67" y2="298.38"/><line class="cls-1" x1="78.67" y1="299.65" x2="78.67" y2="302.19"/><line class="cls-1" x1="78.67" y1="302.82" x2="78.67" y2="305.36"/><line class="cls-1" x1="78.67" y1="306" x2="78.67" y2="308.54"/><line class="cls-1" x1="78.67" y1="309.17" x2="78.67" y2="311.08"/><line class="cls-1" x1="78.67" y1="257.74" x2="78.67" y2="259.65"/><line class="cls-1" x1="78.67" y1="260.92" x2="78.67" y2="263.46"/><line class="cls-1" x1="78.67" y1="264.09" x2="78.67" y2="266.63"/><line class="cls-1" x1="78.67" y1="267.27" x2="78.67" y2="269.81"/><line class="cls-1" x1="78.67" y1="270.44" x2="78.67" y2="272.98"/><line class="cls-1" x1="78.67" y1="273.61" x2="78.67" y2="276.15"/><line class="cls-1" x1="78.67" y1="276.79" x2="78.67" y2="279.33"/><line class="cls-1" x1="78.67" y1="279.96" x2="78.67" y2="282.5"/><line class="cls-1" x1="78.67" y1="283.14" x2="78.67" y2="285.68"/><line class="cls-1" x1="78.67" y1="286.95" x2="78.67" y2="288.85"/><line class="cls-1" x1="78.67" y1="290.12" x2="78.67" y2="292.03"/><line class="cls-1" x1="78.67" y1="293.3" x2="78.67" y2="295.2"/><line class="cls-1" x1="78.67" y1="296.47" x2="78.67" y2="298.38"/><line class="cls-1" x1="78.67" y1="299.65" x2="78.67" y2="301.55"/><line class="cls-1" x1="78.67" y1="302.82" x2="78.67" y2="304.73"/><line class="cls-1" x1="78.67" y1="306" x2="78.67" y2="307.9"/><line class="cls-1" x1="78.67" y1="309.17" x2="78.67" y2="311.08"/><line class="cls-1" x1="43.2" y1="262.82" x2="43.2" y2="204.35"/><line class="cls-1" x1="11.93" y1="233.3" x2="42.88" y2="233.3"/><line class="cls-1" x1="11.93" y1="280.28" x2="24.83" y2="280.28"/><line class="cls-1" x1="11.93" y1="270.76" x2="34.5" y2="270.76"/><line class="cls-1" x1="11.93" y1="261.87" x2="42.88" y2="261.87"/><line class="cls-1" x1="11.93" y1="252.34" x2="42.88" y2="252.34"/><line class="cls-1" x1="11.93" y1="242.82" x2="42.88" y2="242.82"/><line class="cls-1" x1="12.25" y1="292.9" x2="44.35" y2="261.3"/><line class="cls-1" x1="12.29" y1="297.56" x2="44.35" y2="266.07"/><line class="cls-1" x1="44.34" y1="265.99" x2="44.64" y2="204.35"/><polyline class="cls-1" points="11.93 223.77 42.61 223.77 44.81 223.77"/><line class="cls-1" x1="21.6" y1="223.77" x2="22.89" y2="223.77"/><polyline class="cls-1" points="11.55 214.04 42.23 214.04 44.43 214.04"/><polyline class="cls-1" points="11.55 204.35 42.23 204.35 44.43 204.35"/><polyline class="cls-1" points="185.9 30.32 188.44 30.32 188.44 27.14 185.9 27.14 185.9 30.63"/><line class="cls-1" x1="188.44" y1="28.76" x2="215.14" y2="28.76"/><polygon class="cls-1" points="215.14 30.32 215.14 30.32 217.04 30.32 217.04 27.14 215.14 27.14 215.14 30.32"/><polyline class="cls-1" points="216.73 30.32 218.95 30.32 218.95 27.14 217.04 27.14 217.04 30.32"/><line class="cls-1" x1="218.94" y1="28.76" x2="244.95" y2="28.76"/><polygon class="cls-1" points="244.95 30.32 244.95 30.32 246.85 30.32 246.85 27.14 244.95 27.14 244.95 30.32"/><rect class="cls-1" x="218.95" y="27.14" width="26" height="3.17"/><rect class="cls-1" x="188.44" y="27.14" width="26.7" height="3.17"/><polyline class="cls-1" points="43.68 30.18 46.22 30.18 46.22 27.01 43.68 27.01 43.68 30.5"/><line class="cls-1" x1="46.22" y1="28.63" x2="90.49" y2="28.63"/><polygon class="cls-1" points="90.49 30.18 90.49 30.18 92.39 30.18 92.39 27.01 90.49 27.01 90.49 30.18"/><polygon class="cls-1" points="132.57 27.01 132.57 27.01 134.47 27.01 134.47 30.18 132.57 30.18 132.57 27.01"/><polyline class="cls-1" points="74.9 33.64 76.92 33.64 76.92 30.47 74.9 30.47 74.9 33.64"/><line class="cls-1" x1="76.92" y1="32.05" x2="116.55" y2="32.05"/><polyline class="cls-1" points="116.55 33.64 116.55 33.64 119.25 33.64 119.25 30.47 116.55 30.47 116.55 33.64"/><rect class="cls-1" x="76.92" y="30.47" width="39.62" height="3.17"/><rect class="cls-1" x="92.39" y="27.01" width="40.18" height="3.17"/><rect class="cls-1" x="46.22" y="27.01" width="44.27" height="3.17"/><path class="cls-1" d="M113,316.69c0,16.74,13.38,30.79,30.1,30.79"/><rect class="cls-1" x="104.71" y="313.36" width="46.99" height="38.72"/><polyline class="cls-2" points="274.79 312.09 274.79 335.59 98.92 335.59 98.92 322.89"/></g><path class="cls-3" d="M265.62,73.85a2.89,2.89,0,1,0-2.88,2.89,2.88,2.88,0,0,0,2.88-2.89"/><path class="cls-3" d="M266.4,83.18a3.52,3.52,0,1,0-3.52,3.53,3.52,3.52,0,0,0,3.52-3.53"/><path class="cls-3" d="M265.05,83.18a2.17,2.17,0,1,0-2.17,2.17,2.17,2.17,0,0,0,2.17-2.17"/><path class="cls-3" d="M264.27,73.85a1.53,1.53,0,1,0-1.53,1.53,1.53,1.53,0,0,0,1.53-1.53"/><path class="cls-3" d="M257.15,83.46a4,4,0,1,0-4,4,4,4,0,0,0,4-4"/><path class="cls-3" d="M253.52,73.92A1.54,1.54,0,1,0,252,75.45a1.54,1.54,0,0,0,1.54-1.53"/><path class="cls-3" d="M254.87,73.92A2.89,2.89,0,1,0,252,76.81a2.88,2.88,0,0,0,2.89-2.89"/><path class="cls-3" d="M255.8,83.46a2.68,2.68,0,1,0-2.68,2.68,2.68,2.68,0,0,0,2.68-2.68"/><rect class="cls-3" x="248.12" y="69.55" width="19.05" height="18.41"/><line class="cls-3" x1="232.57" y1="41.29" x2="225.27" y2="41.29"/><line class="cls-3" x1="232.57" y1="42.56" x2="225.27" y2="42.56"/><line class="cls-3" x1="232.57" y1="44.47" x2="225.27" y2="44.47"/><line class="cls-3" x1="232.57" y1="46.37" x2="225.27" y2="46.37"/><line class="cls-3" x1="232.57" y1="47.64" x2="225.27" y2="47.64"/><line class="cls-3" x1="232.57" y1="49.55" x2="225.27" y2="49.55"/><line class="cls-3" x1="232.57" y1="50.82" x2="225.27" y2="50.82"/><line class="cls-3" x1="232.57" y1="39.39" x2="225.27" y2="39.39"/><line class="cls-3" x1="232.57" y1="52.72" x2="225.27" y2="52.72"/><line class="cls-3" x1="199.87" y1="35.9" x2="199.87" y2="55.9"/><line class="cls-3" x1="167.49" y1="55.9" x2="167.49" y2="35.9"/><line class="cls-3" x1="225.27" y1="55.9" x2="225.27" y2="35.58"/><line class="cls-3" x1="240.19" y1="55.9" x2="224.95" y2="55.9"/><line class="cls-3" x1="247.49" y1="55.9" x2="247.47" y2="98.92"/><polyline class="cls-3" points="240.5 55.9 240.5 35.58 234.71 35.58 199.87 35.58 199.87 55.9 234.79 55.9 234.79 35.58"/><line class="cls-3" x1="247.49" y1="55.9" x2="167.49" y2="55.9"/><rect class="cls-3" x="166.85" y="75.45" width="33.02" height="44.1"/><rect class="cls-3" x="150.98" y="81.17" width="11.43" height="12.06"/><rect class="cls-3" x="150.98" y="104.95" width="11.43" height="12.06"/><rect class="cls-3" x="203.68" y="104.95" width="11.43" height="12.06"/><rect class="cls-3" x="203.68" y="81.17" width="11.43" height="12.06"/><polyline class="cls-3" points="46.8 53.65 65.29 53.73 65.21 72.23 46.71 72.15 46.8 53.65"/><polyline class="cls-3" points="65.25 67.19 69.77 67.22 69.87 50.88 65.34 50.85 65.25 67.19"/><polyline class="cls-3" points="46.75 67.1 42.15 67.05 42.25 50.72 46.78 50.74 46.75 67.1"/><polyline class="cls-3" points="46.8 53.65 65.29 53.73 65.31 48.01 46.81 47.93 46.8 53.65"/><rect class="cls-3" x="43.48" y="84.22" width="25.51" height="41.46"/><rect class="cls-3" x="14.99" y="72.88" width="9.52" height="59.68"/><rect class="cls-3" x="18.17" y="93.2" width="1.27" height="24.13"/><polyline class="cls-3" points="103.04 130.34 103.04 75.11 109.39 75.11 109.39 130.34 102.44 130.34 83.99 130.34 83.99 93.52 83.99 93.52 83.99 75.11 83.99 75.11 103.04 75.11 103.04 130.03"/><polyline class="cls-3" points="84.95 75.11 104.31 75.11 104.31 70.03 85.26 70.03 85.26 75.11"/><polyline class="cls-3" points="84.95 130.34 104.31 130.34 104.31 135.42 85.26 135.42 85.26 130.34"/><line class="cls-3" x1="103.04" y1="111.93" x2="83.99" y2="111.93"/><line class="cls-3" x1="103.04" y1="93.52" x2="83.99" y2="93.52"/><path class="cls-3" d="M21.69,150.91a3.6,3.6,0,0,0-.32.69"/><path class="cls-3" d="M22.05,151.15a2.62,2.62,0,0,0-.27.59"/><path class="cls-3" d="M21.7,152a2.23,2.23,0,0,1,0,.23"/><path class="cls-3" d="M21.29,151.92c0,.14-.05.28-.07.43"/><path class="cls-3" d="M21.49,153.89a3.33,3.33,0,0,0,.88,1.15"/><path class="cls-3" d="M21.91,153.77a2.6,2.6,0,0,0,.74.94"/><path class="cls-3" d="M23,155.45a3.09,3.09,0,0,0,1.67.29"/><path class="cls-3" d="M23.21,155.07a2.83,2.83,0,0,0,1.52.24"/><path class="cls-3" d="M26.57,154.24a2.59,2.59,0,0,0,.48-1"/><path class="cls-3" d="M26.89,154.53a3.11,3.11,0,0,0,.59-1.26"/><path class="cls-3" d="M27.12,152.8a2.8,2.8,0,0,0-.17-1.18"/><path class="cls-3" d="M27.54,152.82a3,3,0,0,0-.21-1.39"/><path class="cls-3" d="M26.83,151.36a2.5,2.5,0,0,0-.55-.75"/><path class="cls-3" d="M27.2,151.13a3,3,0,0,0-.63-.83"/><path class="cls-3" d="M26.07,150.43l-.13-.1"/><path class="cls-3" d="M26.32,150.08l-.14-.1"/><path class="cls-3" d="M25.78,150.23l-.16-.09"/><path class="cls-3" d="M26,149.86l-.22-.12"/><path class="cls-3" d="M25.4,149.59a3.15,3.15,0,0,0-1.46-.14"/><path class="cls-3" d="M24.88,149.89a2.84,2.84,0,0,0-.92,0"/><path class="cls-3" d="M23.53,150a2.73,2.73,0,0,0-1.3.92"/><path class="cls-3" d="M23.38,149.59a3.12,3.12,0,0,0-1.47,1"/><line class="cls-3" x1="25.06" y1="152.2" x2="24.85" y2="152.34"/><polyline class="cls-3" points="29.69 149.99 28.69 150.77 26.7 151.77 25.06 152.34 24.78 152.41"/><polyline class="cls-3" points="29.41 149.42 28.41 150.34 26.56 151.56 25.06 152.2 24.85 152.34"/><line class="cls-3" x1="29.41" y1="149.42" x2="29.41" y2="149.42"/><line class="cls-3" x1="31.04" y1="148.78" x2="29.41" y2="149.42"/><line class="cls-3" x1="26.06" y1="149.7" x2="25.49" y2="150.7"/><line class="cls-3" x1="31.25" y1="139.52" x2="29.55" y2="143.3"/><line class="cls-3" x1="27.91" y1="147.14" x2="25.42" y2="151.06"/><polyline class="cls-3" points="31.14 139.52 29.33 143.3 29.33 143.37 27.96 146.57"/><line class="cls-3" x1="26.06" y1="149.7" x2="25.49" y2="150.7"/><polyline class="cls-3" points="31.3 139.52 27.42 144.15 27.42 144.22 26.9 146.15"/><line class="cls-3" x1="29.33" y1="158.11" x2="27.69" y2="156.47"/><line class="cls-3" x1="29.97" y1="157.4" x2="27.84" y2="155.9"/><polyline class="cls-3" points="24.35 152.62 26.06 152.77 24.35 152.62 26.2 153.12 28.69 153.41 30.47 152.91"/><polyline class="cls-3" points="32.04 153.41 29.33 152.91 26.06 152.77"/><polyline class="cls-3" points="32.68 142.65 28.48 147.14 25.7 150.91 25.27 151.41"/><polyline class="cls-3" points="31.04 145.43 28.98 147.57 25.84 151.06 25.06 151.84"/><polyline class="cls-3" points="12.24 159.89 16.3 156.12 17.44 155.19"/><line class="cls-3" x1="16.3" y1="156.12" x2="16.3" y2="156.12"/><line class="cls-3" x1="12.24" y1="159.89" x2="16.3" y2="156.12"/><line class="cls-3" x1="17.37" y1="156.97" x2="18.01" y2="156.19"/><line class="cls-3" x1="17.37" y1="156.97" x2="17.37" y2="156.97"/><line class="cls-3" x1="12.24" y1="159.89" x2="17.37" y2="156.97"/><polyline class="cls-3" points="24.35 152.62 22.28 156.9 24.35 152.62 21.71 155.83 20.43 157.68"/><line class="cls-3" x1="21.36" y1="158.25" x2="22.28" y2="156.9"/><line class="cls-3" x1="11.03" y1="156.83" x2="15.31" y2="154.83"/><polyline class="cls-3" points="11.03 156.74 15.3 154.66 15.38 154.66 16.87 153.13"/><polyline class="cls-3" points="15.09 153.84 18.37 153.62 19.15 153.91"/><line class="cls-3" x1="15.09" y1="153.84" x2="15.09" y2="153.84"/><line class="cls-3" x1="11.03" y1="156.83" x2="15.09" y2="153.84"/><line class="cls-3" x1="22.5" y1="151.48" x2="23.57" y2="152.13"/><line class="cls-3" x1="13.95" y1="146.43" x2="18.65" y2="147.92"/><polyline class="cls-3" points="18.65 147.92 19.5 148.78 20.22 149.21 22.64 151.27 23.78 152.13"/><line class="cls-3" x1="18.65" y1="147.92" x2="18.65" y2="147.92"/><line class="cls-3" x1="13.95" y1="146.43" x2="18.65" y2="147.92"/><polyline class="cls-3" points="13.95 146.15 17.8 148.94 17.87 148.94 18.79 149.64 19.86 149.64 22.5 151.41 23.57 151.95"/><line class="cls-3" x1="11.67" y1="150.63" x2="14.59" y2="150.49"/><polyline class="cls-3" points="11.67 150.49 14.59 150.21 14.66 150.21 16.8 150.42 20.43 151.2 22.85 152.02"/><line class="cls-3" x1="20.36" y1="151.7" x2="22.14" y2="152.13"/><line class="cls-3" x1="14.45" y1="151.48" x2="14.45" y2="151.48"/><line class="cls-3" x1="11.67" y1="150.63" x2="14.45" y2="151.48"/><line class="cls-3" x1="23.71" y1="150.49" x2="24.35" y2="152.62"/><line class="cls-3" x1="21.14" y1="142.65" x2="22.07" y2="143.23"/><polyline class="cls-3" points="21.28 142.65 22.34 143.23 22.34 143.3 23.63 146.93 23.92 148.14 23.96 150.49 24.29 151.91"/><polyline class="cls-3" points="21.57 146 23 148.64 23.35 149.56 23.71 150.49 24.35 152.62"/><line class="cls-3" x1="21.57" y1="146" x2="21.57" y2="146"/><line class="cls-3" x1="21.14" y1="142.65" x2="21.57" y2="146"/><line class="cls-3" x1="25.35" y1="153.12" x2="24.35" y2="152.62"/><line class="cls-3" x1="27.2" y1="158.75" x2="26.13" y2="156.97"/><line class="cls-3" x1="24.06" y1="153.41" x2="24.35" y2="152.62"/><line class="cls-3" x1="24.06" y1="153.41" x2="24.06" y2="153.41"/><polyline class="cls-3" points="27.2 158.75 26.13 156.97 26.06 156.9 25.13 155.83 25.06 155.69 24.06 153.41"/><polyline class="cls-3" points="27.2 158.75 27.76 156.4 27.91 155.76 27.2 154.9 27.13 154.65 25.42 152.75 25.35 152.75 24.35 152.44 23.71 153.03"/><line class="cls-3" x1="19.5" y1="152.55" x2="20.93" y2="152.41"/><line class="cls-3" x1="23.92" y1="152.13" x2="24.35" y2="152.62"/><line class="cls-3" x1="23.92" y1="152.13" x2="23.92" y2="152.13"/><polyline class="cls-3" points="19.51 152.4 20.93 152.12 21.07 152.12 22 152.12 22.07 152.12 23.93 152.12"/><line class="cls-3" x1="23.71" y1="153.12" x2="24.35" y2="152.62"/><line class="cls-3" x1="23.71" y1="153.12" x2="23.71" y2="153.12"/><polyline class="cls-3" points="19.5 152.55 20.86 153.69 21.22 153.79 22 153.39 22.07 153.39 23.71 152.93"/><line class="cls-3" x1="24.21" y1="151.98" x2="24.35" y2="152.62"/><line class="cls-3" x1="25.92" y1="149.35" x2="25.49" y2="150.34"/><line class="cls-3" x1="24.78" y1="152.41" x2="24.35" y2="152.62"/><line class="cls-3" x1="24.78" y1="152.41" x2="24.78" y2="152.41"/><polyline class="cls-3" points="25.92 149.35 25.49 150.34 25.42 151.2 25.35 151.27 24.78 152.41"/><line class="cls-3" x1="24.21" y1="151.98" x2="24.35" y2="152.62"/><line class="cls-3" x1="24.21" y1="151.98" x2="24.21" y2="151.98"/><line class="cls-3" x1="24.28" y1="150.7" x2="24.21" y2="151.98"/><line class="cls-3" x1="24.28" y1="150.7" x2="24.28" y2="150.7"/><polyline class="cls-3" points="25.92 149.35 24.7 149.92 24.42 150.06 24.28 150.7"/><line class="cls-3" x1="28.12" y1="146.57" x2="27.91" y2="147.14"/><line class="cls-3" x1="26.84" y1="146.15" x2="26.06" y2="149.7"/><line class="cls-3" x1="14.45" y1="151.48" x2="20.36" y2="151.7"/><line class="cls-3" x1="16.87" y1="153.26" x2="19.86" y2="152.91"/><line class="cls-3" x1="17.44" y1="155.19" x2="20.15" y2="153.12"/><line class="cls-3" x1="18.01" y1="156.19" x2="21.57" y2="153.84"/><line class="cls-3" x1="26.13" y1="157.96" x2="25.99" y2="156.83"/><line class="cls-3" x1="24.35" y1="158.32" x2="24.78" y2="154.98"/><line class="cls-3" x1="31.04" y1="148.78" x2="29.69" y2="149.99"/><line class="cls-3" x1="29.69" y1="149.99" x2="29.69" y2="149.99"/><line class="cls-3" x1="31.04" y1="148.78" x2="29.69" y2="149.99"/><polyline class="cls-3" points="29.9 158.53 29.83 158.53 29.33 158.11"/><line class="cls-3" x1="30.61" y1="157.61" x2="29.97" y2="157.4"/><line class="cls-3" x1="30.61" y1="157.61" x2="30.61" y2="157.61"/><line class="cls-3" x1="25.92" y1="159.17" x2="26.13" y2="157.96"/><line class="cls-3" x1="25.56" y1="164.59" x2="25.92" y2="159.25"/><polyline class="cls-3" points="25.54 164.59 24.25 159.75 24.25 159.67 24.33 158.32"/><polyline class="cls-3" points="33.68 150.56 33.61 150.63 30.47 152.91"/><polyline class="cls-3" points="34.58 142.08 33.14 142.3 33.14 142.37 32.76 142.65"/><polyline class="cls-3" points="34.53 141.91 34.24 143.23 34.18 143.23 31.04 145.17"/><line class="cls-3" x1="19.93" y1="164.23" x2="19.22" y2="160.74"/><polyline class="cls-3" points="19.22 160.74 19.72 158.89 20.43 157.68"/><line class="cls-3" x1="19.22" y1="160.74" x2="19.22" y2="160.74"/><line class="cls-3" x1="19.93" y1="164.23" x2="19.22" y2="160.74"/><polyline class="cls-3" points="20.07 164.23 21.07 161.53 21.07 161.46 21.07 159.46 21.5 158.25"/><polyline class="cls-3" points="32.04 153.41 34.24 150.99 35.67 148.71 33.68 150.56"/><line class="cls-3" x1="36.95" y1="159.25" x2="31.9" y2="157.68"/><line class="cls-3" x1="31.83" y1="157.68" x2="30.61" y2="157.61"/><polyline class="cls-3" points="36.95 159.25 33.68 159.32 31.97 159.39 29.9 158.53"/><polyline class="cls-3" points="46.98 154.74 65.47 154.59 65.33 136.1 46.83 136.24 46.98 154.74"/><polyline class="cls-3" points="65.32 141.16 69.91 141.1 70 157.46 65.47 157.5 65.32 141.16"/><polyline class="cls-3" points="46.82 141.31 42.29 141.35 42.44 157.69 46.97 157.64 46.82 141.31"/><polyline class="cls-3" points="46.98 154.74 65.47 154.59 65.53 160.38 47.04 160.53 46.98 154.74"/><polyline class="cls-3" points="267.78 99.23 267.78 119.23 247.47 119.23 247.47 98.92 267.78 98.92"/><line class="cls-3" x1="265.24" y1="98.92" x2="265.24" y2="119.23"/><line class="cls-3" x1="248.74" y1="119.23" x2="248.74" y2="98.92"/><polyline class="cls-3" points="247.47 101.45 246.51 101.45 246.51 102.72 247.47 102.72"/><rect class="cls-3" x="141.36" y="297.51" width="29.47" height="2.43"/><path class="cls-3" d="M141.36,297.51v-.65c0-13,13.95-25.15,26.59-25.15h2.87"/><rect class="cls-3" x="101.6" y="242.92" width="31" height="2.55"/><path class="cls-3" d="M132.6,242.92v-.67c0-13.69-14.68-26.46-28-26.46h-3"/><rect class="cls-3" x="118.85" y="253.3" width="2.36" height="28.58"/><path class="cls-3" d="M121.21,281.88h.62c12.63,0,24.4-13.53,24.4-25.79V253.3"/><g id="mury"><path class="cls-4" d="M257.65,119.71V147h10.79v-27.3Zm10.79,22.86h-6.35v-19h6.35Z"/><line class="cls-4" x1="275.43" y1="312.73" x2="275.43" y2="312.73"/><line class="cls-4" x1="274.47" y1="312.41" x2="274.47" y2="312.41"/><line class="cls-4" x1="275.43" y1="34.63" x2="275.43" y2="34.63"/><line class="cls-4" x1="275.43" y1="312.73" x2="275.43" y2="312.73"/><line class="cls-4" x1="275.43" y1="34.63" x2="275.43" y2="34.63"/><line class="cls-4" x1="276.38" y1="33.99" x2="275.74" y2="33.99"/><line class="cls-4" x1="257.65" y1="120.03" x2="257.65" y2="125.74"/><line class="cls-4" x1="134.15" y1="27.01" x2="133.52" y2="27.01"/><polygon class="cls-4" points="186.54 35.26 186.54 27.01 188.51 27.01 188.51 23.2 133.84 23.2 133.84 27.01 134.47 27.01 134.47 35.26 186.54 35.26"/><line class="cls-4" x1="4.99" y1="42.34" x2="4.99" y2="42.34"/><line class="cls-4" x1="2.64" y1="123.1" x2="2.64" y2="123.1"/><polygon class="cls-4" points="173.2 300.38 173.2 311.46 182.09 311.46 182.09 322.36 145.26 322.36 145.26 311.46 166.85 311.46 166.85 300.38 173.2 300.38"/><polygon class="cls-4" points="166.85 270.55 166.85 256.23 146.53 256.23 146.53 252.42 166.85 252.42 166.85 119.71 257.65 119.71 257.65 126.06 173.2 126.06 173.2 270.55 166.85 270.55"/><line class="cls-4" x1="274.47" y1="34.31" x2="274.47" y2="34.31"/><line class="cls-4" x1="151.93" y1="23.2" x2="150.03" y2="23.2"/><line class="cls-4" x1="151.93" y1="35.26" x2="150.03" y2="35.26"/><line class="cls-4" x1="151.93" y1="35.26" x2="150.03" y2="35.26"/><polygon class="cls-4" points="244.95 23.2 244.95 27.01 246.22 27.01 246.22 35.26 268.44 35.26 268.44 119.75 268.44 311.46 256.38 311.46 256.38 322.36 268.44 322.36 283.05 322.36 283.05 23.2 244.95 23.2"/><polygon class="cls-4" points="54.98 322.89 111.61 322.89 111.61 311.46 84.61 311.46 83.84 256.23 118.45 256.23 118.45 252.42 105.05 252.42 105.05 245.75 100.77 245.75 100.77 252.42 50.99 252.42 50.99 208.5 100.21 208.12 100.21 214.91 104.5 214.91 104.5 203.78 44.78 203.78 44.78 259.01 76.86 259.01 77.86 311.46 54.98 311.46 54.98 322.89"/><polygon class="cls-4" points="33.74 311.46 11.93 311.46 11.93 221.93 11.93 215.58 11.93 211.25 11.93 215.58 11.93 150.37 11.93 35.26 43.68 35.26 43.68 27.01 44.95 27.01 44.95 23.2 0.5 23.2 0.5 322.89 33.74 322.89 33.74 311.46"/><line class="cls-4" x1="143.08" y1="347.48" x2="143.08" y2="316.37"/><line class="cls-4" x1="144.03" y1="316.55" x2="111.68" y2="316.55"/><line class="cls-4" x1="255.38" y1="313.36" x2="180.77" y2="313.36"/><line class="cls-4" x1="44.63" y1="23.2" x2="133.52" y2="23.2"/><polyline class="cls-1" points="112.63 313.36 112.63 316.54 111.36 316.54 111.36 313.36 112.31 313.36"/><polyline class="cls-1" points="143.08 313.51 143.08 316.68 144.98 316.68 144.98 313.51 142.76 313.51"/><rect class="cls-1" x="63.36" y="252.41" width="3.17" height="1.9"/></g><g id="numerki"><path class="cls-5" d="M96,231.79a9,9,0,1,1-9-9A9,9,0,0,1,96,231.79Z"/><text class="cls-6" transform="translate(84.21 235)">3</text><path class="cls-5" d="M138.23,136.31a9,9,0,1,1-9-9A9,9,0,0,1,138.23,136.31Z"/><text class="cls-6" transform="translate(126.45 139.52)">5</text><circle class="cls-5" cx="219.98" cy="206.91" r="8.98"/><text class="cls-6" transform="translate(217.18 210.12)">1</text><path class="cls-5" d="M112.88,295.38a9,9,0,1,1-9-9A9,9,0,0,1,112.88,295.38Z"/><text class="cls-6" transform="translate(101.1 298.58)">2</text><path class="cls-5" d="M152,225a9,9,0,1,1-9-9A9,9,0,0,1,152,225Z"/><text class="cls-6" transform="translate(140.24 228.15)">4</text></g><polygon class="cls-5" points="118.57 363.84 128.29 346.41 138.08 363.84 118.57 363.84"/><path class="cls-3" d="M53.38,226.88v11.43h9.15a5.72,5.72,0,1,0,0-11.43Z"/><path class="cls-3" d="M185.89,132.13a.95.95,0,1,0-.94.94.94.94,0,0,0,.94-.94"/><polyline class="cls-3" points="185.9 128.38 185.9 132.13 185.9 128.38"/><line class="cls-3" x1="184" y1="132.19" x2="184" y2="128.38"/><path class="cls-7" d="M185,129.61a.94.94,0,1,1,0-1.87.94.94,0,1,1,0,1.87Z"/><polygon class="cls-3" points="175.11 139.49 175.11 139.49 194.79 139.49 194.79 128.06 175.11 128.06 175.11 139.49"/><polyline class="cls-3" points="185.58 129.96 193.52 129.96 193.52 138.22 176.38 138.22 176.38 129.96 183.68 129.96"/><polyline class="cls-3" points="183.68 129.96 178.28 129.96 178.28 136.31 191.62 136.31 191.62 129.96 185.58 129.96"/><path class="cls-3" d="M87,213a.69.69,0,1,0-.69.68A.69.69,0,0,0,87,213"/><polyline class="cls-3" points="86.79 210.39 86.79 212.96 86.79 210.39"/><line class="cls-3" x1="85.52" y1="212.93" x2="85.52" y2="210.39"/><path class="cls-7" d="M86.32,211.12a.68.68,0,1,1,.69-.68A.69.69,0,0,1,86.32,211.12Z"/><polygon class="cls-3" points="79.17 218.33 79.17 218.33 93.78 218.33 93.78 210.07 79.17 210.07 79.17 218.33"/><polyline class="cls-3" points="87.11 211.34 92.51 211.34 92.51 217.69 79.81 217.69 79.81 211.34 85.21 211.34"/><polyline class="cls-3" points="85.21 211.34 81.72 211.34 81.72 215.79 91.24 215.79 91.24 211.34 87.11 211.34"/><path class="cls-3" d="M215.23,38.73a.54.54,0,1,0,.54-.52.53.53,0,0,0-.54.52"/><path class="cls-3" d="M215.83,39.52a.33.33,0,0,0-.27.15l-1,1.66A1,1,0,0,1,214,41l1-1.64a.38.38,0,0,0,0-.33.77.77,0,0,1,.19-.91.86.86,0,0,1,1-.11.78.78,0,0,1,.4.86A.82.82,0,0,1,215.83,39.52Z"/><line class="cls-3" x1="217.81" y1="41.36" x2="216.45" y2="39.17"/><path class="cls-3" d="M218.92,43.16,220.07,45c0,.22-.58.53-.8.41l-3.54-5.84"/><rect class="cls-3" x="201.77" y="40.02" width="12.7" height="12.7" rx="2"/><rect class="cls-3" x="217.01" y="40.02" width="5.08" height="12.7" rx="2"/><path class="cls-3" d="M211.87,42a1.2,1.2,0,0,1-1.23,1.17h0A1.2,1.2,0,0,1,209.42,42h0a1.2,1.2,0,0,1,1.22-1.18h0A1.21,1.21,0,0,1,211.87,42Z"/><path class="cls-3" d="M220.07,42a1.2,1.2,0,0,1-1.23,1.17h0A1.2,1.2,0,0,1,217.61,42h0a1.21,1.21,0,0,1,1.23-1.18h0A1.21,1.21,0,0,1,220.07,42Z"/><line class="cls-1" x1="188.52" y1="23.2" x2="244.95" y2="23.2"/><line class="cls-1" x1="186.54" y1="35.26" x2="246.22" y2="35.26"/><line class="cls-4" x1="54.48" y1="322.89" x2="33.12" y2="322.89"/><line class="cls-4" x1="54.57" y1="311.46" x2="33.25" y2="311.46"/><line class="cls-4" x1="33.25" y1="314.75" x2="54.48" y2="314.75"/><line class="cls-4" x1="33.12" y1="317.36" x2="54.48" y2="317.36"/></g></g></svg>