<svg xmlns="http://www.w3.org/2000/svg" viewBox="0 0 283.55 313.39"><defs><style>.cls-1,.cls-2,.cls-3{fill:none;}.cls-1,.cls-2,.cls-9{stroke:#585553;}.cls-1,.cls-2,.cls-3,.cls-8,.cls-9{stroke-linecap:round;stroke-linejoin:round;}.cls-2{stroke-dasharray:5 2;}.cls-3,.cls-8{stroke:#bdbaba;}.cls-4{fill:#6d9452;}.cls-5,.cls-6{font-size:8.9px;fill:#fff;font-family:FuturaEFCEOP-Heavy;font-weight:800;}.cls-6{letter-spacing:-0.05em;}.cls-7{letter-spacing:0em;}.cls-8{fill:#bdbaba;}.cls-9{fill:#585553;}</style></defs><title>Zasób 3</title><g id="Warstwa_2" data-name="Warstwa 2"><g id="Warstwa_1-2" data-name="Warstwa 1"><g id="linie"><path class="cls-1" d="M268.44,130a2.2,2.2,0,1,0-2.19,2.2,2.2,2.2,0,0,0,2.19-2.2"/><path class="cls-1" d="M268.44,134.64a2.2,2.2,0,1,0-2.19,2.2,2.19,2.19,0,0,0,2.19-2.2"/><path class="cls-1" d="M268.44,139.3a2.2,2.2,0,1,0-2.19,2.19,2.19,2.19,0,0,0,2.19-2.19"/><polyline class="cls-1" points="257.24 294.67 255.65 294.67 255.65 292.13 257.55 292.13 257.55 294.67"/><line class="cls-1" x1="255.97" y1="292.13" x2="182.31" y2="292.13"/><polyline class="cls-1" points="255.97 294.67 182.43 294.67 180.09 294.67 180.09 292.13 182.63 292.13 182.63 294.67"/><polyline class="cls-1" points="179.77 294.67 178.19 294.67 178.19 292.13 180.09 292.13 180.09 294.67"/><polyline class="cls-1" points="259.14 294.67 257.55 294.67 257.55 292.13 259.46 292.13 259.46 294.67"/><line class="cls-1" x1="215.81" y1="292.05" x2="215.81" y2="294.67"/><line class="cls-1" x1="218.03" y1="292.13" x2="218.03" y2="294.67"/><line class="cls-1" x1="43.2" y1="257.9" x2="43.2" y2="255.36"/><line class="cls-1" x1="43.2" y1="254.09" x2="43.2" y2="252.19"/><line class="cls-1" x1="43.2" y1="250.92" x2="43.2" y2="249.01"/><line class="cls-1" x1="43.2" y1="247.74" x2="43.2" y2="245.2"/><line class="cls-1" x1="44.49" y1="257.9" x2="44.49" y2="256"/><line class="cls-1" x1="44.49" y1="254.73" x2="44.49" y2="252.82"/><line class="cls-1" x1="44.49" y1="251.55" x2="44.49" y2="249.65"/><line class="cls-1" x1="44.49" y1="248.38" x2="44.49" y2="246.47"/><line class="cls-1" x1="44.49" y1="245.2" x2="44.49" y2="243.3"/><line class="cls-1" x1="46.43" y1="257.9" x2="46.43" y2="255.36"/><line class="cls-1" x1="46.43" y1="254.73" x2="46.43" y2="252.19"/><line class="cls-1" x1="46.43" y1="250.92" x2="46.43" y2="249.01"/><line class="cls-1" x1="46.43" y1="247.74" x2="46.43" y2="245.84"/><line class="cls-1" x1="46.43" y1="244.57" x2="46.43" y2="242.66"/><line class="cls-1" x1="46.43" y1="241.39" x2="46.43" y2="239.49"/><line class="cls-1" x1="46.43" y1="238.22" x2="46.43" y2="236.31"/><line class="cls-1" x1="46.43" y1="235.04" x2="46.43" y2="233.14"/><line class="cls-1" x1="46.43" y1="231.87" x2="46.43" y2="229.96"/><line class="cls-1" x1="46.43" y1="228.69" x2="46.43" y2="226.79"/><line class="cls-1" x1="46.43" y1="225.52" x2="46.43" y2="223.61"/><line class="cls-1" x1="46.43" y1="222.34" x2="46.43" y2="219.8"/><line class="cls-1" x1="29.98" y1="257.58" x2="31.92" y2="257.58"/><line class="cls-1" x1="33.21" y1="257.58" x2="35.14" y2="257.58"/><line class="cls-1" x1="36.43" y1="257.58" x2="38.37" y2="257.58"/><line class="cls-1" x1="39.66" y1="257.58" x2="41.59" y2="257.58"/><line class="cls-1" x1="42.88" y1="257.58" x2="44.81" y2="257.58"/><line class="cls-1" x1="46.1" y1="257.58" x2="48.04" y2="257.58"/><line class="cls-1" x1="49.33" y1="257.58" x2="51.26" y2="257.58"/><line class="cls-1" x1="52.55" y1="257.58" x2="54.49" y2="257.58"/><line class="cls-1" x1="55.78" y1="257.58" x2="57.71" y2="257.58"/><line class="cls-1" x1="59" y1="257.58" x2="60.94" y2="257.58"/><line class="cls-1" x1="62.23" y1="257.58" x2="64.16" y2="257.58"/><line class="cls-1" x1="65.45" y1="257.58" x2="67.38" y2="257.58"/><line class="cls-1" x1="68.67" y1="257.58" x2="70.61" y2="257.58"/><line class="cls-1" x1="71.9" y1="257.58" x2="74.48" y2="257.58"/><line class="cls-1" x1="75.12" y1="257.58" x2="77.06" y2="257.58"/><line class="cls-1" x1="39.66" y1="248.06" x2="40.95" y2="248.06"/><line class="cls-1" x1="41.59" y1="248.06" x2="42.88" y2="248.06"/><line class="cls-1" x1="44.81" y1="248.06" x2="47.39" y2="248.06"/><line class="cls-1" x1="48.68" y1="248.06" x2="50.62" y2="248.06"/><line class="cls-1" x1="51.91" y1="248.06" x2="53.84" y2="248.06"/><line class="cls-1" x1="55.13" y1="248.06" x2="57.07" y2="248.06"/><line class="cls-1" x1="58.36" y1="248.06" x2="60.29" y2="248.06"/><line class="cls-1" x1="61.58" y1="248.06" x2="63.51" y2="248.06"/><line class="cls-1" x1="64.8" y1="248.06" x2="66.74" y2="248.06"/><line class="cls-1" x1="68.03" y1="248.06" x2="69.96" y2="248.06"/><line class="cls-1" x1="71.25" y1="248.06" x2="73.19" y2="248.06"/><line class="cls-1" x1="74.48" y1="248.06" x2="77.06" y2="248.06"/><line class="cls-1" x1="44.81" y1="239.17" x2="47.39" y2="239.17"/><line class="cls-1" x1="48.68" y1="239.17" x2="50.62" y2="239.17"/><line class="cls-1" x1="51.91" y1="239.17" x2="53.84" y2="239.17"/><line class="cls-1" x1="55.13" y1="239.17" x2="57.07" y2="239.17"/><line class="cls-1" x1="58.36" y1="239.17" x2="60.29" y2="239.17"/><line class="cls-1" x1="61.58" y1="239.17" x2="63.51" y2="239.17"/><line class="cls-1" x1="64.8" y1="239.17" x2="66.74" y2="239.17"/><line class="cls-1" x1="68.03" y1="239.17" x2="69.96" y2="239.17"/><line class="cls-1" x1="71.25" y1="239.17" x2="73.19" y2="239.17"/><line class="cls-1" x1="74.48" y1="239.17" x2="77.06" y2="239.17"/><line class="cls-1" x1="44.49" y1="257.9" x2="44.49" y2="259.8"/><line class="cls-1" x1="44.49" y1="260.44" x2="44.49" y2="262.98"/><line class="cls-1" x1="44.49" y1="263.61" x2="44.49" y2="266.15"/><line class="cls-1" x1="44.49" y1="266.79" x2="44.49" y2="269.33"/><line class="cls-1" x1="44.49" y1="270.6" x2="44.49" y2="272.5"/><line class="cls-1" x1="44.49" y1="273.77" x2="44.49" y2="275.68"/><line class="cls-1" x1="44.49" y1="276.95" x2="44.49" y2="278.85"/><line class="cls-1" x1="44.49" y1="280.12" x2="44.49" y2="282.03"/><line class="cls-1" x1="44.49" y1="283.3" x2="44.49" y2="285.2"/><line class="cls-1" x1="44.49" y1="286.47" x2="44.49" y2="288.38"/><line class="cls-1" x1="44.35" y1="257.76" x2="42.61" y2="258.54"/><line class="cls-1" x1="41.67" y1="259.04" x2="39.72" y2="259.97"/><line class="cls-1" x1="38.7" y1="260.39" x2="36.75" y2="261.32"/><line class="cls-1" x1="35.81" y1="261.75" x2="33.79" y2="262.67"/><line class="cls-1" x1="32.85" y1="263.17" x2="30.9" y2="264.02"/><line class="cls-1" x1="29.88" y1="264.52" x2="27.93" y2="265.45"/><line class="cls-1" x1="26.99" y1="265.88" x2="24.96" y2="266.8"/><line class="cls-1" x1="24.03" y1="267.23" x2="22.07" y2="268.15"/><line class="cls-1" x1="21.06" y1="268.65" x2="19.11" y2="269.58"/><line class="cls-1" x1="18.17" y1="270.01" x2="16.43" y2="270.79"/><line class="cls-1" x1="44.35" y1="257.76" x2="43.55" y2="258.97"/><line class="cls-1" x1="42.97" y1="259.9" x2="41.81" y2="261.68"/><line class="cls-1" x1="41.24" y1="262.6" x2="40.08" y2="264.38"/><line class="cls-1" x1="39.5" y1="265.31" x2="38.27" y2="267.09"/><line class="cls-1" x1="37.69" y1="268.02" x2="36.54" y2="269.79"/><line class="cls-1" x1="35.96" y1="270.65" x2="34.8" y2="272.5"/><line class="cls-1" x1="34.22" y1="273.35" x2="33.06" y2="275.21"/><line class="cls-1" x1="32.49" y1="276.06" x2="31.26" y2="277.91"/><line class="cls-1" x1="30.68" y1="278.77" x2="29.52" y2="280.55"/><line class="cls-1" x1="28.94" y1="281.47" x2="27.78" y2="283.25"/><line class="cls-1" x1="27.21" y1="284.18" x2="26.05" y2="285.96"/><line class="cls-1" x1="25.47" y1="286.88" x2="24.68" y2="288.1"/><line class="cls-1" x1="44.35" y1="257.76" x2="45.36" y2="258.26"/><line class="cls-1" x1="46.37" y1="258.76" x2="48.32" y2="259.61"/><line class="cls-1" x1="49.26" y1="260.11" x2="51.22" y2="261.03"/><line class="cls-1" x1="52.23" y1="261.46" x2="54.18" y2="262.39"/><line class="cls-1" x1="55.2" y1="262.81" x2="57.15" y2="263.74"/><line class="cls-1" x1="58.09" y1="264.24" x2="60.04" y2="265.17"/><line class="cls-1" x1="61.05" y1="265.59" x2="63.01" y2="266.52"/><line class="cls-1" x1="64.02" y1="266.95" x2="65.97" y2="267.87"/><line class="cls-1" x1="66.91" y1="268.3" x2="68.86" y2="269.22"/><line class="cls-1" x1="69.88" y1="269.72" x2="71.83" y2="270.65"/><line class="cls-1" x1="72.84" y1="271.07" x2="74.79" y2="272"/><line class="cls-1" x1="75.73" y1="272.43" x2="76.82" y2="272.93"/><line class="cls-1" x1="44.35" y1="257.76" x2="45.36" y2="259.68"/><line class="cls-1" x1="45.87" y1="260.68" x2="46.88" y2="262.53"/><line class="cls-1" x1="47.38" y1="263.46" x2="48.4" y2="265.38"/><line class="cls-1" x1="48.9" y1="266.3" x2="49.92" y2="268.23"/><line class="cls-1" x1="50.42" y1="269.15" x2="51.43" y2="271.07"/><line class="cls-1" x1="51.94" y1="272" x2="52.95" y2="273.85"/><line class="cls-1" x1="53.46" y1="274.85" x2="54.47" y2="276.7"/><line class="cls-1" x1="54.98" y1="277.63" x2="55.99" y2="279.55"/><line class="cls-1" x1="56.5" y1="280.47" x2="57.51" y2="282.4"/><line class="cls-1" x1="58.01" y1="283.32" x2="59.03" y2="285.25"/><line class="cls-1" x1="59.53" y1="286.17" x2="60.55" y2="288.1"/><line class="cls-1" x1="77.38" y1="220.12" x2="77.38" y2="221.71"/><line class="cls-1" x1="77.38" y1="222.34" x2="77.38" y2="224.88"/><line class="cls-1" x1="77.38" y1="225.52" x2="77.38" y2="228.06"/><line class="cls-1" x1="77.38" y1="228.69" x2="77.38" y2="231.23"/><line class="cls-1" x1="77.38" y1="232.5" x2="77.38" y2="234.41"/><line class="cls-1" x1="77.38" y1="235.68" x2="77.38" y2="237.58"/><line class="cls-1" x1="77.38" y1="238.85" x2="77.38" y2="240.76"/><line class="cls-1" x1="77.38" y1="242.03" x2="77.38" y2="243.93"/><line class="cls-1" x1="77.38" y1="245.2" x2="77.38" y2="247.11"/><line class="cls-1" x1="77.38" y1="248.38" x2="77.38" y2="250.28"/><line class="cls-1" x1="77.38" y1="251.55" x2="77.38" y2="253.46"/><line class="cls-1" x1="77.38" y1="254.73" x2="77.38" y2="256.63"/><line class="cls-1" x1="77.38" y1="257.9" x2="77.38" y2="259.8"/><line class="cls-1" x1="77.38" y1="261.07" x2="77.38" y2="262.98"/><line class="cls-1" x1="77.38" y1="264.25" x2="77.38" y2="266.15"/><line class="cls-1" x1="77.38" y1="267.42" x2="77.38" y2="269.33"/><line class="cls-1" x1="77.38" y1="270.6" x2="77.38" y2="272.5"/><line class="cls-1" x1="77.38" y1="273.77" x2="77.38" y2="275.68"/><line class="cls-1" x1="77.38" y1="276.95" x2="77.38" y2="279.49"/><line class="cls-1" x1="77.38" y1="280.12" x2="77.38" y2="282.66"/><line class="cls-1" x1="77.38" y1="283.3" x2="77.38" y2="285.84"/><line class="cls-1" x1="77.38" y1="286.47" x2="77.38" y2="288.38"/><line class="cls-1" x1="44.81" y1="229.65" x2="47.39" y2="229.65"/><line class="cls-1" x1="48.68" y1="229.65" x2="50.62" y2="229.65"/><line class="cls-1" x1="51.91" y1="229.65" x2="53.84" y2="229.65"/><line class="cls-1" x1="55.13" y1="229.65" x2="57.07" y2="229.65"/><line class="cls-1" x1="58.36" y1="229.65" x2="60.29" y2="229.65"/><line class="cls-1" x1="61.58" y1="229.65" x2="63.51" y2="229.65"/><line class="cls-1" x1="64.8" y1="229.65" x2="66.74" y2="229.65"/><line class="cls-1" x1="68.03" y1="229.65" x2="69.96" y2="229.65"/><line class="cls-1" x1="71.25" y1="229.65" x2="73.19" y2="229.65"/><line class="cls-1" x1="74.48" y1="229.65" x2="77.06" y2="229.65"/><line class="cls-1" x1="44.81" y1="220.12" x2="46.75" y2="220.12"/><line class="cls-1" x1="47.39" y1="220.12" x2="49.97" y2="220.12"/><line class="cls-1" x1="50.62" y1="220.12" x2="53.2" y2="220.12"/><line class="cls-1" x1="53.84" y1="220.12" x2="56.42" y2="220.12"/><line class="cls-1" x1="57.71" y1="220.12" x2="59.65" y2="220.12"/><line class="cls-1" x1="60.94" y1="220.12" x2="62.87" y2="220.12"/><line class="cls-1" x1="64.16" y1="220.12" x2="66.09" y2="220.12"/><line class="cls-1" x1="67.38" y1="220.12" x2="69.32" y2="220.12"/><line class="cls-1" x1="70.61" y1="220.12" x2="72.54" y2="220.12"/><line class="cls-1" x1="73.83" y1="220.12" x2="75.77" y2="220.12"/><line class="cls-1" x1="77.06" y1="220.12" x2="78.67" y2="220.12"/><line class="cls-1" x1="50.62" y1="220.12" x2="47.39" y2="220.12"/><line class="cls-1" x1="77.38" y1="271.87" x2="77.38" y2="270.6"/><line class="cls-1" x1="78.67" y1="220.12" x2="78.67" y2="221.71"/><line class="cls-1" x1="78.67" y1="222.34" x2="78.67" y2="224.88"/><line class="cls-1" x1="78.67" y1="225.52" x2="78.67" y2="228.06"/><line class="cls-1" x1="78.67" y1="228.69" x2="78.67" y2="231.23"/><line class="cls-1" x1="78.67" y1="232.5" x2="78.67" y2="234.41"/><line class="cls-1" x1="78.67" y1="235.68" x2="78.67" y2="237.58"/><line class="cls-1" x1="78.67" y1="238.85" x2="78.67" y2="240.76"/><line class="cls-1" x1="78.67" y1="242.03" x2="78.67" y2="243.93"/><line class="cls-1" x1="78.67" y1="245.2" x2="78.67" y2="247.11"/><line class="cls-1" x1="78.67" y1="248.38" x2="78.67" y2="250.28"/><line class="cls-1" x1="78.67" y1="251.55" x2="78.67" y2="253.46"/><line class="cls-1" x1="78.67" y1="254.73" x2="78.67" y2="256.63"/><line class="cls-1" x1="78.67" y1="257.9" x2="78.67" y2="259.8"/><line class="cls-1" x1="78.67" y1="261.07" x2="78.67" y2="262.98"/><line class="cls-1" x1="78.67" y1="264.25" x2="78.67" y2="266.15"/><line class="cls-1" x1="78.67" y1="267.42" x2="78.67" y2="269.33"/><line class="cls-1" x1="78.67" y1="270.6" x2="78.67" y2="272.5"/><line class="cls-1" x1="78.67" y1="273.77" x2="78.67" y2="275.68"/><line class="cls-1" x1="78.67" y1="276.95" x2="78.67" y2="279.49"/><line class="cls-1" x1="78.67" y1="280.12" x2="78.67" y2="282.66"/><line class="cls-1" x1="78.67" y1="283.3" x2="78.67" y2="285.84"/><line class="cls-1" x1="78.67" y1="286.47" x2="78.67" y2="288.38"/><line class="cls-1" x1="78.67" y1="222.34" x2="78.67" y2="224.25"/><line class="cls-1" x1="78.67" y1="225.52" x2="78.67" y2="227.42"/><line class="cls-1" x1="78.67" y1="228.69" x2="78.67" y2="230.6"/><line class="cls-1" x1="78.67" y1="231.87" x2="78.67" y2="233.77"/><line class="cls-1" x1="78.67" y1="235.04" x2="78.67" y2="236.95"/><line class="cls-1" x1="78.67" y1="238.22" x2="78.67" y2="240.76"/><line class="cls-1" x1="78.67" y1="241.39" x2="78.67" y2="243.93"/><line class="cls-1" x1="78.67" y1="244.57" x2="78.67" y2="247.11"/><line class="cls-1" x1="78.67" y1="247.74" x2="78.67" y2="250.28"/><line class="cls-1" x1="78.67" y1="250.92" x2="78.67" y2="253.46"/><line class="cls-1" x1="78.67" y1="254.09" x2="78.67" y2="256.63"/><line class="cls-1" x1="78.67" y1="257.27" x2="78.67" y2="259.8"/><line class="cls-1" x1="78.67" y1="260.44" x2="78.67" y2="262.98"/><line class="cls-1" x1="78.67" y1="264.25" x2="78.67" y2="266.15"/><line class="cls-1" x1="78.67" y1="267.42" x2="78.67" y2="269.33"/><line class="cls-1" x1="78.67" y1="270.6" x2="78.67" y2="272.5"/><line class="cls-1" x1="78.67" y1="273.77" x2="78.67" y2="275.68"/><line class="cls-1" x1="78.67" y1="276.95" x2="78.67" y2="278.85"/><line class="cls-1" x1="78.67" y1="280.12" x2="78.67" y2="282.03"/><line class="cls-1" x1="78.67" y1="283.3" x2="78.67" y2="285.2"/><line class="cls-1" x1="78.67" y1="286.47" x2="78.67" y2="288.38"/><line class="cls-1" x1="43.2" y1="240.12" x2="43.2" y2="201.39"/><line class="cls-1" x1="11.93" y1="210.6" x2="42.88" y2="210.6"/><line class="cls-1" x1="11.93" y1="257.58" x2="24.83" y2="257.58"/><line class="cls-1" x1="11.93" y1="248.06" x2="34.5" y2="248.06"/><line class="cls-1" x1="11.93" y1="239.17" x2="42.88" y2="239.17"/><line class="cls-1" x1="11.93" y1="229.65" x2="42.88" y2="229.65"/><line class="cls-1" x1="11.93" y1="220.12" x2="42.88" y2="220.12"/><line class="cls-1" x1="12.25" y1="270.21" x2="44.35" y2="238.6"/><line class="cls-1" x1="12.29" y1="274.87" x2="44.35" y2="243.37"/><line class="cls-1" x1="44.49" y1="243.3" x2="44.49" y2="201.39"/><polyline class="cls-1" points="11.93 201.07 42.61 201.07 44.81 201.07"/><line class="cls-1" x1="21.6" y1="201.07" x2="22.89" y2="201.07"/><polyline class="cls-1" points="38.68 7.48 41.22 7.48 41.22 4.31 38.68 4.31 38.68 7.8"/><line class="cls-1" x1="41.22" y1="5.9" x2="88.49" y2="5.9"/><polygon class="cls-1" points="88.49 7.48 88.49 7.48 90.39 7.48 90.39 4.31 88.49 4.31 88.49 7.48"/><polygon class="cls-1" points="127.57 4.31 127.57 4.31 129.47 4.31 129.47 7.48 127.57 7.48 127.57 4.31"/><rect class="cls-1" x="90.39" y="4.31" width="37.18" height="3.17"/><rect class="cls-1" x="41.22" y="4.31" width="47.27" height="3.17"/><polyline class="cls-2" points="274.79 289.39 274.79 312.89 98.92 312.89 98.92 300.19"/><path class="cls-1" d="M85.23,205.94a2.2,2.2,0,1,0-2.2,2.2,2.19,2.19,0,0,0,2.2-2.2"/><path class="cls-1" d="M85.23,210.6a2.2,2.2,0,1,0-2.2,2.19,2.19,2.19,0,0,0,2.2-2.19"/><path class="cls-1" d="M85.23,215.25a2.2,2.2,0,1,0-2.2,2.2,2.2,2.2,0,0,0,2.2-2.2"/><rect class="cls-1" x="189.08" y="4.63" width="2.36" height="3.17"/><line class="cls-1" x1="191.43" y1="6.21" x2="217.03" y2="6.21"/><polygon class="cls-1" points="217.03 7.8 217.03 7.8 218.8 7.8 218.8 4.63 217.03 4.63 217.03 7.8"/><polygon class="cls-1" points="243.74 4.63 243.74 4.63 245.51 4.63 245.51 7.8 243.74 7.8 243.74 4.63"/><rect class="cls-1" x="218.8" y="4.63" width="24.94" height="3.17"/><rect class="cls-1" x="191.43" y="4.63" width="25.6" height="3.17"/></g><polyline class="cls-3" points="137.57 201.39 137.57 169.33 140.11 169.33 140.11 201.07 137.57 201.07"/><path class="cls-3" d="M137.57,169.33h-.68c-13.61,0-26.3,11-26.3,24.64v3.21"/><g id="numerki"><path class="cls-4" d="M208.54,60.34a9,9,0,1,1-9-9A9,9,0,0,1,208.54,60.34Z"/><text class="cls-5" transform="translate(196.75 63.55)">8</text><path class="cls-4" d="M137.42,241.39a9,9,0,1,1-9-9A9,9,0,0,1,137.42,241.39Z"/><text class="cls-6" transform="translate(123.35 244.6)">1<tspan class="cls-7" x="4.58" y="0">0</tspan></text><circle class="cls-4" cx="41.59" cy="168.79" r="8.98"/><text class="cls-5" transform="translate(38.79 172)">6</text><path class="cls-4" d="M101.54,76.4a9,9,0,1,1-9-9A9,9,0,0,1,101.54,76.4Z"/><text class="cls-5" transform="translate(89.76 79.61)">7</text><path class="cls-4" d="M224.35,229.65a9,9,0,1,1-9-9A9,9,0,0,1,224.35,229.65Z"/><text class="cls-5" transform="translate(212.56 232.85)">9</text></g><path class="cls-3" d="M88.23,268.06v11.43h9.14a5.72,5.72,0,1,0,0-11.43Z"/><rect class="cls-3" x="81.88" y="266.15" width="6.35" height="15.24"/><path class="cls-3" d="M85.2,242a1,1,0,1,0,.93.95.95.95,0,0,0-.93-.95"/><polyline class="cls-3" points="81.44 242.03 85.2 242.03 81.44 242.03"/><line class="cls-3" x1="85.25" y1="243.93" x2="81.44" y2="243.93"/><path class="cls-8" d="M82.67,243a.93.93,0,1,1-.93-.95A.95.95,0,0,1,82.67,243Z"/><polygon class="cls-3" points="92.56 252.82 92.56 252.82 92.56 233.14 81.13 233.14 81.13 252.82 92.56 252.82"/><polyline class="cls-3" points="83.03 242.34 83.03 234.41 91.28 234.41 91.28 251.55 83.03 251.55 83.03 244.25"/><polyline class="cls-3" points="83.03 244.25 83.03 249.65 89.38 249.65 89.38 236.31 83.03 236.31 83.03 242.34"/><polyline class="cls-3" points="169.81 171.71 201.88 171.71 201.88 169.33 170.13 169.33 170.13 171.71"/><path class="cls-3" d="M201.88,171.71v.63c0,12.78-11,24.7-24.65,24.7H174"/><polyline class="cls-3" points="140.82 146.02 140.82 113.96 138.28 113.96 138.28 145.7 140.82 145.7"/><path class="cls-3" d="M140.82,114h.68c13.61,0,26.3,11,26.3,24.64v3.21"/><polyline class="cls-3" points="127.98 146.02 127.98 113.96 130.52 113.96 130.52 145.7 127.98 145.7"/><path class="cls-3" d="M128,114h-.68c-13.61,0-26.3,11-26.3,24.64v3.21"/><g id="mury"><path class="cls-9" d="M260.93,125.33v19h7.51v-19Zm7.51,15.9H264V128h4.41Z"/><line class="cls-9" x1="275.43" y1="290.03" x2="275.43" y2="290.03"/><line class="cls-9" x1="274.47" y1="289.71" x2="274.47" y2="289.71"/><line class="cls-9" x1="275.43" y1="11.93" x2="275.43" y2="11.93"/><line class="cls-9" x1="275.43" y1="290.03" x2="275.43" y2="290.03"/><line class="cls-9" x1="275.43" y1="11.93" x2="275.43" y2="11.93"/><line class="cls-9" x1="276.38" y1="11.29" x2="275.74" y2="11.29"/><line class="cls-9" x1="134.15" y1="4.31" x2="133.52" y2="4.31"/><polygon class="cls-9" points="188.54 12.56 188.54 0.5 128.84 0.5 128.84 12.56 134.47 12.56 134.47 142.91 130.52 142.91 130.52 147.41 137.48 147.41 137.48 142.91 136.71 142.91 136.71 12.56 188.54 12.56"/><line class="cls-9" x1="4.99" y1="19.64" x2="4.99" y2="19.64"/><line class="cls-9" x1="2.64" y1="100.4" x2="2.64" y2="100.4"/><polygon class="cls-9" points="173.2 197.18 173.2 278.6 173.4 288.76 182.09 288.76 182.09 300.19 130.52 300.19 130.52 288.76 145.26 288.76 166.85 288.76 166.97 201.4 140.41 201.38 140.28 197.25 166.85 197.25 173.2 197.18"/><polygon class="cls-9" points="169.77 169.01 169.77 153.43 166.85 153.43 166.85 143.1 268.44 143.1 268.44 147.21 173.2 147.21 173.2 169.01 169.77 169.01"/><line class="cls-9" x1="274.47" y1="11.61" x2="274.47" y2="11.61"/><line class="cls-9" x1="151.93" y1="0.5" x2="150.03" y2="0.5"/><line class="cls-9" x1="151.93" y1="12.56" x2="150.03" y2="12.56"/><line class="cls-9" x1="151.93" y1="12.56" x2="150.03" y2="12.56"/><polygon class="cls-9" points="245.95 0.5 245.95 12.56 268.44 12.56 268.44 97.05 268.44 288.76 256.38 288.76 256.38 300.19 283.05 300.19 283.05 0.5 245.95 0.5"/><polygon class="cls-9" points="54.98 300.19 83.68 300.19 109.71 300.19 109.71 288.76 98.28 288.76 80.47 288.76 80.47 201.38 110.54 201.38 110.54 197.25 80.47 197.25 75.73 197.25 75.73 236.31 75.73 288.76 54.98 288.76 54.98 300.19"/><polygon class="cls-9" points="33.62 288.76 11.93 288.76 11.93 199.23 11.93 192.88 11.93 188.55 11.93 192.88 11.93 147.41 100.55 147.41 100.55 142.91 11.93 142.91 11.93 127.67 11.93 12.56 39.95 12.56 39.95 0.5 0.5 0.5 0.5 300.19 33.62 300.19 33.62 288.76"/><line class="cls-9" x1="54.98" y1="300.19" x2="33.62" y2="300.19"/><line class="cls-9" x1="256.7" y1="288.76" x2="182.09" y2="288.76"/><line class="cls-9" x1="39.63" y1="0.5" x2="128.52" y2="0.5"/><path class="cls-9" d="M87.52,200.64v19H80.46v-19Zm-7.06,15.89h4.16V203.29H80.46Z"/><line class="cls-9" x1="187.81" y1="0.5" x2="246.7" y2="0.5"/><line class="cls-9" x1="186.85" y1="12.56" x2="245.74" y2="12.56"/><line class="cls-9" x1="39.95" y1="12.56" x2="128.84" y2="12.56"/><line class="cls-9" x1="256.38" y1="300.19" x2="180.19" y2="300.19"/></g><line class="cls-9" x1="55.07" y1="288.76" x2="33.74" y2="288.76"/><line class="cls-9" x1="33.74" y1="292.05" x2="54.98" y2="292.05"/><line class="cls-9" x1="33.62" y1="294.67" x2="54.98" y2="294.67"/><line class="cls-9" x1="130.53" y1="300.19" x2="109.18" y2="300.19"/><line class="cls-9" x1="130.63" y1="288.76" x2="109.3" y2="288.76"/><line class="cls-9" x1="109.3" y1="292.05" x2="130.53" y2="292.05"/><line class="cls-9" x1="109.18" y1="294.66" x2="130.53" y2="294.66"/></g><g id="Warstwa_2-2" data-name="Warstwa 2"><polyline class="cls-3" points="244.33 205.2 244.33 168.04 267.48 168.04 267.48 205.2 244.33 205.2"/><polyline class="cls-3" points="233.46 188.46 233.46 176.44 243.5 176.44 243.5 188.46 233.46 188.46"/><polyline class="cls-3" points="174.28 148.76 267.48 148.76 267.48 166.86 174.28 166.86 174.28 148.76"/><polyline class="cls-3" points="237.29 213.79 267.55 213.79 267.55 275.76 237.29 275.76 237.29 213.79"/><polyline class="cls-3" points="264.54 272.76 240.3 272.76 240.3 216.86 264.54 216.86 264.54 272.76"/><polyline class="cls-3" points="169.44 77.35 139.19 77.35 139.19 15.38 169.44 15.38 169.44 77.35"/><polyline class="cls-3" points="142.19 18.45 166.43 18.45 166.43 74.35 142.19 74.35 142.19 18.45"/><polyline class="cls-3" points="244.33 41.82 244.33 78.97 267.48 78.97 267.48 41.82 244.33 41.82"/><polyline class="cls-3" points="233.46 57.55 233.46 69.57 243.5 69.57 243.5 57.55 233.46 57.55"/><polyline class="cls-3" points="194 141.04 194 122.94 258.54 122.94 258.54 141.04 194 141.04"/><polyline class="cls-3" points="14.23 122.94 14.23 141.04 83.99 141.04 83.99 122.94 14.23 122.94"/><polyline class="cls-3" points="13.24 96.06 13.24 50.78 74.23 50.78 74.23 96.06 13.24 96.06"/><polyline class="cls-3" points="16.25 53.79 16.25 93.06 71.23 93.06 71.23 53.79 16.25 53.79"/><polyline class="cls-3" points="182.57 233.38 174.24 233.38 174.24 287.97 182.57 287.97 182.57 233.38"/><polyline class="cls-3" points="140.82 233.14 140.82 202.39 165 202.39 165 233.14 140.82 233.14"/><polyline class="cls-3" points="140.82 287.56 140.82 233.38 165 233.38 165 287.56 140.82 287.56"/><path class="cls-3" d="M143.36,285.1V244.29a7.35,7.35,0,0,1,7.35-7.34h4.39a7.35,7.35,0,0,1,7.35,7.34V285.1H143.36"/><polyline class="cls-3" points="143.49 228.06 143.49 210.77 143.49 205.94 161.77 205.94 161.77 228.06 143.49 228.06"/><polyline class="cls-3" points="143.36 226.47 141.92 226.47 141.92 210.13 143.49 210.13"/><polyline class="cls-3" points="88.23 219.63 88.23 205.98 88.23 202.18 98.92 202.18 98.92 219.63 88.23 219.63"/><polyline class="cls-3" points="13.24 34.16 13.24 46.37 27.18 46.37 27.18 34.16 13.24 34.16"/><polyline class="cls-3" points="13.24 99.48 13.24 111.69 27.18 111.69 27.18 99.48 13.24 99.48"/></g></g></svg>