<svg xmlns="http://www.w3.org/2000/svg" viewBox="0 0 283.55 363.84"><defs><style>.cls-1,.cls-2,.cls-3{fill:none;}.cls-1,.cls-2,.cls-4{stroke:#585553;}.cls-1,.cls-2,.cls-3,.cls-4,.cls-7{stroke-linecap:round;stroke-linejoin:round;}.cls-2{stroke-dasharray:5 2;}.cls-3,.cls-7{stroke:#bdbaba;}.cls-4{fill:#585553;}.cls-5{fill:#6d9452;}.cls-6{font-size:8.9px;fill:#fff;font-family:FuturaEFCEOP-Heavy;font-weight:800;}.cls-7{fill:#bdbaba;}</style></defs><title>Zasób 3</title><g id="Warstwa_2" data-name="Warstwa 2"><g id="Warstwa_1-2" data-name="Warstwa 1"><g id="linie"><rect class="cls-1" x="148.44" y="0.5" width="111.11" height="22.7"/><path class="cls-1" d="M15.36,126.9a3,3,0,1,1,3,3,3,3,0,0,1-3-3"/><path class="cls-1" d="M15.36,133.31a3,3,0,1,1,3,3,3,3,0,0,1-3-3"/><path class="cls-1" d="M15.36,139.72a3,3,0,1,1,3,3,3,3,0,0,1-3-3"/><polyline class="cls-1" points="26.16 315.9 27.74 315.9 27.74 313.36 25.84 313.36 25.84 315.9"/><line class="cls-1" x1="27.43" y1="313.36" x2="101.08" y2="313.36"/><polyline class="cls-1" points="27.43 315.9 100.97 315.9 103.3 315.9 103.3 313.36 100.76 313.36 100.76 315.9"/><polyline class="cls-1" points="103.62 315.9 105.2 315.9 105.2 313.36 103.3 313.36 103.3 315.9"/><polyline class="cls-1" points="24.25 315.9 25.84 315.9 25.84 313.36 23.93 313.36 23.93 315.9"/><polyline class="cls-1" points="172.18 316.69 138.56 316.69 138.56 313.52 172.18 313.52 172.18 316.38"/><line class="cls-1" x1="240.34" y1="280.6" x2="240.34" y2="278.06"/><line class="cls-1" x1="240.34" y1="276.79" x2="240.34" y2="274.88"/><line class="cls-1" x1="240.34" y1="273.61" x2="240.34" y2="271.71"/><line class="cls-1" x1="240.34" y1="270.44" x2="240.34" y2="267.9"/><line class="cls-1" x1="239.05" y1="280.6" x2="239.05" y2="278.69"/><line class="cls-1" x1="239.05" y1="277.42" x2="239.05" y2="275.52"/><line class="cls-1" x1="239.05" y1="274.25" x2="239.05" y2="272.34"/><line class="cls-1" x1="239.05" y1="271.07" x2="239.05" y2="269.17"/><line class="cls-1" x1="239.05" y1="267.9" x2="239.05" y2="266"/><line class="cls-1" x1="237.12" y1="280.6" x2="237.12" y2="278.06"/><line class="cls-1" x1="237.12" y1="277.42" x2="237.12" y2="274.88"/><line class="cls-1" x1="237.12" y1="273.61" x2="237.12" y2="271.71"/><line class="cls-1" x1="237.12" y1="270.44" x2="237.12" y2="268.54"/><line class="cls-1" x1="237.12" y1="267.27" x2="237.12" y2="265.36"/><line class="cls-1" x1="237.12" y1="264.09" x2="237.12" y2="262.19"/><line class="cls-1" x1="237.12" y1="260.92" x2="237.12" y2="259.01"/><line class="cls-1" x1="237.12" y1="257.74" x2="237.12" y2="255.84"/><line class="cls-1" x1="253.56" y1="280.28" x2="251.63" y2="280.28"/><line class="cls-1" x1="250.34" y1="280.28" x2="248.4" y2="280.28"/><line class="cls-1" x1="247.11" y1="280.28" x2="245.18" y2="280.28"/><line class="cls-1" x1="243.89" y1="280.28" x2="241.96" y2="280.28"/><line class="cls-1" x1="240.67" y1="280.28" x2="238.73" y2="280.28"/><line class="cls-1" x1="237.44" y1="280.28" x2="235.51" y2="280.28"/><line class="cls-1" x1="234.22" y1="280.28" x2="232.28" y2="280.28"/><line class="cls-1" x1="230.99" y1="280.28" x2="229.06" y2="280.28"/><line class="cls-1" x1="227.77" y1="280.28" x2="225.83" y2="280.28"/><line class="cls-1" x1="224.54" y1="280.28" x2="222.61" y2="280.28"/><line class="cls-1" x1="221.32" y1="280.28" x2="219.39" y2="280.28"/><line class="cls-1" x1="218.1" y1="280.28" x2="216.16" y2="280.28"/><line class="cls-1" x1="214.87" y1="280.28" x2="212.94" y2="280.28"/><line class="cls-1" x1="211.65" y1="280.28" x2="209.07" y2="280.28"/><line class="cls-1" x1="208.42" y1="280.28" x2="206.49" y2="280.28"/><line class="cls-1" x1="243.89" y1="270.76" x2="242.6" y2="270.76"/><line class="cls-1" x1="241.96" y1="270.76" x2="240.67" y2="270.76"/><line class="cls-1" x1="238.73" y1="270.76" x2="236.15" y2="270.76"/><line class="cls-1" x1="234.86" y1="270.76" x2="232.93" y2="270.76"/><line class="cls-1" x1="231.64" y1="270.76" x2="229.7" y2="270.76"/><line class="cls-1" x1="228.41" y1="270.76" x2="226.48" y2="270.76"/><line class="cls-1" x1="225.19" y1="270.76" x2="223.26" y2="270.76"/><line class="cls-1" x1="221.97" y1="270.76" x2="220.03" y2="270.76"/><line class="cls-1" x1="218.74" y1="270.76" x2="216.81" y2="270.76"/><line class="cls-1" x1="215.52" y1="270.76" x2="213.58" y2="270.76"/><line class="cls-1" x1="212.29" y1="270.76" x2="210.36" y2="270.76"/><line class="cls-1" x1="209.07" y1="270.76" x2="206.49" y2="270.76"/><line class="cls-1" x1="238.73" y1="261.87" x2="236.15" y2="261.87"/><line class="cls-1" x1="234.86" y1="261.87" x2="232.93" y2="261.87"/><line class="cls-1" x1="231.64" y1="261.87" x2="229.7" y2="261.87"/><line class="cls-1" x1="228.41" y1="261.87" x2="226.48" y2="261.87"/><line class="cls-1" x1="225.19" y1="261.87" x2="223.26" y2="261.87"/><line class="cls-1" x1="221.97" y1="261.87" x2="220.03" y2="261.87"/><line class="cls-1" x1="218.74" y1="261.87" x2="216.81" y2="261.87"/><line class="cls-1" x1="215.52" y1="261.87" x2="213.58" y2="261.87"/><line class="cls-1" x1="212.29" y1="261.87" x2="210.36" y2="261.87"/><line class="cls-1" x1="209.07" y1="261.87" x2="206.49" y2="261.87"/><line class="cls-1" x1="239.05" y1="280.6" x2="239.05" y2="282.5"/><line class="cls-1" x1="239.05" y1="283.14" x2="239.05" y2="285.68"/><line class="cls-1" x1="239.05" y1="286.31" x2="239.05" y2="288.85"/><line class="cls-1" x1="239.05" y1="289.49" x2="239.05" y2="292.03"/><line class="cls-1" x1="239.05" y1="293.3" x2="239.05" y2="295.2"/><line class="cls-1" x1="239.05" y1="296.47" x2="239.05" y2="298.38"/><line class="cls-1" x1="239.05" y1="299.65" x2="239.05" y2="301.55"/><line class="cls-1" x1="239.05" y1="302.82" x2="239.05" y2="304.73"/><line class="cls-1" x1="239.05" y1="306" x2="239.05" y2="307.9"/><line class="cls-1" x1="239.05" y1="309.17" x2="239.05" y2="311.08"/><line class="cls-1" x1="239.2" y1="280.46" x2="240.93" y2="281.24"/><line class="cls-1" x1="241.88" y1="281.74" x2="243.83" y2="282.67"/><line class="cls-1" x1="244.84" y1="283.09" x2="246.79" y2="284.02"/><line class="cls-1" x1="247.73" y1="284.45" x2="249.76" y2="285.37"/><line class="cls-1" x1="250.7" y1="285.87" x2="252.65" y2="286.72"/><line class="cls-1" x1="253.66" y1="287.22" x2="255.62" y2="288.15"/><line class="cls-1" x1="256.55" y1="288.58" x2="258.58" y2="289.5"/><line class="cls-1" x1="259.52" y1="289.93" x2="261.48" y2="290.85"/><line class="cls-1" x1="262.48" y1="291.35" x2="264.44" y2="292.28"/><line class="cls-1" x1="265.38" y1="292.71" x2="267.12" y2="293.49"/><line class="cls-1" x1="239.2" y1="280.46" x2="239.99" y2="281.67"/><line class="cls-1" x1="240.57" y1="282.59" x2="241.73" y2="284.37"/><line class="cls-1" x1="242.31" y1="285.3" x2="243.47" y2="287.08"/><line class="cls-1" x1="244.04" y1="288.01" x2="245.27" y2="289.79"/><line class="cls-1" x1="245.85" y1="290.71" x2="247.01" y2="292.49"/><line class="cls-1" x1="247.59" y1="293.35" x2="248.75" y2="295.2"/><line class="cls-1" x1="249.32" y1="296.05" x2="250.48" y2="297.91"/><line class="cls-1" x1="251.06" y1="298.76" x2="252.29" y2="300.61"/><line class="cls-1" x1="252.87" y1="301.47" x2="254.02" y2="303.24"/><line class="cls-1" x1="254.6" y1="304.17" x2="255.76" y2="305.95"/><line class="cls-1" x1="256.34" y1="306.87" x2="257.5" y2="308.66"/><line class="cls-1" x1="258.08" y1="309.58" x2="258.87" y2="310.79"/><line class="cls-1" x1="239.2" y1="280.46" x2="238.19" y2="280.96"/><line class="cls-1" x1="237.18" y1="281.46" x2="235.22" y2="282.31"/><line class="cls-1" x1="234.28" y1="282.81" x2="232.33" y2="283.73"/><line class="cls-1" x1="231.32" y1="284.16" x2="229.36" y2="285.09"/><line class="cls-1" x1="228.35" y1="285.51" x2="226.4" y2="286.44"/><line class="cls-1" x1="225.46" y1="286.94" x2="223.51" y2="287.86"/><line class="cls-1" x1="222.49" y1="288.29" x2="220.54" y2="289.22"/><line class="cls-1" x1="219.53" y1="289.64" x2="217.58" y2="290.57"/><line class="cls-1" x1="216.64" y1="291" x2="214.68" y2="291.92"/><line class="cls-1" x1="213.67" y1="292.42" x2="211.71" y2="293.35"/><line class="cls-1" x1="210.7" y1="293.77" x2="208.75" y2="294.7"/><line class="cls-1" x1="207.81" y1="295.13" x2="206.73" y2="295.63"/><line class="cls-1" x1="239.2" y1="280.46" x2="238.19" y2="282.38"/><line class="cls-1" x1="237.68" y1="283.38" x2="236.67" y2="285.23"/><line class="cls-1" x1="236.16" y1="286.16" x2="235.15" y2="288.08"/><line class="cls-1" x1="234.64" y1="289" x2="233.63" y2="290.92"/><line class="cls-1" x1="233.13" y1="291.85" x2="232.11" y2="293.77"/><line class="cls-1" x1="231.61" y1="294.7" x2="230.59" y2="296.55"/><line class="cls-1" x1="230.09" y1="297.55" x2="229.07" y2="299.4"/><line class="cls-1" x1="228.57" y1="300.33" x2="227.56" y2="302.25"/><line class="cls-1" x1="227.05" y1="303.17" x2="226.04" y2="305.1"/><line class="cls-1" x1="225.53" y1="306.02" x2="224.52" y2="307.94"/><line class="cls-1" x1="224.01" y1="308.87" x2="223" y2="310.79"/><line class="cls-1" x1="206.17" y1="258.38" x2="206.17" y2="260.28"/><line class="cls-1" x1="206.17" y1="261.55" x2="206.17" y2="263.46"/><line class="cls-1" x1="206.17" y1="264.73" x2="206.17" y2="266.63"/><line class="cls-1" x1="206.17" y1="267.9" x2="206.17" y2="269.81"/><line class="cls-1" x1="206.17" y1="271.07" x2="206.17" y2="272.98"/><line class="cls-1" x1="206.17" y1="274.25" x2="206.17" y2="276.15"/><line class="cls-1" x1="206.17" y1="277.42" x2="206.17" y2="279.33"/><line class="cls-1" x1="206.17" y1="280.6" x2="206.17" y2="282.5"/><line class="cls-1" x1="206.17" y1="283.77" x2="206.17" y2="285.68"/><line class="cls-1" x1="206.17" y1="286.95" x2="206.17" y2="288.85"/><line class="cls-1" x1="206.17" y1="290.12" x2="206.17" y2="292.03"/><line class="cls-1" x1="206.17" y1="293.3" x2="206.17" y2="295.2"/><line class="cls-1" x1="206.17" y1="296.47" x2="206.17" y2="298.38"/><line class="cls-1" x1="206.17" y1="299.65" x2="206.17" y2="302.19"/><line class="cls-1" x1="206.17" y1="302.82" x2="206.17" y2="305.36"/><line class="cls-1" x1="206.17" y1="306" x2="206.17" y2="308.54"/><line class="cls-1" x1="206.17" y1="309.17" x2="206.17" y2="311.08"/><line class="cls-1" x1="206.17" y1="294.57" x2="206.17" y2="293.3"/><line class="cls-1" x1="204.88" y1="258.38" x2="204.88" y2="260.28"/><line class="cls-1" x1="204.88" y1="261.55" x2="204.88" y2="263.46"/><line class="cls-1" x1="204.88" y1="264.73" x2="204.88" y2="266.63"/><line class="cls-1" x1="204.88" y1="267.9" x2="204.88" y2="269.81"/><line class="cls-1" x1="204.88" y1="271.07" x2="204.88" y2="272.98"/><line class="cls-1" x1="204.88" y1="274.25" x2="204.88" y2="276.15"/><line class="cls-1" x1="204.88" y1="277.42" x2="204.88" y2="279.33"/><line class="cls-1" x1="204.88" y1="280.6" x2="204.88" y2="282.5"/><line class="cls-1" x1="204.88" y1="283.77" x2="204.88" y2="285.68"/><line class="cls-1" x1="204.88" y1="286.95" x2="204.88" y2="288.85"/><line class="cls-1" x1="204.88" y1="290.12" x2="204.88" y2="292.03"/><line class="cls-1" x1="204.88" y1="293.3" x2="204.88" y2="295.2"/><line class="cls-1" x1="204.88" y1="296.47" x2="204.88" y2="298.38"/><line class="cls-1" x1="204.88" y1="299.65" x2="204.88" y2="302.19"/><line class="cls-1" x1="204.88" y1="302.82" x2="204.88" y2="305.36"/><line class="cls-1" x1="204.88" y1="306" x2="204.88" y2="308.54"/><line class="cls-1" x1="204.88" y1="309.17" x2="204.88" y2="311.08"/><line class="cls-1" x1="204.88" y1="257.74" x2="204.88" y2="259.65"/><line class="cls-1" x1="204.88" y1="260.92" x2="204.88" y2="263.46"/><line class="cls-1" x1="204.88" y1="264.09" x2="204.88" y2="266.63"/><line class="cls-1" x1="204.88" y1="267.27" x2="204.88" y2="269.81"/><line class="cls-1" x1="204.88" y1="270.44" x2="204.88" y2="272.98"/><line class="cls-1" x1="204.88" y1="273.61" x2="204.88" y2="276.15"/><line class="cls-1" x1="204.88" y1="276.79" x2="204.88" y2="279.33"/><line class="cls-1" x1="204.88" y1="279.96" x2="204.88" y2="282.5"/><line class="cls-1" x1="204.88" y1="283.14" x2="204.88" y2="285.68"/><line class="cls-1" x1="204.88" y1="286.95" x2="204.88" y2="288.85"/><line class="cls-1" x1="204.88" y1="290.12" x2="204.88" y2="292.03"/><line class="cls-1" x1="204.88" y1="293.3" x2="204.88" y2="295.2"/><line class="cls-1" x1="204.88" y1="296.47" x2="204.88" y2="298.38"/><line class="cls-1" x1="204.88" y1="299.65" x2="204.88" y2="301.55"/><line class="cls-1" x1="204.88" y1="302.82" x2="204.88" y2="304.73"/><line class="cls-1" x1="204.88" y1="306" x2="204.88" y2="307.9"/><line class="cls-1" x1="204.88" y1="309.17" x2="204.88" y2="311.08"/><line class="cls-1" x1="240.34" y1="262.82" x2="240.34" y2="204.35"/><line class="cls-1" x1="271.62" y1="233.3" x2="240.67" y2="233.3"/><line class="cls-1" x1="271.62" y1="280.28" x2="258.72" y2="280.28"/><line class="cls-1" x1="271.62" y1="270.76" x2="249.05" y2="270.76"/><line class="cls-1" x1="271.62" y1="261.87" x2="240.67" y2="261.87"/><line class="cls-1" x1="271.62" y1="252.34" x2="240.67" y2="252.34"/><line class="cls-1" x1="271.62" y1="242.82" x2="240.67" y2="242.82"/><line class="cls-1" x1="271.29" y1="292.9" x2="239.2" y2="261.3"/><line class="cls-1" x1="271.25" y1="297.56" x2="239.2" y2="266.07"/><line class="cls-1" x1="239.2" y1="265.99" x2="238.9" y2="204.35"/><polyline class="cls-1" points="271.62 223.77 240.93 223.77 238.73 223.77"/><line class="cls-1" x1="261.94" y1="223.77" x2="260.66" y2="223.77"/><polyline class="cls-1" points="272 214.04 241.32 214.04 239.11 214.04"/><polyline class="cls-1" points="272 204.35 241.32 204.35 239.11 204.35"/><polyline class="cls-1" points="97.64 30.32 95.11 30.32 95.11 27.14 97.64 27.14 97.64 30.63"/><line class="cls-1" x1="95.11" y1="28.76" x2="68.41" y2="28.76"/><polygon class="cls-1" points="68.41 30.32 68.41 30.32 66.5 30.32 66.5 27.14 68.41 27.14 68.41 30.32"/><polyline class="cls-1" points="66.82 30.32 64.6 30.32 64.6 27.14 66.5 27.14 66.5 30.32"/><line class="cls-1" x1="64.6" y1="28.76" x2="38.6" y2="28.76"/><polygon class="cls-1" points="38.6 30.32 38.6 30.32 36.69 30.32 36.69 27.14 38.6 27.14 38.6 30.32"/><rect class="cls-1" x="38.6" y="27.14" width="26" height="3.17"/><rect class="cls-1" x="68.41" y="27.14" width="26.7" height="3.17"/><polyline class="cls-1" points="239.87 30.18 237.33 30.18 237.33 27.01 239.87 27.01 239.87 30.5"/><line class="cls-1" x1="237.33" y1="28.63" x2="193.06" y2="28.63"/><polygon class="cls-1" points="193.06 30.18 193.06 30.18 191.16 30.18 191.16 27.01 193.06 27.01 193.06 30.18"/><polygon class="cls-1" points="150.98 27.01 150.98 27.01 149.07 27.01 149.07 30.18 150.98 30.18 150.98 27.01"/><polyline class="cls-1" points="208.65 33.64 206.62 33.64 206.62 30.47 208.65 30.47 208.65 33.64"/><line class="cls-1" x1="206.62" y1="32.05" x2="167" y2="32.05"/><polyline class="cls-1" points="167 33.64 167 33.64 164.3 33.64 164.3 30.47 167 30.47 167 33.64"/><rect class="cls-1" x="167" y="30.47" width="39.62" height="3.17"/><rect class="cls-1" x="150.98" y="27.01" width="40.18" height="3.17"/><rect class="cls-1" x="193.06" y="27.01" width="44.27" height="3.17"/><path class="cls-1" d="M170.57,316.69c0,16.74-13.38,30.79-30.1,30.79"/><rect class="cls-1" x="131.85" y="313.36" width="46.99" height="38.72"/><polyline class="cls-2" points="8.75 312.09 8.75 335.59 184.63 335.59 184.63 322.89"/></g><path class="cls-3" d="M17.92,73.85a2.89,2.89,0,1,1,2.88,2.89,2.88,2.88,0,0,1-2.88-2.89"/><path class="cls-3" d="M17.14,83.18a3.53,3.53,0,1,1,3.52,3.53,3.53,3.53,0,0,1-3.52-3.53"/><path class="cls-3" d="M18.49,83.18a2.18,2.18,0,1,1,2.17,2.17,2.17,2.17,0,0,1-2.17-2.17"/><path class="cls-3" d="M19.28,73.85a1.53,1.53,0,1,1,1.52,1.53,1.52,1.52,0,0,1-1.52-1.53"/><path class="cls-3" d="M26.4,83.46a4,4,0,1,1,4,4,4,4,0,0,1-4-4"/><path class="cls-3" d="M30,73.92a1.53,1.53,0,1,1,1.53,1.53A1.53,1.53,0,0,1,30,73.92"/><path class="cls-3" d="M28.68,73.92a2.89,2.89,0,1,1,2.88,2.89,2.88,2.88,0,0,1-2.88-2.89"/><path class="cls-3" d="M27.75,83.46a2.67,2.67,0,1,1,2.67,2.68,2.68,2.68,0,0,1-2.67-2.68"/><rect class="cls-3" x="16.37" y="69.55" width="19.05" height="18.41"/><line class="cls-3" x1="50.98" y1="41.29" x2="58.28" y2="41.29"/><line class="cls-3" x1="50.98" y1="42.56" x2="58.28" y2="42.56"/><line class="cls-3" x1="50.98" y1="44.47" x2="58.28" y2="44.47"/><line class="cls-3" x1="50.98" y1="46.37" x2="58.28" y2="46.37"/><line class="cls-3" x1="50.98" y1="47.64" x2="58.28" y2="47.64"/><line class="cls-3" x1="50.98" y1="49.55" x2="58.28" y2="49.55"/><line class="cls-3" x1="50.98" y1="50.82" x2="58.28" y2="50.82"/><line class="cls-3" x1="50.98" y1="39.39" x2="58.28" y2="39.39"/><line class="cls-3" x1="50.98" y1="52.72" x2="58.28" y2="52.72"/><line class="cls-3" x1="83.68" y1="35.9" x2="83.68" y2="55.9"/><line class="cls-3" x1="116.06" y1="55.9" x2="116.06" y2="35.9"/><line class="cls-3" x1="58.28" y1="55.9" x2="58.28" y2="35.58"/><line class="cls-3" x1="43.36" y1="55.9" x2="58.6" y2="55.9"/><line class="cls-3" x1="36.06" y1="55.9" x2="36.08" y2="98.92"/><polyline class="cls-3" points="43.04 55.9 43.04 35.58 48.84 35.58 83.68 35.58 83.68 55.9 48.76 55.9 48.76 35.58"/><line class="cls-3" x1="36.06" y1="55.9" x2="116.06" y2="55.9"/><rect class="cls-3" x="83.68" y="75.45" width="33.02" height="44.1"/><rect class="cls-3" x="121.14" y="81.17" width="11.43" height="12.06"/><rect class="cls-3" x="121.14" y="104.95" width="11.43" height="12.06"/><rect class="cls-3" x="68.44" y="104.95" width="11.43" height="12.06"/><rect class="cls-3" x="68.44" y="81.17" width="11.43" height="12.06"/><polyline class="cls-3" points="236.75 53.65 218.25 53.73 218.34 72.23 236.84 72.15 236.75 53.65"/><polyline class="cls-3" points="218.3 67.19 213.77 67.22 213.67 50.88 218.2 50.85 218.3 67.19"/><polyline class="cls-3" points="236.8 67.1 241.4 67.05 241.3 50.72 236.77 50.74 236.8 67.1"/><polyline class="cls-3" points="236.75 53.65 218.25 53.73 218.24 48.01 236.73 47.93 236.75 53.65"/><rect class="cls-3" x="214.55" y="84.22" width="25.51" height="41.46"/><rect class="cls-3" x="259.03" y="72.88" width="9.52" height="59.68"/><rect class="cls-3" x="264.11" y="93.2" width="1.27" height="24.13"/><polyline class="cls-3" points="180.5 130.34 180.5 75.11 174.16 75.11 174.16 130.34 181.1 130.34 199.55 130.34 199.55 93.52 199.55 93.52 199.55 75.11 199.55 75.11 180.5 75.11 180.5 130.03"/><polyline class="cls-3" points="198.6 75.11 179.23 75.11 179.23 70.03 198.28 70.03 198.28 75.11"/><polyline class="cls-3" points="198.6 130.34 179.23 130.34 179.23 135.42 198.28 135.42 198.28 130.34"/><line class="cls-3" x1="180.5" y1="111.93" x2="199.55" y2="111.93"/><line class="cls-3" x1="180.5" y1="93.52" x2="199.55" y2="93.52"/><path class="cls-3" d="M261.85,150.91a3.08,3.08,0,0,1,.32.69"/><path class="cls-3" d="M261.5,151.15a3.15,3.15,0,0,1,.27.59"/><path class="cls-3" d="M261.84,152a1.57,1.57,0,0,1,0,.23"/><path class="cls-3" d="M262.26,151.92a3,3,0,0,1,.06.43"/><path class="cls-3" d="M262.05,153.89a3.11,3.11,0,0,1-.88,1.15"/><path class="cls-3" d="M261.63,153.77a2.69,2.69,0,0,1-.73.94"/><path class="cls-3" d="M260.52,155.45a3.11,3.11,0,0,1-1.67.29"/><path class="cls-3" d="M260.34,155.07a2.83,2.83,0,0,1-1.52.24"/><path class="cls-3" d="M257,154.24a2.74,2.74,0,0,1-.48-1"/><path class="cls-3" d="M256.66,154.53a3.11,3.11,0,0,1-.59-1.26"/><path class="cls-3" d="M256.43,152.8a2.65,2.65,0,0,1,.17-1.18"/><path class="cls-3" d="M256,152.82a3.32,3.32,0,0,1,.21-1.39"/><path class="cls-3" d="M256.71,151.36a2.9,2.9,0,0,1,.55-.75"/><path class="cls-3" d="M256.35,151.13a3.16,3.16,0,0,1,.62-.83"/><path class="cls-3" d="M257.48,150.43l.13-.1"/><path class="cls-3" d="M257.22,150.08l.15-.1"/><path class="cls-3" d="M257.76,150.23l.16-.09"/><path class="cls-3" d="M257.54,149.86l.23-.12"/><path class="cls-3" d="M258.15,149.59a3.11,3.11,0,0,1,1.45-.14"/><path class="cls-3" d="M258.67,149.89a2.78,2.78,0,0,1,.91,0"/><path class="cls-3" d="M260,150a2.76,2.76,0,0,1,1.31.92"/><path class="cls-3" d="M260.17,149.59a3.17,3.17,0,0,1,1.47,1"/><line class="cls-3" x1="258.48" y1="152.2" x2="258.7" y2="152.34"/><polyline class="cls-3" points="253.86 149.99 254.85 150.77 256.85 151.77 258.49 152.34 258.77 152.41"/><polyline class="cls-3" points="254.14 149.42 255.14 150.34 256.99 151.56 258.49 152.2 258.7 152.34"/><line class="cls-3" x1="254.14" y1="149.42" x2="254.14" y2="149.42"/><line class="cls-3" x1="252.51" y1="148.78" x2="254.14" y2="149.42"/><line class="cls-3" x1="257.49" y1="149.7" x2="258.06" y2="150.7"/><line class="cls-3" x1="252.29" y1="139.52" x2="254" y2="143.3"/><line class="cls-3" x1="255.64" y1="147.14" x2="258.13" y2="151.06"/><polyline class="cls-3" points="252.4 139.52 254.22 143.3 254.22 143.37 255.59 146.57"/><line class="cls-3" x1="257.49" y1="149.7" x2="258.06" y2="150.7"/><polyline class="cls-3" points="252.25 139.52 256.12 144.15 256.12 144.22 256.64 146.15"/><line class="cls-3" x1="254.21" y1="158.11" x2="255.85" y2="156.47"/><line class="cls-3" x1="253.57" y1="157.4" x2="255.71" y2="155.9"/><polyline class="cls-3" points="259.19 152.62 257.49 152.77 259.19 152.62 257.34 153.12 254.85 153.41 253.07 152.91"/><polyline class="cls-3" points="251.51 153.41 254.21 152.91 257.49 152.77"/><polyline class="cls-3" points="250.86 142.65 255.07 147.14 257.84 150.91 258.27 151.41"/><polyline class="cls-3" points="252.51 145.43 254.57 147.57 257.7 151.06 258.49 151.84"/><polyline class="cls-3" points="271.3 159.89 267.25 156.12 266.1 155.19"/><line class="cls-3" x1="267.25" y1="156.12" x2="267.25" y2="156.12"/><line class="cls-3" x1="271.3" y1="159.89" x2="267.25" y2="156.12"/><line class="cls-3" x1="266.18" y1="156.97" x2="265.53" y2="156.19"/><line class="cls-3" x1="266.18" y1="156.97" x2="266.18" y2="156.97"/><line class="cls-3" x1="271.3" y1="159.89" x2="266.18" y2="156.97"/><polyline class="cls-3" points="259.19 152.62 261.26 156.9 259.19 152.62 261.83 155.83 263.11 157.68"/><line class="cls-3" x1="262.19" y1="158.25" x2="261.26" y2="156.9"/><line class="cls-3" x1="272.51" y1="156.83" x2="268.24" y2="154.83"/><polyline class="cls-3" points="272.51 156.74 268.24 154.66 268.17 154.66 266.67 153.13"/><polyline class="cls-3" points="268.45 153.84 265.18 153.62 264.39 153.91"/><line class="cls-3" x1="268.45" y1="153.84" x2="268.45" y2="153.84"/><line class="cls-3" x1="272.51" y1="156.83" x2="268.45" y2="153.84"/><line class="cls-3" x1="261.05" y1="151.48" x2="259.98" y2="152.13"/><line class="cls-3" x1="269.6" y1="146.43" x2="264.89" y2="147.92"/><polyline class="cls-3" points="264.89 147.92 264.04 148.78 263.33 149.21 260.91 151.27 259.77 152.13"/><line class="cls-3" x1="264.89" y1="147.92" x2="264.89" y2="147.92"/><line class="cls-3" x1="269.6" y1="146.43" x2="264.89" y2="147.92"/><polyline class="cls-3" points="269.6 146.15 265.75 148.94 265.68 148.94 264.75 149.64 263.68 149.64 261.05 151.41 259.98 151.95"/><line class="cls-3" x1="271.87" y1="150.63" x2="268.95" y2="150.49"/><polyline class="cls-3" points="271.88 150.49 268.95 150.21 268.88 150.21 266.75 150.42 263.11 151.2 260.69 152.02"/><line class="cls-3" x1="263.18" y1="151.7" x2="261.41" y2="152.13"/><line class="cls-3" x1="269.09" y1="151.48" x2="269.09" y2="151.48"/><line class="cls-3" x1="271.87" y1="150.63" x2="269.09" y2="151.48"/><line class="cls-3" x1="259.84" y1="150.49" x2="259.2" y2="152.62"/><line class="cls-3" x1="262.4" y1="142.65" x2="261.48" y2="143.23"/><polyline class="cls-3" points="262.26 142.65 261.2 143.23 261.2 143.3 259.92 146.93 259.63 148.14 259.59 150.49 259.25 151.91"/><polyline class="cls-3" points="261.97 146 260.55 148.64 260.19 149.56 259.84 150.49 259.19 152.62"/><line class="cls-3" x1="261.97" y1="146" x2="261.97" y2="146"/><line class="cls-3" x1="262.4" y1="142.65" x2="261.97" y2="146"/><line class="cls-3" x1="258.2" y1="153.12" x2="259.2" y2="152.62"/><line class="cls-3" x1="256.35" y1="158.75" x2="257.42" y2="156.97"/><line class="cls-3" x1="259.48" y1="153.41" x2="259.2" y2="152.62"/><line class="cls-3" x1="259.48" y1="153.41" x2="259.48" y2="153.41"/><polyline class="cls-3" points="256.35 158.75 257.42 156.97 257.49 156.9 258.41 155.83 258.49 155.69 259.48 153.41"/><polyline class="cls-3" points="256.35 158.75 255.78 156.4 255.64 155.76 256.35 154.9 256.42 154.65 258.13 152.75 258.2 152.75 259.19 152.44 259.84 153.03"/><line class="cls-3" x1="264.04" y1="152.55" x2="262.62" y2="152.41"/><line class="cls-3" x1="259.62" y1="152.13" x2="259.2" y2="152.62"/><line class="cls-3" x1="259.62" y1="152.13" x2="259.62" y2="152.13"/><polyline class="cls-3" points="264.04 152.4 262.62 152.12 262.48 152.12 261.55 152.12 261.48 152.12 259.62 152.12"/><line class="cls-3" x1="259.84" y1="153.12" x2="259.2" y2="152.62"/><line class="cls-3" x1="259.84" y1="153.12" x2="259.84" y2="153.12"/><polyline class="cls-3" points="264.04 152.55 262.69 153.69 262.33 153.79 261.55 153.39 261.48 153.39 259.84 152.93"/><line class="cls-3" x1="259.34" y1="151.98" x2="259.2" y2="152.62"/><line class="cls-3" x1="257.63" y1="149.35" x2="258.06" y2="150.34"/><line class="cls-3" x1="258.77" y1="152.41" x2="259.2" y2="152.62"/><line class="cls-3" x1="258.77" y1="152.41" x2="258.77" y2="152.41"/><polyline class="cls-3" points="257.63 149.35 258.06 150.34 258.13 151.2 258.2 151.27 258.77 152.41"/><line class="cls-3" x1="259.34" y1="151.98" x2="259.2" y2="152.62"/><line class="cls-3" x1="259.34" y1="151.98" x2="259.34" y2="151.98"/><line class="cls-3" x1="259.27" y1="150.7" x2="259.34" y2="151.98"/><line class="cls-3" x1="259.27" y1="150.7" x2="259.27" y2="150.7"/><polyline class="cls-3" points="257.63 149.35 258.84 149.92 259.13 150.06 259.27 150.7"/><line class="cls-3" x1="255.42" y1="146.57" x2="255.64" y2="147.14"/><line class="cls-3" x1="256.7" y1="146.15" x2="257.49" y2="149.7"/><line class="cls-3" x1="269.09" y1="151.48" x2="263.18" y2="151.7"/><line class="cls-3" x1="266.67" y1="153.26" x2="263.68" y2="152.91"/><line class="cls-3" x1="266.1" y1="155.19" x2="263.4" y2="153.12"/><line class="cls-3" x1="265.53" y1="156.19" x2="261.97" y2="153.84"/><line class="cls-3" x1="257.42" y1="157.96" x2="257.56" y2="156.83"/><line class="cls-3" x1="259.2" y1="158.32" x2="258.77" y2="154.98"/><line class="cls-3" x1="252.51" y1="148.78" x2="253.86" y2="149.99"/><line class="cls-3" x1="253.86" y1="149.99" x2="253.86" y2="149.99"/><line class="cls-3" x1="252.51" y1="148.78" x2="253.86" y2="149.99"/><polyline class="cls-3" points="253.64 158.53 253.72 158.53 254.21 158.11"/><line class="cls-3" x1="252.93" y1="157.61" x2="253.57" y2="157.4"/><line class="cls-3" x1="252.93" y1="157.61" x2="252.93" y2="157.61"/><line class="cls-3" x1="257.63" y1="159.17" x2="257.42" y2="157.96"/><line class="cls-3" x1="257.99" y1="164.59" x2="257.63" y2="159.25"/><polyline class="cls-3" points="258 164.59 259.3 159.75 259.3 159.67 259.22 158.32"/><polyline class="cls-3" points="249.87 150.56 249.94 150.63 253.07 152.91"/><polyline class="cls-3" points="248.96 142.08 250.41 142.3 250.41 142.37 250.79 142.65"/><polyline class="cls-3" points="249.01 141.91 249.3 143.23 249.37 143.23 252.51 145.17"/><line class="cls-3" x1="263.61" y1="164.23" x2="264.32" y2="160.74"/><polyline class="cls-3" points="264.32 160.74 263.82 158.89 263.11 157.68"/><line class="cls-3" x1="264.32" y1="160.74" x2="264.32" y2="160.74"/><line class="cls-3" x1="263.61" y1="164.23" x2="264.32" y2="160.74"/><polyline class="cls-3" points="263.47 164.23 262.47 161.53 262.47 161.46 262.48 159.46 262.05 158.25"/><polyline class="cls-3" points="251.51 153.41 249.3 150.99 247.88 148.71 249.87 150.56"/><line class="cls-3" x1="246.59" y1="159.25" x2="251.65" y2="157.68"/><line class="cls-3" x1="251.72" y1="157.68" x2="252.93" y2="157.61"/><polyline class="cls-3" points="246.59 159.25 249.87 159.32 251.58 159.39 253.64 158.53"/><polyline class="cls-3" points="236.57 154.74 218.07 154.59 218.22 136.1 236.71 136.24 236.57 154.74"/><polyline class="cls-3" points="218.23 141.16 213.64 141.1 213.55 157.46 218.08 157.5 218.23 141.16"/><polyline class="cls-3" points="236.73 141.31 241.26 141.35 241.1 157.69 236.57 157.64 236.73 141.31"/><polyline class="cls-3" points="236.57 154.74 218.07 154.59 218.01 160.38 236.51 160.53 236.57 154.74"/><polyline class="cls-3" points="15.76 99.23 15.76 119.23 36.08 119.23 36.08 98.92 15.76 98.92"/><line class="cls-3" x1="18.3" y1="98.92" x2="18.3" y2="119.23"/><line class="cls-3" x1="34.81" y1="119.23" x2="34.81" y2="98.92"/><polyline class="cls-3" points="36.08 101.45 37.03 101.45 37.03 102.72 36.08 102.72"/><rect class="cls-3" x="112.72" y="297.51" width="29.47" height="2.43"/><path class="cls-3" d="M142.19,297.51v-.65c0-13-14-25.15-26.59-25.15h-2.88"/><rect class="cls-3" x="150.95" y="242.92" width="31" height="2.55"/><path class="cls-3" d="M151,242.92v-.67c0-13.69,14.68-26.46,28-26.46h3"/><rect class="cls-3" x="162.34" y="253.3" width="2.36" height="28.58"/><path class="cls-3" d="M162.34,281.88h-.63c-12.62,0-24.4-13.53-24.4-25.79V253.3"/><g id="mury"><path class="cls-4" d="M15.1,119.71V147H25.9v-27.3Zm0,3.81h6.35v19H15.1Z"/><line class="cls-4" x1="8.12" y1="312.73" x2="8.12" y2="312.73"/><line class="cls-4" x1="9.07" y1="312.41" x2="9.07" y2="312.41"/><line class="cls-4" x1="8.12" y1="34.63" x2="8.12" y2="34.63"/><line class="cls-4" x1="8.12" y1="312.73" x2="8.12" y2="312.73"/><line class="cls-4" x1="8.12" y1="34.63" x2="8.12" y2="34.63"/><line class="cls-4" x1="7.17" y1="33.99" x2="7.8" y2="33.99"/><line class="cls-4" x1="25.9" y1="120.03" x2="25.9" y2="125.74"/><line class="cls-4" x1="149.39" y1="27.01" x2="150.03" y2="27.01"/><polygon class="cls-4" points="97.01 35.26 97.01 27.01 95.03 27.01 95.03 23.2 149.71 23.2 149.71 27.01 149.07 27.01 149.07 35.26 97.01 35.26"/><line class="cls-4" x1="278.56" y1="42.34" x2="278.56" y2="42.34"/><line class="cls-4" x1="280.91" y1="123.1" x2="280.91" y2="123.1"/><polygon class="cls-4" points="110.34 300.38 110.34 311.46 101.45 311.46 101.45 322.36 138.28 322.36 138.28 311.46 116.69 311.46 116.69 300.38 110.34 300.38"/><polygon class="cls-4" points="116.69 270.55 116.69 256.23 137.01 256.23 137.01 252.42 116.69 252.42 116.69 119.71 25.9 119.71 25.9 126.06 110.34 126.06 110.34 270.55 116.69 270.55"/><line class="cls-4" x1="9.07" y1="34.31" x2="9.07" y2="34.31"/><line class="cls-4" x1="131.61" y1="23.2" x2="133.52" y2="23.2"/><line class="cls-4" x1="131.61" y1="35.26" x2="133.52" y2="35.26"/><line class="cls-4" x1="131.61" y1="35.26" x2="133.52" y2="35.26"/><polygon class="cls-4" points="38.6 23.2 38.6 27.01 37.33 27.01 37.33 35.26 15.1 35.26 15.1 119.75 15.1 311.46 27.17 311.46 27.17 322.36 15.1 322.36 0.5 322.36 0.5 23.2 38.6 23.2"/><polygon class="cls-4" points="228.57 322.89 171.93 322.89 171.93 311.46 198.94 311.46 199.71 256.23 165.1 256.23 165.1 252.42 178.5 252.42 178.5 245.75 182.78 245.75 182.78 252.42 232.55 252.42 232.55 208.5 183.33 208.12 183.33 214.91 179.05 214.91 179.05 203.78 238.77 203.78 238.77 259.01 206.69 259.01 205.68 311.46 228.57 311.46 228.57 322.89"/><polygon class="cls-4" points="249.81 311.46 271.62 311.46 271.62 221.93 271.62 215.58 271.62 211.25 271.62 215.58 271.62 150.37 271.62 35.26 239.87 35.26 239.87 27.01 238.6 27.01 238.6 23.2 283.05 23.2 283.05 322.89 249.81 322.89 249.81 311.46"/><line class="cls-4" x1="140.47" y1="347.48" x2="140.47" y2="316.37"/><line class="cls-4" x1="139.51" y1="316.55" x2="171.87" y2="316.55"/><line class="cls-4" x1="28.17" y1="313.36" x2="102.77" y2="313.36"/><line class="cls-4" x1="238.92" y1="23.2" x2="150.03" y2="23.2"/><polyline class="cls-1" points="170.91 313.36 170.91 316.54 172.18 316.54 172.18 313.36 171.23 313.36"/><polyline class="cls-1" points="140.47 313.51 140.47 316.68 138.56 316.68 138.56 313.51 140.78 313.51"/><rect class="cls-1" x="217.01" y="252.41" width="3.17" height="1.9"/></g><g id="numerki"><path class="cls-5" d="M205.33,231.79a9,9,0,1,1-9-9A9,9,0,0,1,205.33,231.79Z"/><text class="cls-6" transform="translate(193.54 235)">3</text><path class="cls-5" d="M161.5,141.79a9,9,0,1,1-9-9A9,9,0,0,1,161.5,141.79Z"/><text class="cls-6" transform="translate(149.72 145)">5</text><circle class="cls-5" cx="57.77" cy="206.91" r="8.98"/><text class="cls-6" transform="translate(54.97 210.12)">1</text><path class="cls-5" d="M189.37,295.38a9,9,0,1,1-9-9A9,9,0,0,1,189.37,295.38Z"/><text class="cls-6" transform="translate(177.59 298.58)">2</text><path class="cls-5" d="M141.43,225a9,9,0,1,1-9-9A9,9,0,0,1,141.43,225Z"/><text class="cls-6" transform="translate(129.64 228.15)">4</text></g><polygon class="cls-5" points="164.97 363.84 155.26 346.41 145.47 363.84 164.97 363.84"/><path class="cls-3" d="M230.16,226.88v11.43H221a5.72,5.72,0,1,1,0-11.43Z"/><path class="cls-3" d="M97.65,132.13a.95.95,0,1,1,.95.94.95.95,0,0,1-.95-.94"/><polyline class="cls-3" points="97.64 128.38 97.64 132.13 97.64 128.38"/><line class="cls-3" x1="99.55" y1="132.19" x2="99.55" y2="128.38"/><path class="cls-7" d="M98.6,129.61a.94.94,0,1,0-.95-.94A.94.94,0,0,0,98.6,129.61Z"/><polygon class="cls-3" points="108.44 139.49 108.44 139.49 88.76 139.49 88.76 128.06 108.44 128.06 108.44 139.49"/><polyline class="cls-3" points="97.96 129.96 90.03 129.96 90.03 138.22 107.17 138.22 107.17 129.96 99.87 129.96"/><polyline class="cls-3" points="99.87 129.96 105.26 129.96 105.26 136.31 91.93 136.31 91.93 129.96 97.96 129.96"/><path class="cls-3" d="M196.54,213a.69.69,0,1,1,.69.68.69.69,0,0,1-.69-.68"/><polyline class="cls-3" points="196.75 210.39 196.75 212.96 196.75 210.39"/><line class="cls-3" x1="198.02" y1="212.93" x2="198.02" y2="210.39"/><path class="cls-7" d="M197.23,211.12a.68.68,0,1,0-.69-.68A.69.69,0,0,0,197.23,211.12Z"/><polygon class="cls-3" points="204.37 218.33 204.37 218.33 189.77 218.33 189.77 210.07 204.37 210.07 204.37 218.33"/><polyline class="cls-3" points="196.43 211.34 191.04 211.34 191.04 217.69 203.74 217.69 203.74 211.34 198.34 211.34"/><polyline class="cls-3" points="198.34 211.34 201.83 211.34 201.83 215.79 192.31 215.79 192.31 211.34 196.43 211.34"/><path class="cls-3" d="M68.32,38.73a.54.54,0,1,1-.54-.52.53.53,0,0,1,.54.52"/><path class="cls-3" d="M67.71,39.52a.36.36,0,0,1,.28.15l1,1.66a1,1,0,0,0,.59-.3l-1-1.64a.42.42,0,0,1,0-.33.74.74,0,0,0-.19-.91.85.85,0,0,0-1-.11.77.77,0,0,0-.4.86A.82.82,0,0,0,67.71,39.52Z"/><line class="cls-3" x1="65.74" y1="41.36" x2="67.09" y2="39.17"/><path class="cls-3" d="M64.63,43.16,63.48,45c0,.22.57.53.79.41l3.54-5.84"/><rect class="cls-3" x="69.07" y="40.02" width="12.7" height="12.7" rx="2"/><rect class="cls-3" x="61.45" y="40.02" width="5.08" height="12.7" rx="2"/><path class="cls-3" d="M71.67,42a1.2,1.2,0,0,0,1.23,1.17h0A1.2,1.2,0,0,0,74.13,42h0a1.21,1.21,0,0,0-1.23-1.18h0A1.21,1.21,0,0,0,71.67,42Z"/><path class="cls-3" d="M63.48,42a1.2,1.2,0,0,0,1.23,1.17h0A1.2,1.2,0,0,0,65.94,42h0a1.21,1.21,0,0,0-1.23-1.18h0A1.21,1.21,0,0,0,63.48,42Z"/><line class="cls-1" x1="95.03" y1="23.2" x2="38.6" y2="23.2"/><line class="cls-1" x1="97.01" y1="35.26" x2="37.33" y2="35.26"/><line class="cls-4" x1="229.07" y1="322.89" x2="250.42" y2="322.89"/><line class="cls-4" x1="228.98" y1="311.46" x2="250.3" y2="311.46"/><line class="cls-4" x1="250.3" y1="314.75" x2="229.07" y2="314.75"/><line class="cls-4" x1="250.42" y1="317.36" x2="229.07" y2="317.36"/></g></g></svg>