<svg xmlns="http://www.w3.org/2000/svg" viewBox="0 0 283.55 313.39"><defs><style>.cls-1,.cls-2,.cls-3{fill:none;}.cls-1,.cls-2,.cls-9{stroke:#585553;}.cls-1,.cls-2,.cls-3,.cls-8,.cls-9{stroke-linecap:round;stroke-linejoin:round;}.cls-2{stroke-dasharray:5 2;}.cls-3,.cls-8{stroke:#bdbaba;}.cls-4{fill:#6d9452;}.cls-5,.cls-6{font-size:8.9px;fill:#fff;font-family:FuturaEFCEOP-Heavy;font-weight:800;}.cls-6{letter-spacing:-0.05em;}.cls-7{letter-spacing:0em;}.cls-8{fill:#bdbaba;}.cls-9{fill:#585553;}</style></defs><title>Zasób 4</title><g id="Warstwa_2" data-name="Warstwa 2"><g id="Warstwa_1-2" data-name="Warstwa 1"><g id="linie"><path class="cls-1" d="M15.1,130a2.2,2.2,0,1,1,2.2,2.2,2.2,2.2,0,0,1-2.2-2.2"/><path class="cls-1" d="M15.1,134.64a2.2,2.2,0,1,1,2.2,2.2,2.19,2.19,0,0,1-2.2-2.2"/><path class="cls-1" d="M15.1,139.3a2.2,2.2,0,1,1,2.2,2.19,2.19,2.19,0,0,1-2.2-2.19"/><polyline class="cls-1" points="26.31 294.67 27.9 294.67 27.9 292.13 25.99 292.13 25.99 294.67"/><line class="cls-1" x1="27.58" y1="292.13" x2="101.23" y2="292.13"/><polyline class="cls-1" points="27.58 294.67 101.12 294.67 103.45 294.67 103.45 292.13 100.92 292.13 100.92 294.67"/><polyline class="cls-1" points="103.77 294.67 105.36 294.67 105.36 292.13 103.45 292.13 103.45 294.67"/><polyline class="cls-1" points="24.41 294.67 25.99 294.67 25.99 292.13 24.09 292.13 24.09 294.67"/><line class="cls-1" x1="67.74" y1="292.05" x2="67.74" y2="294.67"/><line class="cls-1" x1="65.52" y1="292.13" x2="65.52" y2="294.67"/><line class="cls-1" x1="240.34" y1="257.9" x2="240.34" y2="255.36"/><line class="cls-1" x1="240.34" y1="254.09" x2="240.34" y2="252.19"/><line class="cls-1" x1="240.34" y1="250.92" x2="240.34" y2="249.01"/><line class="cls-1" x1="240.34" y1="247.74" x2="240.34" y2="245.2"/><line class="cls-1" x1="239.05" y1="257.9" x2="239.05" y2="256"/><line class="cls-1" x1="239.05" y1="254.73" x2="239.05" y2="252.82"/><line class="cls-1" x1="239.05" y1="251.55" x2="239.05" y2="249.65"/><line class="cls-1" x1="239.05" y1="248.38" x2="239.05" y2="246.47"/><line class="cls-1" x1="239.05" y1="245.2" x2="239.05" y2="243.3"/><line class="cls-1" x1="237.12" y1="257.9" x2="237.12" y2="255.36"/><line class="cls-1" x1="237.12" y1="254.73" x2="237.12" y2="252.19"/><line class="cls-1" x1="237.12" y1="250.92" x2="237.12" y2="249.01"/><line class="cls-1" x1="237.12" y1="247.74" x2="237.12" y2="245.84"/><line class="cls-1" x1="237.12" y1="244.57" x2="237.12" y2="242.66"/><line class="cls-1" x1="237.12" y1="241.39" x2="237.12" y2="239.49"/><line class="cls-1" x1="237.12" y1="238.22" x2="237.12" y2="236.31"/><line class="cls-1" x1="237.12" y1="235.04" x2="237.12" y2="233.14"/><line class="cls-1" x1="237.12" y1="231.87" x2="237.12" y2="229.96"/><line class="cls-1" x1="237.12" y1="228.69" x2="237.12" y2="226.79"/><line class="cls-1" x1="237.12" y1="225.52" x2="237.12" y2="223.61"/><line class="cls-1" x1="237.12" y1="222.34" x2="237.12" y2="219.8"/><line class="cls-1" x1="253.56" y1="257.58" x2="251.63" y2="257.58"/><line class="cls-1" x1="250.34" y1="257.58" x2="248.4" y2="257.58"/><line class="cls-1" x1="247.11" y1="257.58" x2="245.18" y2="257.58"/><line class="cls-1" x1="243.89" y1="257.58" x2="241.96" y2="257.58"/><line class="cls-1" x1="240.67" y1="257.58" x2="238.73" y2="257.58"/><line class="cls-1" x1="237.44" y1="257.58" x2="235.51" y2="257.58"/><line class="cls-1" x1="234.22" y1="257.58" x2="232.28" y2="257.58"/><line class="cls-1" x1="230.99" y1="257.58" x2="229.06" y2="257.58"/><line class="cls-1" x1="227.77" y1="257.58" x2="225.83" y2="257.58"/><line class="cls-1" x1="224.54" y1="257.58" x2="222.61" y2="257.58"/><line class="cls-1" x1="221.32" y1="257.58" x2="219.39" y2="257.58"/><line class="cls-1" x1="218.1" y1="257.58" x2="216.16" y2="257.58"/><line class="cls-1" x1="214.87" y1="257.58" x2="212.94" y2="257.58"/><line class="cls-1" x1="211.65" y1="257.58" x2="209.07" y2="257.58"/><line class="cls-1" x1="208.42" y1="257.58" x2="206.49" y2="257.58"/><line class="cls-1" x1="243.89" y1="248.06" x2="242.6" y2="248.06"/><line class="cls-1" x1="241.96" y1="248.06" x2="240.67" y2="248.06"/><line class="cls-1" x1="238.73" y1="248.06" x2="236.15" y2="248.06"/><line class="cls-1" x1="234.86" y1="248.06" x2="232.93" y2="248.06"/><line class="cls-1" x1="231.64" y1="248.06" x2="229.7" y2="248.06"/><line class="cls-1" x1="228.41" y1="248.06" x2="226.48" y2="248.06"/><line class="cls-1" x1="225.19" y1="248.06" x2="223.26" y2="248.06"/><line class="cls-1" x1="221.97" y1="248.06" x2="220.03" y2="248.06"/><line class="cls-1" x1="218.74" y1="248.06" x2="216.81" y2="248.06"/><line class="cls-1" x1="215.52" y1="248.06" x2="213.58" y2="248.06"/><line class="cls-1" x1="212.29" y1="248.06" x2="210.36" y2="248.06"/><line class="cls-1" x1="209.07" y1="248.06" x2="206.49" y2="248.06"/><line class="cls-1" x1="238.73" y1="239.17" x2="236.15" y2="239.17"/><line class="cls-1" x1="234.86" y1="239.17" x2="232.93" y2="239.17"/><line class="cls-1" x1="231.64" y1="239.17" x2="229.7" y2="239.17"/><line class="cls-1" x1="228.41" y1="239.17" x2="226.48" y2="239.17"/><line class="cls-1" x1="225.19" y1="239.17" x2="223.26" y2="239.17"/><line class="cls-1" x1="221.97" y1="239.17" x2="220.03" y2="239.17"/><line class="cls-1" x1="218.74" y1="239.17" x2="216.81" y2="239.17"/><line class="cls-1" x1="215.52" y1="239.17" x2="213.58" y2="239.17"/><line class="cls-1" x1="212.29" y1="239.17" x2="210.36" y2="239.17"/><line class="cls-1" x1="209.07" y1="239.17" x2="206.49" y2="239.17"/><line class="cls-1" x1="239.05" y1="257.9" x2="239.05" y2="259.8"/><line class="cls-1" x1="239.05" y1="260.44" x2="239.05" y2="262.98"/><line class="cls-1" x1="239.05" y1="263.61" x2="239.05" y2="266.15"/><line class="cls-1" x1="239.05" y1="266.79" x2="239.05" y2="269.33"/><line class="cls-1" x1="239.05" y1="270.6" x2="239.05" y2="272.5"/><line class="cls-1" x1="239.05" y1="273.77" x2="239.05" y2="275.68"/><line class="cls-1" x1="239.05" y1="276.95" x2="239.05" y2="278.85"/><line class="cls-1" x1="239.05" y1="280.12" x2="239.05" y2="282.03"/><line class="cls-1" x1="239.05" y1="283.3" x2="239.05" y2="285.2"/><line class="cls-1" x1="239.05" y1="286.47" x2="239.05" y2="288.38"/><line class="cls-1" x1="239.2" y1="257.76" x2="240.93" y2="258.54"/><line class="cls-1" x1="241.88" y1="259.04" x2="243.83" y2="259.97"/><line class="cls-1" x1="244.84" y1="260.39" x2="246.79" y2="261.32"/><line class="cls-1" x1="247.73" y1="261.75" x2="249.76" y2="262.67"/><line class="cls-1" x1="250.7" y1="263.17" x2="252.65" y2="264.02"/><line class="cls-1" x1="253.66" y1="264.52" x2="255.62" y2="265.45"/><line class="cls-1" x1="256.55" y1="265.88" x2="258.58" y2="266.8"/><line class="cls-1" x1="259.52" y1="267.23" x2="261.48" y2="268.15"/><line class="cls-1" x1="262.48" y1="268.65" x2="264.44" y2="269.58"/><line class="cls-1" x1="265.38" y1="270.01" x2="267.12" y2="270.79"/><line class="cls-1" x1="239.2" y1="257.76" x2="239.99" y2="258.97"/><line class="cls-1" x1="240.57" y1="259.9" x2="241.73" y2="261.68"/><line class="cls-1" x1="242.31" y1="262.6" x2="243.47" y2="264.38"/><line class="cls-1" x1="244.04" y1="265.31" x2="245.27" y2="267.09"/><line class="cls-1" x1="245.85" y1="268.02" x2="247.01" y2="269.79"/><line class="cls-1" x1="247.59" y1="270.65" x2="248.75" y2="272.5"/><line class="cls-1" x1="249.32" y1="273.35" x2="250.48" y2="275.21"/><line class="cls-1" x1="251.06" y1="276.06" x2="252.29" y2="277.91"/><line class="cls-1" x1="252.87" y1="278.77" x2="254.02" y2="280.55"/><line class="cls-1" x1="254.6" y1="281.47" x2="255.76" y2="283.25"/><line class="cls-1" x1="256.34" y1="284.18" x2="257.5" y2="285.96"/><line class="cls-1" x1="258.08" y1="286.88" x2="258.87" y2="288.1"/><line class="cls-1" x1="239.2" y1="257.76" x2="238.19" y2="258.26"/><line class="cls-1" x1="237.18" y1="258.76" x2="235.22" y2="259.61"/><line class="cls-1" x1="234.28" y1="260.11" x2="232.33" y2="261.03"/><line class="cls-1" x1="231.32" y1="261.46" x2="229.36" y2="262.39"/><line class="cls-1" x1="228.35" y1="262.81" x2="226.4" y2="263.74"/><line class="cls-1" x1="225.46" y1="264.24" x2="223.51" y2="265.17"/><line class="cls-1" x1="222.49" y1="265.59" x2="220.54" y2="266.52"/><line class="cls-1" x1="219.53" y1="266.95" x2="217.58" y2="267.87"/><line class="cls-1" x1="216.64" y1="268.3" x2="214.68" y2="269.22"/><line class="cls-1" x1="213.67" y1="269.72" x2="211.71" y2="270.65"/><line class="cls-1" x1="210.7" y1="271.07" x2="208.75" y2="272"/><line class="cls-1" x1="207.81" y1="272.43" x2="206.73" y2="272.93"/><line class="cls-1" x1="239.2" y1="257.76" x2="238.19" y2="259.68"/><line class="cls-1" x1="237.68" y1="260.68" x2="236.67" y2="262.53"/><line class="cls-1" x1="236.16" y1="263.46" x2="235.15" y2="265.38"/><line class="cls-1" x1="234.64" y1="266.3" x2="233.63" y2="268.23"/><line class="cls-1" x1="233.13" y1="269.15" x2="232.11" y2="271.07"/><line class="cls-1" x1="231.61" y1="272" x2="230.59" y2="273.85"/><line class="cls-1" x1="230.09" y1="274.85" x2="229.07" y2="276.7"/><line class="cls-1" x1="228.57" y1="277.63" x2="227.56" y2="279.55"/><line class="cls-1" x1="227.05" y1="280.47" x2="226.04" y2="282.4"/><line class="cls-1" x1="225.53" y1="283.32" x2="224.52" y2="285.25"/><line class="cls-1" x1="224.01" y1="286.17" x2="223" y2="288.1"/><line class="cls-1" x1="206.17" y1="220.12" x2="206.17" y2="221.71"/><line class="cls-1" x1="206.17" y1="222.34" x2="206.17" y2="224.88"/><line class="cls-1" x1="206.17" y1="225.52" x2="206.17" y2="228.06"/><line class="cls-1" x1="206.17" y1="228.69" x2="206.17" y2="231.23"/><line class="cls-1" x1="206.17" y1="232.5" x2="206.17" y2="234.41"/><line class="cls-1" x1="206.17" y1="235.68" x2="206.17" y2="237.58"/><line class="cls-1" x1="206.17" y1="238.85" x2="206.17" y2="240.76"/><line class="cls-1" x1="206.17" y1="242.03" x2="206.17" y2="243.93"/><line class="cls-1" x1="206.17" y1="245.2" x2="206.17" y2="247.11"/><line class="cls-1" x1="206.17" y1="248.38" x2="206.17" y2="250.28"/><line class="cls-1" x1="206.17" y1="251.55" x2="206.17" y2="253.46"/><line class="cls-1" x1="206.17" y1="254.73" x2="206.17" y2="256.63"/><line class="cls-1" x1="206.17" y1="257.9" x2="206.17" y2="259.8"/><line class="cls-1" x1="206.17" y1="261.07" x2="206.17" y2="262.98"/><line class="cls-1" x1="206.17" y1="264.25" x2="206.17" y2="266.15"/><line class="cls-1" x1="206.17" y1="267.42" x2="206.17" y2="269.33"/><line class="cls-1" x1="206.17" y1="270.6" x2="206.17" y2="272.5"/><line class="cls-1" x1="206.17" y1="273.77" x2="206.17" y2="275.68"/><line class="cls-1" x1="206.17" y1="276.95" x2="206.17" y2="279.49"/><line class="cls-1" x1="206.17" y1="280.12" x2="206.17" y2="282.66"/><line class="cls-1" x1="206.17" y1="283.3" x2="206.17" y2="285.84"/><line class="cls-1" x1="206.17" y1="286.47" x2="206.17" y2="288.38"/><line class="cls-1" x1="238.73" y1="229.65" x2="236.15" y2="229.65"/><line class="cls-1" x1="234.86" y1="229.65" x2="232.93" y2="229.65"/><line class="cls-1" x1="231.64" y1="229.65" x2="229.7" y2="229.65"/><line class="cls-1" x1="228.41" y1="229.65" x2="226.48" y2="229.65"/><line class="cls-1" x1="225.19" y1="229.65" x2="223.26" y2="229.65"/><line class="cls-1" x1="221.97" y1="229.65" x2="220.03" y2="229.65"/><line class="cls-1" x1="218.74" y1="229.65" x2="216.81" y2="229.65"/><line class="cls-1" x1="215.52" y1="229.65" x2="213.58" y2="229.65"/><line class="cls-1" x1="212.29" y1="229.65" x2="210.36" y2="229.65"/><line class="cls-1" x1="209.07" y1="229.65" x2="206.49" y2="229.65"/><line class="cls-1" x1="238.73" y1="220.12" x2="236.8" y2="220.12"/><line class="cls-1" x1="236.15" y1="220.12" x2="233.57" y2="220.12"/><line class="cls-1" x1="232.93" y1="220.12" x2="230.35" y2="220.12"/><line class="cls-1" x1="229.7" y1="220.12" x2="227.12" y2="220.12"/><line class="cls-1" x1="225.83" y1="220.12" x2="223.9" y2="220.12"/><line class="cls-1" x1="222.61" y1="220.12" x2="220.68" y2="220.12"/><line class="cls-1" x1="219.39" y1="220.12" x2="217.45" y2="220.12"/><line class="cls-1" x1="216.16" y1="220.12" x2="214.23" y2="220.12"/><line class="cls-1" x1="212.94" y1="220.12" x2="211" y2="220.12"/><line class="cls-1" x1="209.71" y1="220.12" x2="207.78" y2="220.12"/><line class="cls-1" x1="206.49" y1="220.12" x2="204.88" y2="220.12"/><line class="cls-1" x1="232.93" y1="220.12" x2="236.15" y2="220.12"/><line class="cls-1" x1="206.17" y1="271.87" x2="206.17" y2="270.6"/><line class="cls-1" x1="204.88" y1="220.12" x2="204.88" y2="221.71"/><line class="cls-1" x1="204.88" y1="222.34" x2="204.88" y2="224.88"/><line class="cls-1" x1="204.88" y1="225.52" x2="204.88" y2="228.06"/><line class="cls-1" x1="204.88" y1="228.69" x2="204.88" y2="231.23"/><line class="cls-1" x1="204.88" y1="232.5" x2="204.88" y2="234.41"/><line class="cls-1" x1="204.88" y1="235.68" x2="204.88" y2="237.58"/><line class="cls-1" x1="204.88" y1="238.85" x2="204.88" y2="240.76"/><line class="cls-1" x1="204.88" y1="242.03" x2="204.88" y2="243.93"/><line class="cls-1" x1="204.88" y1="245.2" x2="204.88" y2="247.11"/><line class="cls-1" x1="204.88" y1="248.38" x2="204.88" y2="250.28"/><line class="cls-1" x1="204.88" y1="251.55" x2="204.88" y2="253.46"/><line class="cls-1" x1="204.88" y1="254.73" x2="204.88" y2="256.63"/><line class="cls-1" x1="204.88" y1="257.9" x2="204.88" y2="259.8"/><line class="cls-1" x1="204.88" y1="261.07" x2="204.88" y2="262.98"/><line class="cls-1" x1="204.88" y1="264.25" x2="204.88" y2="266.15"/><line class="cls-1" x1="204.88" y1="267.42" x2="204.88" y2="269.33"/><line class="cls-1" x1="204.88" y1="270.6" x2="204.88" y2="272.5"/><line class="cls-1" x1="204.88" y1="273.77" x2="204.88" y2="275.68"/><line class="cls-1" x1="204.88" y1="276.95" x2="204.88" y2="279.49"/><line class="cls-1" x1="204.88" y1="280.12" x2="204.88" y2="282.66"/><line class="cls-1" x1="204.88" y1="283.3" x2="204.88" y2="285.84"/><line class="cls-1" x1="204.88" y1="286.47" x2="204.88" y2="288.38"/><line class="cls-1" x1="204.88" y1="222.34" x2="204.88" y2="224.25"/><line class="cls-1" x1="204.88" y1="225.52" x2="204.88" y2="227.42"/><line class="cls-1" x1="204.88" y1="228.69" x2="204.88" y2="230.6"/><line class="cls-1" x1="204.88" y1="231.87" x2="204.88" y2="233.77"/><line class="cls-1" x1="204.88" y1="235.04" x2="204.88" y2="236.95"/><line class="cls-1" x1="204.88" y1="238.22" x2="204.88" y2="240.76"/><line class="cls-1" x1="204.88" y1="241.39" x2="204.88" y2="243.93"/><line class="cls-1" x1="204.88" y1="244.57" x2="204.88" y2="247.11"/><line class="cls-1" x1="204.88" y1="247.74" x2="204.88" y2="250.28"/><line class="cls-1" x1="204.88" y1="250.92" x2="204.88" y2="253.46"/><line class="cls-1" x1="204.88" y1="254.09" x2="204.88" y2="256.63"/><line class="cls-1" x1="204.88" y1="257.27" x2="204.88" y2="259.8"/><line class="cls-1" x1="204.88" y1="260.44" x2="204.88" y2="262.98"/><line class="cls-1" x1="204.88" y1="264.25" x2="204.88" y2="266.15"/><line class="cls-1" x1="204.88" y1="267.42" x2="204.88" y2="269.33"/><line class="cls-1" x1="204.88" y1="270.6" x2="204.88" y2="272.5"/><line class="cls-1" x1="204.88" y1="273.77" x2="204.88" y2="275.68"/><line class="cls-1" x1="204.88" y1="276.95" x2="204.88" y2="278.85"/><line class="cls-1" x1="204.88" y1="280.12" x2="204.88" y2="282.03"/><line class="cls-1" x1="204.88" y1="283.3" x2="204.88" y2="285.2"/><line class="cls-1" x1="204.88" y1="286.47" x2="204.88" y2="288.38"/><line class="cls-1" x1="240.34" y1="240.12" x2="240.34" y2="201.39"/><line class="cls-1" x1="271.62" y1="210.6" x2="240.67" y2="210.6"/><line class="cls-1" x1="271.62" y1="257.58" x2="258.72" y2="257.58"/><line class="cls-1" x1="271.62" y1="248.06" x2="249.05" y2="248.06"/><line class="cls-1" x1="271.62" y1="239.17" x2="240.67" y2="239.17"/><line class="cls-1" x1="271.62" y1="229.65" x2="240.67" y2="229.65"/><line class="cls-1" x1="271.62" y1="220.12" x2="240.67" y2="220.12"/><line class="cls-1" x1="271.29" y1="270.21" x2="239.2" y2="238.6"/><line class="cls-1" x1="271.25" y1="274.87" x2="239.2" y2="243.37"/><line class="cls-1" x1="239.05" y1="243.3" x2="239.05" y2="201.39"/><polyline class="cls-1" points="271.62 201.07 240.93 201.07 238.73 201.07"/><line class="cls-1" x1="261.94" y1="201.07" x2="260.66" y2="201.07"/><polyline class="cls-1" points="244.87 7.48 242.33 7.48 242.33 4.31 244.87 4.31 244.87 7.8"/><line class="cls-1" x1="242.33" y1="5.9" x2="195.06" y2="5.9"/><polygon class="cls-1" points="195.06 7.48 195.06 7.48 193.16 7.48 193.16 4.31 195.06 4.31 195.06 7.48"/><polygon class="cls-1" points="155.98 4.31 155.98 4.31 154.07 4.31 154.07 7.48 155.98 7.48 155.98 4.31"/><rect class="cls-1" x="155.98" y="4.31" width="37.18" height="3.17"/><rect class="cls-1" x="195.06" y="4.31" width="47.27" height="3.17"/><polyline class="cls-2" points="8.75 289.39 8.75 312.89 184.63 312.89 184.63 300.19"/><path class="cls-1" d="M198.32,205.94a2.2,2.2,0,1,1,2.19,2.2,2.19,2.19,0,0,1-2.19-2.2"/><path class="cls-1" d="M198.32,210.6a2.2,2.2,0,1,1,2.19,2.19,2.19,2.19,0,0,1-2.19-2.19"/><path class="cls-1" d="M198.32,215.25a2.2,2.2,0,1,1,2.19,2.2,2.2,2.2,0,0,1-2.19-2.2"/><rect class="cls-1" x="92.11" y="4.63" width="2.36" height="3.17"/><line class="cls-1" x1="92.11" y1="6.21" x2="66.51" y2="6.21"/><polygon class="cls-1" points="66.51 7.8 66.51 7.8 64.75 7.8 64.75 4.63 66.51 4.63 66.51 7.8"/><polygon class="cls-1" points="39.81 4.63 39.81 4.63 38.04 4.63 38.04 7.8 39.81 7.8 39.81 4.63"/><rect class="cls-1" x="39.81" y="4.63" width="24.94" height="3.17"/><rect class="cls-1" x="66.51" y="4.63" width="25.6" height="3.17"/></g><polyline class="cls-3" points="145.98 201.39 145.98 169.33 143.44 169.33 143.44 201.07 145.98 201.07"/><path class="cls-3" d="M146,169.33h.67c13.61,0,26.31,11,26.31,24.64v3.21"/><g id="numerki"><path class="cls-4" d="M88.61,60.34a9,9,0,1,1-9-9A9,9,0,0,1,88.61,60.34Z"/><text class="cls-5" transform="translate(76.83 63.55)">8</text><path class="cls-4" d="M173.89,241.39a9,9,0,1,1-9-9A9,9,0,0,1,173.89,241.39Z"/><text class="cls-6" transform="translate(159.82 244.6)">1<tspan class="cls-7" x="4.58" y="0">0</tspan></text><circle class="cls-4" cx="222.06" cy="168.79" r="8.98"/><text class="cls-5" transform="translate(219.26 172)">6</text><path class="cls-4" d="M195.14,76.4a9,9,0,1,1-9-9A9,9,0,0,1,195.14,76.4Z"/><text class="cls-5" transform="translate(183.36 79.61)">7</text><path class="cls-4" d="M82.38,229.65a9,9,0,1,1-9-9A9,9,0,0,1,82.38,229.65Z"/><text class="cls-5" transform="translate(70.6 232.85)">9</text></g><path class="cls-3" d="M195.32,268.06v11.43h-9.15a5.72,5.72,0,1,1,0-11.43Z"/><rect class="cls-3" x="195.32" y="266.15" width="6.35" height="15.24"/><path class="cls-3" d="M198.34,242a1,1,0,1,1-.93.95.95.95,0,0,1,.93-.95"/><polyline class="cls-3" points="202.1 242.03 198.34 242.03 202.1 242.03"/><line class="cls-3" x1="198.29" y1="243.93" x2="202.1" y2="243.93"/><path class="cls-8" d="M200.87,243a.94.94,0,1,0,.93-.95A.95.95,0,0,0,200.87,243Z"/><polygon class="cls-3" points="190.99 252.82 190.99 252.82 190.99 233.14 202.42 233.14 202.42 252.82 190.99 252.82"/><polyline class="cls-3" points="200.51 242.34 200.51 234.41 192.26 234.41 192.26 251.55 200.51 251.55 200.51 244.25"/><polyline class="cls-3" points="200.51 244.25 200.51 249.65 194.16 249.65 194.16 236.31 200.51 236.31 200.51 242.34"/><polyline class="cls-3" points="113.73 171.71 81.67 171.71 81.67 169.33 113.42 169.33 113.42 171.71"/><path class="cls-3" d="M81.67,171.71v.63c0,12.78,11,24.7,24.64,24.7h3.21"/><polyline class="cls-3" points="142.72 146.02 142.72 113.96 145.26 113.96 145.26 145.7 142.72 145.7"/><path class="cls-3" d="M142.72,114h-.67c-13.61,0-26.31,11-26.31,24.64v3.21"/><polyline class="cls-3" points="155.57 146.02 155.57 113.96 153.03 113.96 153.03 145.7 155.57 145.7"/><path class="cls-3" d="M155.57,114h.67c13.61,0,26.3,11,26.3,24.64v3.21"/><g id="mury"><path class="cls-9" d="M15.1,125.33v19h7.51v-19Zm0,2.65h4.42v13.25H15.1Z"/><line class="cls-9" x1="8.12" y1="290.03" x2="8.12" y2="290.03"/><line class="cls-9" x1="9.07" y1="289.71" x2="9.07" y2="289.71"/><line class="cls-9" x1="8.12" y1="11.93" x2="8.12" y2="11.93"/><line class="cls-9" x1="8.12" y1="290.03" x2="8.12" y2="290.03"/><line class="cls-9" x1="8.12" y1="11.93" x2="8.12" y2="11.93"/><line class="cls-9" x1="7.17" y1="11.29" x2="7.8" y2="11.29"/><line class="cls-9" x1="149.39" y1="4.31" x2="150.03" y2="4.31"/><polygon class="cls-9" points="95.01 12.56 95.01 0.5 154.71 0.5 154.71 12.56 149.07 12.56 149.07 142.91 153.03 142.91 153.03 147.41 146.06 147.41 146.06 142.91 146.84 142.91 146.84 12.56 95.01 12.56"/><line class="cls-9" x1="278.56" y1="19.64" x2="278.56" y2="19.64"/><line class="cls-9" x1="280.91" y1="100.4" x2="280.91" y2="100.4"/><polygon class="cls-9" points="110.34 197.18 110.34 278.6 110.14 288.76 101.45 288.76 101.45 300.19 153.03 300.19 153.03 288.76 138.28 288.76 116.69 288.76 116.57 201.4 143.14 201.38 143.26 197.25 116.69 197.25 110.34 197.18"/><polygon class="cls-9" points="113.77 169.01 113.77 153.43 116.69 153.43 116.69 143.1 15.1 143.1 15.1 147.21 110.34 147.21 110.34 169.01 113.77 169.01"/><line class="cls-9" x1="9.07" y1="11.61" x2="9.07" y2="11.61"/><line class="cls-9" x1="131.61" y1="0.5" x2="133.52" y2="0.5"/><line class="cls-9" x1="131.61" y1="12.56" x2="133.52" y2="12.56"/><line class="cls-9" x1="131.61" y1="12.56" x2="133.52" y2="12.56"/><polygon class="cls-9" points="37.6 0.5 37.6 12.56 15.1 12.56 15.1 97.05 15.1 288.76 27.17 288.76 27.17 300.19 0.5 300.19 0.5 0.5 37.6 0.5"/><polygon class="cls-9" points="228.57 300.19 199.87 300.19 173.84 300.19 173.84 288.76 185.27 288.76 203.07 288.76 203.07 201.38 173.01 201.38 173.01 197.25 203.07 197.25 207.81 197.25 207.81 236.31 207.81 288.76 228.57 288.76 228.57 300.19"/><polygon class="cls-9" points="249.92 288.76 271.62 288.76 271.62 199.23 271.62 192.88 271.62 188.55 271.62 192.88 271.62 147.41 182.99 147.41 182.99 142.91 271.62 142.91 271.62 127.67 271.62 12.56 243.6 12.56 243.6 0.5 283.05 0.5 283.05 300.19 249.92 300.19 249.92 288.76"/><line class="cls-9" x1="228.57" y1="300.19" x2="249.92" y2="300.19"/><line class="cls-9" x1="26.85" y1="288.76" x2="101.45" y2="288.76"/><line class="cls-9" x1="243.92" y1="0.5" x2="155.03" y2="0.5"/><path class="cls-9" d="M203.08,200.64v19H196v-19Zm0,2.65h-4.15v13.24h4.15Z"/><line class="cls-9" x1="95.74" y1="0.5" x2="36.85" y2="0.5"/><line class="cls-9" x1="96.69" y1="12.56" x2="37.8" y2="12.56"/><line class="cls-9" x1="243.6" y1="12.56" x2="154.71" y2="12.56"/><line class="cls-9" x1="27.17" y1="300.19" x2="103.36" y2="300.19"/></g><line class="cls-9" x1="228.48" y1="288.76" x2="249.8" y2="288.76"/><line class="cls-9" x1="249.8" y1="292.05" x2="228.57" y2="292.05"/><line class="cls-9" x1="249.92" y1="294.67" x2="228.57" y2="294.67"/><line class="cls-9" x1="153.01" y1="300.19" x2="174.36" y2="300.19"/><line class="cls-9" x1="152.92" y1="288.76" x2="174.24" y2="288.76"/><line class="cls-9" x1="174.24" y1="292.05" x2="153.01" y2="292.05"/><line class="cls-9" x1="174.36" y1="294.66" x2="153.01" y2="294.66"/></g><g id="Warstwa_2-2" data-name="Warstwa 2"><polyline class="cls-3" points="39.22 205.2 39.22 168.04 16.06 168.04 16.06 205.2 39.22 205.2"/><polyline class="cls-3" points="50.09 188.46 50.09 176.44 40.05 176.44 40.05 188.46 50.09 188.46"/><polyline class="cls-3" points="109.26 148.76 16.06 148.76 16.06 166.86 109.26 166.86 109.26 148.76"/><polyline class="cls-3" points="46.26 213.79 16 213.79 16 275.76 46.26 275.76 46.26 213.79"/><polyline class="cls-3" points="19.01 272.76 43.25 272.76 43.25 216.86 19.01 216.86 19.01 272.76"/><polyline class="cls-3" points="114.11 77.35 144.36 77.35 144.36 15.38 114.11 15.38 114.11 77.35"/><polyline class="cls-3" points="141.35 18.45 117.11 18.45 117.11 74.35 141.35 74.35 141.35 18.45"/><polyline class="cls-3" points="39.22 41.82 39.22 78.97 16.06 78.97 16.06 41.82 39.22 41.82"/><polyline class="cls-3" points="50.09 57.55 50.09 69.57 40.05 69.57 40.05 57.55 50.09 57.55"/><polyline class="cls-3" points="89.54 141.04 89.54 122.94 25.01 122.94 25.01 141.04 89.54 141.04"/><polyline class="cls-3" points="269.31 122.94 269.31 141.04 199.55 141.04 199.55 122.94 269.31 122.94"/><polyline class="cls-3" points="270.3 96.06 270.3 50.78 209.31 50.78 209.31 96.06 270.3 96.06"/><polyline class="cls-3" points="267.29 53.79 267.29 93.06 212.32 93.06 212.32 53.79 267.29 53.79"/><polyline class="cls-3" points="100.98 233.38 109.31 233.38 109.31 287.97 100.98 287.97 100.98 233.38"/><polyline class="cls-3" points="142.72 233.14 142.72 202.39 118.55 202.39 118.55 233.14 142.72 233.14"/><polyline class="cls-3" points="142.72 287.56 142.72 233.38 118.55 233.38 118.55 287.56 142.72 287.56"/><path class="cls-3" d="M140.19,285.1V244.29a7.35,7.35,0,0,0-7.35-7.34h-4.39a7.35,7.35,0,0,0-7.35,7.34V285.1h19.09"/><polyline class="cls-3" points="140.05 228.06 140.05 210.77 140.05 205.94 121.77 205.94 121.77 228.06 140.05 228.06"/><polyline class="cls-3" points="140.19 226.47 141.63 226.47 141.63 210.13 140.05 210.13"/><polyline class="cls-3" points="195.32 219.63 195.32 205.98 195.32 202.18 184.63 202.18 184.63 219.63 195.32 219.63"/><polyline class="cls-3" points="270.3 34.16 270.3 46.37 256.37 46.37 256.37 34.16 270.3 34.16"/><polyline class="cls-3" points="270.3 99.48 270.3 111.69 256.37 111.69 256.37 99.48 270.3 99.48"/></g></g></svg>